<?xml version="1.0" encoding="UTF-8" standalone="no"?>
<!DOCTYPE svg PUBLIC "-//W3C//DTD SVG 1.1//EN"
 "http://www.w3.org/Graphics/SVG/1.1/DTD/svg11.dtd">
<!-- Generated by graphviz version 2.26.3 (20100126.1600)
 -->
<!-- Title: call_graph Pages: 1 -->
<svg width="356pt" height="188pt"
 viewBox="0.00 0.00 356.00 188.00" xmlns="http://www.w3.org/2000/svg" xmlns:xlink="http://www.w3.org/1999/xlink">
<g id="graph1" class="graph" transform="scale(1 1) rotate(0) translate(4 184)">
<title>call_graph</title>
<polygon fill="white" stroke="white" points="-4,5 -4,-184 353,-184 353,5 -4,5"/>
<!-- program -->
<g id="node1" class="node"><title>program</title>
<ellipse fill="none" stroke="black" cx="197" cy="-162" rx="50.9221" ry="18"/>
<text text-anchor="middle" x="197" y="-157.9" font-family="Times Roman,serif" font-size="14.00">program</text>
</g>
<!-- arraydouble -->
<g id="node2" class="node"><title>arraydouble</title>
<ellipse fill="none" stroke="black" cx="69" cy="-90" rx="68.7933" ry="18"/>
<text text-anchor="middle" x="69" y="-85.9" font-family="Times Roman,serif" font-size="14.00">arraydouble</text>
</g>
<!-- program&#45;&gt;arraydouble -->
<g id="edge4" class="edge"><title>program&#45;&gt;arraydouble</title>
<path fill="none" stroke="black" d="M169.854,-146.731C151.654,-136.493 127.421,-122.862 107.27,-111.527"/>
<polygon fill="black" stroke="black" points="108.767,-108.353 98.3357,-106.501 105.336,-114.455 108.767,-108.353"/>
</g>
<!-- readln -->
<g id="node7" class="node"><title>readln</title>
<ellipse fill="none" stroke="black" cx="197" cy="-90" rx="41.1906" ry="18"/>
<text text-anchor="middle" x="197" y="-85.9" font-family="Times Roman,serif" font-size="14.00">readln</text>
</g>
<!-- program&#45;&gt;readln -->
<g id="edge6" class="edge"><title>program&#45;&gt;readln</title>
<path fill="none" stroke="black" d="M197,-143.831C197,-136.131 197,-126.974 197,-118.417"/>
<polygon fill="black" stroke="black" points="200.5,-118.413 197,-108.413 193.5,-118.413 200.5,-118.413"/>
</g>
<!-- writeln -->
<g id="node9" class="node"><title>writeln</title>
<ellipse fill="none" stroke="black" cx="302" cy="-90" rx="45.8622" ry="18"/>
<text text-anchor="middle" x="302" y="-85.9" font-family="Times Roman,serif" font-size="14.00">writeln</text>
</g>
<!-- program&#45;&gt;writeln -->
<g id="edge8" class="edge"><title>program&#45;&gt;writeln</title>
<path fill="none" stroke="black" d="M220.564,-145.842C235.257,-135.767 254.347,-122.677 270.35,-111.703"/>
<polygon fill="black" stroke="black" points="272.608,-114.398 278.876,-105.856 268.649,-108.625 272.608,-114.398"/>
</g>
<!-- double -->
<g id="node4" class="node"><title>double</title>
<ellipse fill="none" stroke="black" cx="69" cy="-18" rx="43.0827" ry="18"/>
<text text-anchor="middle" x="69" y="-13.9" font-family="Times Roman,serif" font-size="14.00">double</text>
</g>
<!-- arraydouble&#45;&gt;double -->
<g id="edge2" class="edge"><title>arraydouble&#45;&gt;double</title>
<path fill="none" stroke="black" d="M69,-71.8314C69,-64.131 69,-54.9743 69,-46.4166"/>
<polygon fill="black" stroke="black" points="72.5001,-46.4132 69,-36.4133 65.5001,-46.4133 72.5001,-46.4132"/>
</g>
</g>
</svg>
