<?xml version="1.0" encoding="UTF-8" standalone="no"?>
<!DOCTYPE svg PUBLIC "-//W3C//DTD SVG 1.1//EN"
 "http://www.w3.org/Graphics/SVG/1.1/DTD/svg11.dtd">
<!-- Generated by graphviz version 2.26.3 (20100126.1600)
 -->
<!-- Title: call_graph Pages: 1 -->
<svg width="663pt" height="332pt"
 viewBox="0.00 0.00 663.00 332.00" xmlns="http://www.w3.org/2000/svg" xmlns:xlink="http://www.w3.org/1999/xlink">
<g id="graph1" class="graph" transform="scale(1 1) rotate(0) translate(4 328)">
<title>call_graph</title>
<polygon fill="white" stroke="white" points="-4,5 -4,-328 660,-328 660,5 -4,5"/>
<!-- program -->
<g id="node1" class="node"><title>program</title>
<ellipse fill="none" stroke="black" cx="474" cy="-306" rx="50.9221" ry="18"/>
<text text-anchor="middle" x="474" y="-301.9" font-family="Times Roman,serif" font-size="14.00">program</text>
</g>
<!-- affiche -->
<g id="node2" class="node"><title>affiche</title>
<ellipse fill="none" stroke="black" cx="138" cy="-162" rx="43.0827" ry="18"/>
<text text-anchor="middle" x="138" y="-157.9" font-family="Times Roman,serif" font-size="14.00">affiche</text>
</g>
<!-- program&#45;&gt;affiche -->
<g id="edge34" class="edge"><title>program&#45;&gt;affiche</title>
<path fill="none" stroke="black" d="M425.439,-300.166C379.269,-293.251 308.787,-279.075 253,-252 218.264,-235.141 184.157,-206.489 162.224,-186.042"/>
<polygon fill="black" stroke="black" points="164.379,-183.261 154.716,-178.917 159.561,-188.339 164.379,-183.261"/>
</g>
<!-- bigfact -->
<g id="node10" class="node"><title>bigfact</title>
<ellipse fill="none" stroke="black" cx="474" cy="-162" rx="43.0827" ry="18"/>
<text text-anchor="middle" x="474" y="-157.9" font-family="Times Roman,serif" font-size="14.00">bigfact</text>
</g>
<!-- program&#45;&gt;bigfact -->
<g id="edge36" class="edge"><title>program&#45;&gt;bigfact</title>
<path fill="none" stroke="black" d="M474,-287.762C474,-263.201 474,-219.247 474,-190.354"/>
<polygon fill="black" stroke="black" points="477.5,-190.09 474,-180.09 470.5,-190.09 477.5,-190.09"/>
</g>
<!-- grandir -->
<g id="node12" class="node"><title>grandir</title>
<ellipse fill="none" stroke="black" cx="568" cy="-90" rx="45.8622" ry="18"/>
<text text-anchor="middle" x="568" y="-85.9" font-family="Times Roman,serif" font-size="14.00">grandir</text>
</g>
<!-- program&#45;&gt;grandir -->
<g id="edge38" class="edge"><title>program&#45;&gt;grandir</title>
<path fill="none" stroke="black" d="M481.853,-287.955C498.344,-250.061 536.661,-162.013 556.154,-117.221"/>
<polygon fill="black" stroke="black" points="559.455,-118.407 560.236,-107.841 553.036,-115.614 559.455,-118.407"/>
</g>
<!-- pow -->
<g id="node22" class="node"><title>pow</title>
<ellipse fill="none" stroke="black" cx="294" cy="-234" rx="31.9646" ry="18"/>
<text text-anchor="middle" x="294" y="-229.9" font-family="Times Roman,serif" font-size="14.00">pow</text>
</g>
<!-- program&#45;&gt;pow -->
<g id="edge40" class="edge"><title>program&#45;&gt;pow</title>
<path fill="none" stroke="black" d="M440.143,-292.457C408.58,-279.832 361.676,-261.071 329.572,-248.229"/>
<polygon fill="black" stroke="black" points="330.701,-244.911 320.116,-244.447 328.101,-251.41 330.701,-244.911"/>
</g>
<!-- readln -->
<g id="node34" class="node"><title>readln</title>
<ellipse fill="none" stroke="black" cx="614" cy="-234" rx="41.1906" ry="18"/>
<text text-anchor="middle" x="614" y="-229.9" font-family="Times Roman,serif" font-size="14.00">readln</text>
</g>
<!-- program&#45;&gt;readln -->
<g id="edge42" class="edge"><title>program&#45;&gt;readln</title>
<path fill="none" stroke="black" d="M503.008,-291.082C524.689,-279.931 554.471,-264.615 577.726,-252.655"/>
<polygon fill="black" stroke="black" points="579.637,-255.608 586.929,-247.922 576.435,-249.383 579.637,-255.608"/>
</g>
<!-- write -->
<g id="node4" class="node"><title>write</title>
<ellipse fill="none" stroke="black" cx="37" cy="-90" rx="36.8288" ry="18"/>
<text text-anchor="middle" x="37" y="-85.9" font-family="Times Roman,serif" font-size="14.00">write</text>
</g>
<!-- affiche&#45;&gt;write -->
<g id="edge2" class="edge"><title>affiche&#45;&gt;write</title>
<path fill="none" stroke="black" d="M116.085,-146.377C101.595,-136.048 82.4234,-122.381 66.5855,-111.091"/>
<polygon fill="black" stroke="black" points="68.3551,-108.054 58.1806,-105.099 64.2917,-113.754 68.3551,-108.054"/>
</g>
<!-- writeln -->
<g id="node6" class="node"><title>writeln</title>
<ellipse fill="none" stroke="black" cx="138" cy="-90" rx="45.8622" ry="18"/>
<text text-anchor="middle" x="138" y="-85.9" font-family="Times Roman,serif" font-size="14.00">writeln</text>
</g>
<!-- affiche&#45;&gt;writeln -->
<g id="edge4" class="edge"><title>affiche&#45;&gt;writeln</title>
<path fill="none" stroke="black" stroke-dasharray="5,2" d="M138,-143.831C138,-136.131 138,-126.974 138,-118.417"/>
<polygon fill="black" stroke="black" points="141.5,-118.413 138,-108.413 134.5,-118.413 141.5,-118.413"/>
</g>
<!-- bigadd -->
<g id="node7" class="node"><title>bigadd</title>
<ellipse fill="none" stroke="black" cx="329" cy="-90" rx="43.0827" ry="18"/>
<text text-anchor="middle" x="329" y="-85.9" font-family="Times Roman,serif" font-size="14.00">bigadd</text>
</g>
<!-- modulo -->
<g id="node9" class="node"><title>modulo</title>
<ellipse fill="none" stroke="black" cx="447" cy="-18" rx="46.0565" ry="18"/>
<text text-anchor="middle" x="447" y="-13.9" font-family="Times Roman,serif" font-size="14.00">modulo</text>
</g>
<!-- bigadd&#45;&gt;modulo -->
<g id="edge6" class="edge"><title>bigadd&#45;&gt;modulo</title>
<path fill="none" stroke="black" d="M353.45,-75.0816C370.699,-64.5562 394.033,-50.3188 413.081,-38.6962"/>
<polygon fill="black" stroke="black" points="415.054,-41.5925 421.767,-33.3961 411.408,-35.6171 415.054,-41.5925"/>
</g>
<!-- bigfact&#45;&gt;grandir -->
<g id="edge8" class="edge"><title>bigfact&#45;&gt;grandir</title>
<path fill="none" stroke="black" d="M494.862,-146.021C507.793,-136.116 524.595,-123.246 538.833,-112.341"/>
<polygon fill="black" stroke="black" points="541.061,-115.043 546.872,-106.183 536.805,-109.486 541.061,-115.043"/>
</g>
<!-- smallmult -->
<g id="node14" class="node"><title>smallmult</title>
<ellipse fill="none" stroke="black" cx="447" cy="-90" rx="57.1737" ry="18"/>
<text text-anchor="middle" x="447" y="-85.9" font-family="Times Roman,serif" font-size="14.00">smallmult</text>
</g>
<!-- bigfact&#45;&gt;smallmult -->
<g id="edge10" class="edge"><title>bigfact&#45;&gt;smallmult</title>
<path fill="none" stroke="black" d="M467.326,-144.202C464.33,-136.215 460.727,-126.605 457.391,-117.709"/>
<polygon fill="black" stroke="black" points="460.573,-116.227 453.785,-108.093 454.019,-118.685 460.573,-116.227"/>
</g>
<!-- grandir&#45;&gt;modulo -->
<g id="edge20" class="edge"><title>grandir&#45;&gt;modulo</title>
<path fill="none" stroke="black" d="M542.634,-74.9064C524.726,-64.2502 500.532,-49.854 480.96,-38.2078"/>
<polygon fill="black" stroke="black" points="482.716,-35.1795 472.332,-33.0737 479.136,-41.1951 482.716,-35.1795"/>
</g>
<!-- smallmult&#45;&gt;modulo -->
<g id="edge44" class="edge"><title>smallmult&#45;&gt;modulo</title>
<path fill="none" stroke="black" d="M447,-71.8314C447,-64.131 447,-54.9743 447,-46.4166"/>
<polygon fill="black" stroke="black" points="450.5,-46.4132 447,-36.4133 443.5,-46.4133 450.5,-46.4132"/>
</g>
<!-- bigmult -->
<g id="node15" class="node"><title>bigmult</title>
<ellipse fill="none" stroke="black" cx="328" cy="-162" rx="46.7546" ry="18"/>
<text text-anchor="middle" x="328" y="-157.9" font-family="Times Roman,serif" font-size="14.00">bigmult</text>
</g>
<!-- bigmult&#45;&gt;bigadd -->
<g id="edge12" class="edge"><title>bigmult&#45;&gt;bigadd</title>
<path fill="none" stroke="black" d="M328.252,-143.831C328.359,-136.131 328.486,-126.974 328.605,-118.417"/>
<polygon fill="black" stroke="black" points="332.105,-118.461 328.744,-108.413 325.106,-118.364 332.105,-118.461"/>
</g>
<!-- bigmult&#45;&gt;grandir -->
<g id="edge16" class="edge"><title>bigmult&#45;&gt;grandir</title>
<path fill="none" stroke="black" d="M365.414,-150.932C373.207,-148.634 381.37,-146.233 389,-144 444.076,-127.879 458.167,-124.927 513,-108 516.316,-106.976 519.739,-105.901 523.18,-104.807"/>
<polygon fill="black" stroke="black" points="524.398,-108.092 532.847,-101.7 522.256,-101.427 524.398,-108.092"/>
</g>
<!-- bigmult&#45;&gt;smallmult -->
<g id="edge18" class="edge"><title>bigmult&#45;&gt;smallmult</title>
<path fill="none" stroke="black" d="M353.237,-146.731C370.317,-136.396 393.112,-122.605 411.949,-111.207"/>
<polygon fill="black" stroke="black" points="413.818,-114.167 420.562,-105.996 410.195,-108.178 413.818,-114.167"/>
</g>
<!-- copy -->
<g id="node18" class="node"><title>copy</title>
<ellipse fill="none" stroke="black" cx="235" cy="-90" rx="32.8565" ry="18"/>
<text text-anchor="middle" x="235" y="-85.9" font-family="Times Roman,serif" font-size="14.00">copy</text>
</g>
<!-- bigmult&#45;&gt;copy -->
<g id="edge14" class="edge"><title>bigmult&#45;&gt;copy</title>
<path fill="none" stroke="black" d="M306.897,-145.662C293.636,-135.396 276.401,-122.052 262.129,-111.003"/>
<polygon fill="black" stroke="black" points="264.172,-108.158 254.122,-104.804 259.886,-113.693 264.172,-108.158"/>
</g>
<!-- pow&#45;&gt;affiche -->
<g id="edge22" class="edge"><title>pow&#45;&gt;affiche</title>
<path fill="none" stroke="black" stroke-dasharray="5,2" d="M268.936,-222.432C243.942,-210.896 205.218,-193.023 176.357,-179.703"/>
<polygon fill="black" stroke="black" points="177.527,-176.389 166.981,-175.376 174.594,-182.744 177.527,-176.389"/>
</g>
<!-- pow&#45;&gt;writeln -->
<g id="edge32" class="edge"><title>pow&#45;&gt;writeln</title>
<path fill="none" stroke="black" d="M277.305,-218.589C250.06,-193.44 195.857,-143.406 163.684,-113.709"/>
<polygon fill="black" stroke="black" points="165.731,-110.835 156.009,-106.624 160.984,-115.979 165.731,-110.835"/>
</g>
<!-- pow&#45;&gt;grandir -->
<g id="edge28" class="edge"><title>pow&#45;&gt;grandir</title>
<path fill="none" stroke="black" d="M317.834,-221.569C336.518,-211.389 362.812,-196.087 384,-180 402.529,-165.932 402.244,-156.285 422,-144 431.037,-138.38 484.225,-119.233 523.813,-105.332"/>
<polygon fill="black" stroke="black" points="525.014,-108.62 533.295,-102.011 522.7,-102.013 525.014,-108.62"/>
</g>
<!-- pow&#45;&gt;bigmult -->
<g id="edge24" class="edge"><title>pow&#45;&gt;bigmult</title>
<path fill="none" stroke="black" d="M302.23,-216.571C306.14,-208.293 310.901,-198.21 315.262,-188.975"/>
<polygon fill="black" stroke="black" points="318.504,-190.306 319.609,-179.769 312.174,-187.317 318.504,-190.306"/>
</g>
<!-- pow&#45;&gt;copy -->
<g id="edge26" class="edge"><title>pow&#45;&gt;copy</title>
<path fill="none" stroke="black" d="M286.765,-216.343C276.636,-191.62 258.133,-146.461 246.212,-117.364"/>
<polygon fill="black" stroke="black" points="249.324,-115.728 242.294,-107.802 242.846,-118.382 249.324,-115.728"/>
</g>
<!-- pow&#45;&gt;pow -->
<g id="edge30" class="edge"><title>pow&#45;&gt;pow</title>
<path fill="none" stroke="black" d="M316.885,-246.603C330.816,-249.521 344,-245.32 344,-234 344,-225.51 336.584,-221.024 326.999,-220.543"/>
<polygon fill="black" stroke="black" points="326.555,-217.068 316.885,-221.397 327.144,-224.043 326.555,-217.068"/>
</g>
</g>
</svg>
