<?xml version="1.0" encoding="UTF-8" standalone="no"?>
<!DOCTYPE svg PUBLIC "-//W3C//DTD SVG 1.1//EN"
 "http://www.w3.org/Graphics/SVG/1.1/DTD/svg11.dtd">
<!-- Generated by graphviz version 2.26.3 (20100126.1600)
 -->
<!-- Title: call_graph Pages: 1 -->
<svg width="377pt" height="260pt"
 viewBox="0.00 0.00 377.00 260.00" xmlns="http://www.w3.org/2000/svg" xmlns:xlink="http://www.w3.org/1999/xlink">
<g id="graph1" class="graph" transform="scale(1 1) rotate(0) translate(4 256)">
<title>call_graph</title>
<polygon fill="white" stroke="white" points="-4,5 -4,-256 374,-256 374,5 -4,5"/>
<!-- program -->
<g id="node1" class="node"><title>program</title>
<ellipse fill="none" stroke="black" cx="162" cy="-234" rx="50.9221" ry="18"/>
<text text-anchor="middle" x="162" y="-229.9" font-family="Times Roman,serif" font-size="14.00">program</text>
</g>
<!-- readln -->
<g id="node13" class="node"><title>readln</title>
<ellipse fill="none" stroke="black" cx="109" cy="-162" rx="41.1906" ry="18"/>
<text text-anchor="middle" x="109" y="-157.9" font-family="Times Roman,serif" font-size="14.00">readln</text>
</g>
<!-- program&#45;&gt;readln -->
<g id="edge10" class="edge"><title>program&#45;&gt;readln</title>
<path fill="none" stroke="black" d="M149.17,-216.571C142.725,-207.815 134.795,-197.042 127.687,-187.387"/>
<polygon fill="black" stroke="black" points="130.459,-185.247 121.712,-179.269 124.821,-189.397 130.459,-185.247"/>
</g>
<!-- triangle -->
<g id="node15" class="node"><title>triangle</title>
<ellipse fill="none" stroke="black" cx="216" cy="-162" rx="48.1403" ry="18"/>
<text text-anchor="middle" x="216" y="-157.9" font-family="Times Roman,serif" font-size="14.00">triangle</text>
</g>
<!-- program&#45;&gt;triangle -->
<g id="edge12" class="edge"><title>program&#45;&gt;triangle</title>
<path fill="none" stroke="black" stroke-dasharray="5,2" d="M175.072,-216.571C181.59,-207.88 189.6,-197.2 196.8,-187.6"/>
<polygon fill="black" stroke="black" points="199.661,-189.618 202.861,-179.518 194.061,-185.418 199.661,-189.618"/>
</g>
<!-- affiche -->
<g id="node2" class="node"><title>affiche</title>
<ellipse fill="none" stroke="black" cx="112" cy="-90" rx="43.0827" ry="18"/>
<text text-anchor="middle" x="112" y="-85.9" font-family="Times Roman,serif" font-size="14.00">affiche</text>
</g>
<!-- write -->
<g id="node4" class="node"><title>write</title>
<ellipse fill="none" stroke="black" cx="37" cy="-18" rx="36.8288" ry="18"/>
<text text-anchor="middle" x="37" y="-13.9" font-family="Times Roman,serif" font-size="14.00">write</text>
</g>
<!-- affiche&#45;&gt;write -->
<g id="edge2" class="edge"><title>affiche&#45;&gt;write</title>
<path fill="none" stroke="black" d="M94.605,-73.3008C84.6197,-63.715 71.9344,-51.537 61.0109,-41.0504"/>
<polygon fill="black" stroke="black" points="63.4225,-38.5139 53.7848,-34.1134 58.5748,-43.5636 63.4225,-38.5139"/>
</g>
<!-- writeln -->
<g id="node6" class="node"><title>writeln</title>
<ellipse fill="none" stroke="black" cx="138" cy="-18" rx="45.8622" ry="18"/>
<text text-anchor="middle" x="138" y="-13.9" font-family="Times Roman,serif" font-size="14.00">writeln</text>
</g>
<!-- affiche&#45;&gt;writeln -->
<g id="edge4" class="edge"><title>affiche&#45;&gt;writeln</title>
<path fill="none" stroke="black" stroke-dasharray="5,2" d="M118.561,-71.8314C121.446,-63.8406 124.898,-54.2819 128.087,-45.4514"/>
<polygon fill="black" stroke="black" points="131.427,-46.5077 131.531,-35.9134 124.843,-44.1302 131.427,-46.5077"/>
</g>
<!-- bigadd -->
<g id="node7" class="node"><title>bigadd</title>
<ellipse fill="none" stroke="black" cx="216" cy="-90" rx="43.0827" ry="18"/>
<text text-anchor="middle" x="216" y="-85.9" font-family="Times Roman,serif" font-size="14.00">bigadd</text>
</g>
<!-- modulo -->
<g id="node9" class="node"><title>modulo</title>
<ellipse fill="none" stroke="black" cx="273" cy="-18" rx="46.0565" ry="18"/>
<text text-anchor="middle" x="273" y="-13.9" font-family="Times Roman,serif" font-size="14.00">modulo</text>
</g>
<!-- bigadd&#45;&gt;modulo -->
<g id="edge6" class="edge"><title>bigadd&#45;&gt;modulo</title>
<path fill="none" stroke="black" d="M229.798,-72.5708C236.73,-63.8153 245.259,-53.0418 252.902,-43.3867"/>
<polygon fill="black" stroke="black" points="255.866,-45.2816 259.329,-35.2687 250.378,-40.9367 255.866,-45.2816"/>
</g>
<!-- grandir -->
<g id="node10" class="node"><title>grandir</title>
<ellipse fill="none" stroke="black" cx="323" cy="-90" rx="45.8622" ry="18"/>
<text text-anchor="middle" x="323" y="-85.9" font-family="Times Roman,serif" font-size="14.00">grandir</text>
</g>
<!-- grandir&#45;&gt;modulo -->
<g id="edge8" class="edge"><title>grandir&#45;&gt;modulo</title>
<path fill="none" stroke="black" d="M310.896,-72.5708C304.922,-63.9675 297.594,-53.4156 290.98,-43.8911"/>
<polygon fill="black" stroke="black" points="293.744,-41.7356 285.165,-35.5182 287.995,-45.7284 293.744,-41.7356"/>
</g>
<!-- triangle&#45;&gt;affiche -->
<g id="edge14" class="edge"><title>triangle&#45;&gt;affiche</title>
<path fill="none" stroke="black" d="M192.919,-146.021C178.175,-135.814 158.884,-122.458 142.835,-111.348"/>
<polygon fill="black" stroke="black" points="144.517,-108.255 134.303,-105.44 140.532,-114.01 144.517,-108.255"/>
</g>
<!-- triangle&#45;&gt;bigadd -->
<g id="edge16" class="edge"><title>triangle&#45;&gt;bigadd</title>
<path fill="none" stroke="black" d="M216,-143.831C216,-136.131 216,-126.974 216,-118.417"/>
<polygon fill="black" stroke="black" points="219.5,-118.413 216,-108.413 212.5,-118.413 219.5,-118.413"/>
</g>
<!-- triangle&#45;&gt;grandir -->
<g id="edge18" class="edge"><title>triangle&#45;&gt;grandir</title>
<path fill="none" stroke="black" d="M239.482,-146.199C254.674,-135.977 274.64,-122.541 291.242,-111.37"/>
<polygon fill="black" stroke="black" points="293.231,-114.25 299.573,-105.764 289.323,-108.443 293.231,-114.25"/>
</g>
</g>
</svg>
