<?xml version="1.0" encoding="UTF-8" standalone="no"?>
<!DOCTYPE svg PUBLIC "-//W3C//DTD SVG 1.1//EN"
 "http://www.w3.org/Graphics/SVG/1.1/DTD/svg11.dtd">
<!-- Generated by graphviz version 2.26.3 (20100126.1600)
 -->
<!-- Title: call_graph Pages: 1 -->
<svg width="356pt" height="332pt"
 viewBox="0.00 0.00 356.00 332.00" xmlns="http://www.w3.org/2000/svg" xmlns:xlink="http://www.w3.org/1999/xlink">
<g id="graph1" class="graph" transform="scale(1 1) rotate(0) translate(4 328)">
<title>call_graph</title>
<polygon fill="white" stroke="white" points="-4,5 -4,-328 353,-328 353,5 -4,5"/>
<!-- program -->
<g id="node1" class="node"><title>program</title>
<ellipse fill="none" stroke="black" cx="211" cy="-306" rx="50.9221" ry="18"/>
<text text-anchor="middle" x="211" y="-301.9" font-family="Times Roman,serif" font-size="14.00">program</text>
</g>
<!-- test -->
<g id="node15" class="node"><title>test</title>
<ellipse fill="none" stroke="black" cx="211" cy="-234" rx="30.0736" ry="18"/>
<text text-anchor="middle" x="211" y="-229.9" font-family="Times Roman,serif" font-size="14.00">test</text>
</g>
<!-- program&#45;&gt;test -->
<g id="edge14" class="edge"><title>program&#45;&gt;test</title>
<path fill="none" stroke="black" stroke-dasharray="5,2" d="M211,-287.831C211,-280.131 211,-270.974 211,-262.417"/>
<polygon fill="black" stroke="black" points="214.5,-262.413 211,-252.413 207.5,-262.413 214.5,-262.413"/>
</g>
<!-- bor -->
<g id="node2" class="node"><title>bor</title>
<ellipse fill="none" stroke="black" cx="89" cy="-90" rx="27.1004" ry="18"/>
<text text-anchor="middle" x="89" y="-85.9" font-family="Times Roman,serif" font-size="14.00">bor</text>
</g>
<!-- band -->
<g id="node4" class="node"><title>band</title>
<ellipse fill="none" stroke="black" cx="34" cy="-18" rx="34.2406" ry="18"/>
<text text-anchor="middle" x="34" y="-13.9" font-family="Times Roman,serif" font-size="14.00">band</text>
</g>
<!-- bor&#45;&gt;band -->
<g id="edge2" class="edge"><title>bor&#45;&gt;band</title>
<path fill="none" stroke="black" d="M76.5196,-73.6621C69.5866,-64.5861 60.8163,-53.1049 53.0442,-42.9306"/>
<polygon fill="black" stroke="black" points="55.6644,-40.595 46.8126,-34.7729 50.1017,-44.8443 55.6644,-40.595"/>
</g>
<!-- bnot -->
<g id="node6" class="node"><title>bnot</title>
<ellipse fill="none" stroke="black" cx="119" cy="-18" rx="32.8565" ry="18"/>
<text text-anchor="middle" x="119" y="-13.9" font-family="Times Roman,serif" font-size="14.00">bnot</text>
</g>
<!-- bor&#45;&gt;bnot -->
<g id="edge4" class="edge"><title>bor&#45;&gt;bnot</title>
<path fill="none" stroke="black" d="M90.6179,-71.8314C93.3024,-63.4214 97.3423,-53.2746 101.622,-44.068"/>
<polygon fill="black" stroke="black" points="104.846,-45.444 106.122,-34.9263 98.5654,-42.3525 104.846,-45.444"/>
</g>
<!-- bor&#45;&gt;bnot -->
<g id="edge6" class="edge"><title>bor&#45;&gt;bnot</title>
<path fill="none" stroke="black" stroke-dasharray="5,2" d="M101.568,-73.6621C105.965,-65.3478 110.543,-55.0152 114.115,-45.5177"/>
<polygon fill="black" stroke="black" points="117.431,-46.6372 117.422,-36.0423 110.822,-44.3302 117.431,-46.6372"/>
</g>
<!-- implies -->
<g id="node8" class="node"><title>implies</title>
<ellipse fill="none" stroke="black" cx="112" cy="-162" rx="43.9728" ry="18"/>
<text text-anchor="middle" x="112" y="-157.9" font-family="Times Roman,serif" font-size="14.00">implies</text>
</g>
<!-- implies&#45;&gt;bor -->
<g id="edge10" class="edge"><title>implies&#45;&gt;bor</title>
<path fill="none" stroke="black" stroke-dasharray="5,2" d="M106.196,-143.831C103.644,-135.841 100.59,-126.282 97.7692,-117.451"/>
<polygon fill="black" stroke="black" points="101.099,-116.374 94.7223,-107.913 94.4313,-118.504 101.099,-116.374"/>
</g>
<!-- implies&#45;&gt;bnot -->
<g id="edge8" class="edge"><title>implies&#45;&gt;bnot</title>
<path fill="none" stroke="black" d="M117.545,-143.701C120.397,-133.335 123.568,-120.065 125,-108 127.457,-87.2983 125.736,-63.7894 123.518,-45.991"/>
<polygon fill="black" stroke="black" points="126.971,-45.4112 122.144,-35.9799 120.036,-46.363 126.971,-45.4112"/>
</g>
<!-- pbool -->
<g id="node11" class="node"><title>pbool</title>
<ellipse fill="none" stroke="black" cx="211" cy="-162" rx="36.8288" ry="18"/>
<text text-anchor="middle" x="211" y="-157.9" font-family="Times Roman,serif" font-size="14.00">pbool</text>
</g>
<!-- writeln -->
<g id="node13" class="node"><title>writeln</title>
<ellipse fill="none" stroke="black" cx="218" cy="-90" rx="45.8622" ry="18"/>
<text text-anchor="middle" x="218" y="-85.9" font-family="Times Roman,serif" font-size="14.00">writeln</text>
</g>
<!-- pbool&#45;&gt;writeln -->
<g id="edge12" class="edge"><title>pbool&#45;&gt;writeln</title>
<path fill="none" stroke="black" stroke-dasharray="5,2" d="M212.766,-143.831C213.515,-136.131 214.405,-126.974 215.237,-118.417"/>
<polygon fill="black" stroke="black" points="218.726,-118.705 216.21,-108.413 211.758,-118.028 218.726,-118.705"/>
</g>
<!-- test&#45;&gt;band -->
<g id="edge16" class="edge"><title>test&#45;&gt;band</title>
<path fill="none" stroke="black" d="M182.685,-227.603C143.306,-218.122 75.0236,-199.364 59,-180 27.6786,-142.149 27.2325,-81.6744 30.2629,-46.3041"/>
<polygon fill="black" stroke="black" points="33.7622,-46.487 31.2847,-36.1859 26.7976,-45.7837 33.7622,-46.487"/>
</g>
<!-- test&#45;&gt;implies -->
<g id="edge18" class="edge"><title>test&#45;&gt;implies</title>
<path fill="none" stroke="black" d="M191.441,-219.775C177.367,-209.54 158.121,-195.543 142.098,-183.889"/>
<polygon fill="black" stroke="black" points="143.727,-180.746 133.581,-177.695 139.609,-186.407 143.727,-180.746"/>
</g>
<!-- test&#45;&gt;pbool -->
<g id="edge22" class="edge"><title>test&#45;&gt;pbool</title>
<path fill="none" stroke="black" stroke-dasharray="5,2" d="M205.084,-216.202C204.295,-208.327 204.065,-198.875 204.397,-190.085"/>
<polygon fill="black" stroke="black" points="207.907,-190.053 205.08,-179.843 200.922,-189.588 207.907,-190.053"/>
</g>
<!-- test&#45;&gt;pbool -->
<g id="edge20" class="edge"><title>test&#45;&gt;pbool</title>
<path fill="none" stroke="black" d="M216.916,-216.202C217.705,-208.327 217.935,-198.875 217.603,-190.085"/>
<polygon fill="black" stroke="black" points="221.078,-189.588 216.92,-179.843 214.093,-190.053 221.078,-189.588"/>
</g>
<!-- readln -->
<g id="node21" class="node"><title>readln</title>
<ellipse fill="none" stroke="black" cx="307" cy="-162" rx="41.1906" ry="18"/>
<text text-anchor="middle" x="307" y="-157.9" font-family="Times Roman,serif" font-size="14.00">readln</text>
</g>
<!-- test&#45;&gt;readln -->
<g id="edge24" class="edge"><title>test&#45;&gt;readln</title>
<path fill="none" stroke="black" d="M229.967,-219.775C243.614,-209.54 262.276,-195.543 277.814,-183.889"/>
<polygon fill="black" stroke="black" points="280.173,-186.495 286.073,-177.695 275.973,-180.895 280.173,-186.495"/>
</g>
</g>
</svg>
