<?xml version="1.0" encoding="UTF-8" standalone="no"?>
<!DOCTYPE svg PUBLIC "-//W3C//DTD SVG 1.1//EN"
 "http://www.w3.org/Graphics/SVG/1.1/DTD/svg11.dtd">
<!-- Generated by graphviz version 2.26.3 (20100126.1600)
 -->
<!-- Title: call_graph Pages: 1 -->
<svg width="177pt" height="116pt"
 viewBox="0.00 0.00 177.00 116.00" xmlns="http://www.w3.org/2000/svg" xmlns:xlink="http://www.w3.org/1999/xlink">
<g id="graph1" class="graph" transform="scale(1 1) rotate(0) translate(4 112)">
<title>call_graph</title>
<polygon fill="white" stroke="white" points="-4,5 -4,-112 174,-112 174,5 -4,5"/>
<!-- program -->
<g id="node1" class="node"><title>program</title>
<ellipse fill="none" stroke="black" cx="118" cy="-90" rx="50.9221" ry="18"/>
<text text-anchor="middle" x="118" y="-85.9" font-family="Times Roman,serif" font-size="14.00">program</text>
</g>
<!-- f -->
<g id="node3" class="node"><title>f</title>
<ellipse fill="none" stroke="black" cx="27" cy="-18" rx="27" ry="18"/>
<text text-anchor="middle" x="27" y="-13.9" font-family="Times Roman,serif" font-size="14.00">f</text>
</g>
<!-- program&#45;&gt;f -->
<g id="edge2" class="edge"><title>program&#45;&gt;f</title>
<path fill="none" stroke="black" d="M96.894,-73.3008C83.763,-62.9114 66.7835,-49.4771 52.8483,-38.4514"/>
<polygon fill="black" stroke="black" points="54.6405,-35.4064 44.6266,-31.9463 50.2971,-40.896 54.6405,-35.4064"/>
</g>
<!-- writeln -->
<g id="node5" class="node"><title>writeln</title>
<ellipse fill="none" stroke="black" cx="118" cy="-18" rx="45.8622" ry="18"/>
<text text-anchor="middle" x="118" y="-13.9" font-family="Times Roman,serif" font-size="14.00">writeln</text>
</g>
<!-- program&#45;&gt;writeln -->
<g id="edge4" class="edge"><title>program&#45;&gt;writeln</title>
<path fill="none" stroke="black" d="M112.048,-71.8314C111.286,-64.0125 111.07,-54.6923 111.4,-46.0221"/>
<polygon fill="black" stroke="black" points="114.9,-46.1239 112.073,-35.9134 107.916,-45.6587 114.9,-46.1239"/>
</g>
<!-- program&#45;&gt;writeln -->
<g id="edge6" class="edge"><title>program&#45;&gt;writeln</title>
<path fill="none" stroke="black" stroke-dasharray="5,2" d="M123.952,-71.8314C124.714,-64.0125 124.93,-54.6923 124.6,-46.0221"/>
<polygon fill="black" stroke="black" points="128.084,-45.6587 123.927,-35.9134 121.1,-46.1239 128.084,-45.6587"/>
</g>
</g>
</svg>
