<?xml version="1.0" encoding="UTF-8" standalone="no"?>
<!DOCTYPE svg PUBLIC "-//W3C//DTD SVG 1.1//EN"
 "http://www.w3.org/Graphics/SVG/1.1/DTD/svg11.dtd">
<!-- Generated by graphviz version 2.26.3 (20100126.1600)
 -->
<!-- Title: call_graph Pages: 1 -->
<svg width="188pt" height="188pt"
 viewBox="0.00 0.00 188.00 188.00" xmlns="http://www.w3.org/2000/svg" xmlns:xlink="http://www.w3.org/1999/xlink">
<g id="graph1" class="graph" transform="scale(1 1) rotate(0) translate(4 184)">
<title>call_graph</title>
<polygon fill="white" stroke="white" points="-4,5 -4,-184 185,-184 185,5 -4,5"/>
<!-- program -->
<g id="node1" class="node"><title>program</title>
<ellipse fill="none" stroke="black" cx="72" cy="-162" rx="50.9221" ry="18"/>
<text text-anchor="middle" x="72" y="-157.9" font-family="Times Roman,serif" font-size="14.00">program</text>
</g>
<!-- f -->
<g id="node2" class="node"><title>f</title>
<ellipse fill="none" stroke="black" cx="27" cy="-90" rx="27" ry="18"/>
<text text-anchor="middle" x="27" y="-85.9" font-family="Times Roman,serif" font-size="14.00">f</text>
</g>
<!-- program&#45;&gt;f -->
<g id="edge12" class="edge"><title>program&#45;&gt;f</title>
<path fill="none" stroke="black" d="M60.8764,-144.202C55.5116,-135.619 48.9758,-125.161 43.0814,-115.73"/>
<polygon fill="black" stroke="black" points="45.9538,-113.722 37.6858,-107.097 40.0178,-117.432 45.9538,-113.722"/>
</g>
<!-- g -->
<g id="node6" class="node"><title>g</title>
<ellipse fill="none" stroke="black" cx="117" cy="-90" rx="27" ry="18"/>
<text text-anchor="middle" x="117" y="-85.9" font-family="Times Roman,serif" font-size="14.00">g</text>
</g>
<!-- program&#45;&gt;g -->
<g id="edge14" class="edge"><title>program&#45;&gt;g</title>
<path fill="none" stroke="black" stroke-dasharray="5,2" d="M83.1236,-144.202C88.4884,-135.619 95.0242,-125.161 100.919,-115.73"/>
<polygon fill="black" stroke="black" points="103.982,-117.432 106.314,-107.097 98.0462,-113.722 103.982,-117.432"/>
</g>
<!-- f&#45;&gt;f -->
<g id="edge2" class="edge"><title>f&#45;&gt;f</title>
<path fill="none" stroke="black" stroke-dasharray="5,2" d="M46.895,-102.432C59.688,-105.675 72,-101.531 72,-90 72,-81.6218 65.5006,-77.1433 57.0395,-76.5644"/>
<polygon fill="black" stroke="black" points="56.5019,-73.1004 46.895,-77.5679 57.191,-80.0665 56.5019,-73.1004"/>
</g>
<!-- writeln -->
<g id="node5" class="node"><title>writeln</title>
<ellipse fill="none" stroke="black" cx="72" cy="-18" rx="45.8622" ry="18"/>
<text text-anchor="middle" x="72" y="-13.9" font-family="Times Roman,serif" font-size="14.00">writeln</text>
</g>
<!-- f&#45;&gt;writeln -->
<g id="edge4" class="edge"><title>f&#45;&gt;writeln</title>
<path fill="none" stroke="black" stroke-dasharray="5,2" d="M37.437,-73.3008C42.844,-64.6496 49.5705,-53.8873 55.6486,-44.1623"/>
<polygon fill="black" stroke="black" points="58.6597,-45.9482 60.9918,-35.6132 52.7237,-42.2382 58.6597,-45.9482"/>
</g>
<!-- g&#45;&gt;writeln -->
<g id="edge10" class="edge"><title>g&#45;&gt;writeln</title>
<path fill="none" stroke="black" stroke-dasharray="5,2" d="M106.563,-73.3008C101.156,-64.6496 94.4295,-53.8873 88.3514,-44.1623"/>
<polygon fill="black" stroke="black" points="91.2763,-42.2382 83.0082,-35.6132 85.3403,-45.9482 91.2763,-42.2382"/>
</g>
<!-- g&#45;&gt;g -->
<g id="edge6" class="edge"><title>g&#45;&gt;g</title>
<path fill="none" stroke="black" d="M142.443,-96.6907C153.028,-97.1521 162,-94.9219 162,-90 162,-86.77 158.136,-84.6992 152.488,-83.7876"/>
<polygon fill="black" stroke="black" points="152.599,-80.289 142.443,-83.3093 152.266,-87.2811 152.599,-80.289"/>
</g>
<!-- g&#45;&gt;g -->
<g id="edge8" class="edge"><title>g&#45;&gt;g</title>
<path fill="none" stroke="black" stroke-dasharray="5,2" d="M138.627,-101.007C158.538,-106.536 180,-102.867 180,-90 180,-79.2438 165.002,-74.9152 148.45,-77.014"/>
<polygon fill="black" stroke="black" points="147.739,-73.587 138.627,-78.9925 149.121,-80.4492 147.739,-73.587"/>
</g>
</g>
</svg>
