<?xml version="1.0" encoding="UTF-8" standalone="no"?>
<!DOCTYPE svg PUBLIC "-//W3C//DTD SVG 1.1//EN"
 "http://www.w3.org/Graphics/SVG/1.1/DTD/svg11.dtd">
<!-- Generated by graphviz version 2.26.3 (20100126.1600)
 -->
<!-- Title: call_graph Pages: 1 -->
<svg width="186pt" height="116pt"
 viewBox="0.00 0.00 186.00 116.00" xmlns="http://www.w3.org/2000/svg" xmlns:xlink="http://www.w3.org/1999/xlink">
<g id="graph1" class="graph" transform="scale(1 1) rotate(0) translate(4 112)">
<title>call_graph</title>
<polygon fill="white" stroke="white" points="-4,5 -4,-112 183,-112 183,5 -4,5"/>
<!-- program -->
<g id="node1" class="node"><title>program</title>
<ellipse fill="none" stroke="black" cx="83" cy="-90" rx="50.9221" ry="18"/>
<text text-anchor="middle" x="83" y="-85.9" font-family="Times Roman,serif" font-size="14.00">program</text>
</g>
<!-- dead -->
<g id="node3" class="node"><title>dead</title>
<ellipse fill="none" stroke="black" cx="34" cy="-18" rx="34.2406" ry="18"/>
<text text-anchor="middle" x="34" y="-13.9" font-family="Times Roman,serif" font-size="14.00">dead</text>
</g>
<!-- program&#45;&gt;dead -->
<g id="edge2" class="edge"><title>program&#45;&gt;dead</title>
<path fill="none" stroke="black" d="M70.8876,-72.2022C64.9857,-63.5301 57.7824,-52.9455 51.3126,-43.4389"/>
<polygon fill="black" stroke="black" points="54.1554,-41.3952 45.6356,-35.0972 48.3684,-45.3336 54.1554,-41.3952"/>
</g>
<!-- writeln -->
<g id="node5" class="node"><title>writeln</title>
<ellipse fill="none" stroke="black" cx="132" cy="-18" rx="45.8622" ry="18"/>
<text text-anchor="middle" x="132" y="-13.9" font-family="Times Roman,serif" font-size="14.00">writeln</text>
</g>
<!-- program&#45;&gt;writeln -->
<g id="edge4" class="edge"><title>program&#45;&gt;writeln</title>
<path fill="none" stroke="black" stroke-dasharray="5,2" d="M95.1124,-72.2022C100.868,-63.7448 107.862,-53.4685 114.206,-44.147"/>
<polygon fill="black" stroke="black" points="117.294,-45.8294 120.027,-35.593 111.507,-41.891 117.294,-45.8294"/>
</g>
</g>
</svg>
