<?xml version="1.0" encoding="UTF-8" standalone="no"?>
<!DOCTYPE svg PUBLIC "-//W3C//DTD SVG 1.1//EN"
 "http://www.w3.org/Graphics/SVG/1.1/DTD/svg11.dtd">
<!-- Generated by graphviz version 2.26.3 (20100126.1600)
 -->
<!-- Title: call_graph Pages: 1 -->
<svg width="316pt" height="116pt"
 viewBox="0.00 0.00 316.00 116.00" xmlns="http://www.w3.org/2000/svg" xmlns:xlink="http://www.w3.org/1999/xlink">
<g id="graph1" class="graph" transform="scale(1 1) rotate(0) translate(4 112)">
<title>call_graph</title>
<polygon fill="white" stroke="white" points="-4,5 -4,-112 313,-112 313,5 -4,5"/>
<!-- program -->
<g id="node1" class="node"><title>program</title>
<ellipse fill="none" stroke="black" cx="204" cy="-90" rx="50.9221" ry="18"/>
<text text-anchor="middle" x="204" y="-85.9" font-family="Times Roman,serif" font-size="14.00">program</text>
</g>
<!-- find -->
<g id="node2" class="node"><title>find</title>
<ellipse fill="none" stroke="black" cx="29" cy="-18" rx="29.1851" ry="18"/>
<text text-anchor="middle" x="29" y="-13.9" font-family="Times Roman,serif" font-size="14.00">find</text>
</g>
<!-- program&#45;&gt;find -->
<g id="edge4" class="edge"><title>program&#45;&gt;find</title>
<path fill="none" stroke="black" d="M170.672,-76.2879C139.71,-63.5493 93.8293,-44.6726 62.737,-31.8804"/>
<polygon fill="black" stroke="black" points="63.7791,-28.5245 53.1995,-27.9563 61.1156,-34.998 63.7791,-28.5245"/>
</g>
<!-- findLoop -->
<g id="node6" class="node"><title>findLoop</title>
<ellipse fill="none" stroke="black" cx="146" cy="-18" rx="52.1162" ry="18"/>
<text text-anchor="middle" x="146" y="-13.9" font-family="Times Roman,serif" font-size="14.00">findLoop</text>
</g>
<!-- program&#45;&gt;findLoop -->
<g id="edge6" class="edge"><title>program&#45;&gt;findLoop</title>
<path fill="none" stroke="black" d="M189.96,-72.5708C182.888,-63.7919 174.182,-52.9841 166.388,-43.3093"/>
<polygon fill="black" stroke="black" points="169.111,-41.1101 160.112,-35.5182 163.66,-45.5015 169.111,-41.1101"/>
</g>
<!-- writeln -->
<g id="node8" class="node"><title>writeln</title>
<ellipse fill="none" stroke="black" cx="262" cy="-18" rx="45.8622" ry="18"/>
<text text-anchor="middle" x="262" y="-13.9" font-family="Times Roman,serif" font-size="14.00">writeln</text>
</g>
<!-- program&#45;&gt;writeln -->
<g id="edge8" class="edge"><title>program&#45;&gt;writeln</title>
<path fill="none" stroke="black" d="M212.421,-72.2022C218.818,-63.1332 227.642,-51.9726 236.14,-42.1407"/>
<polygon fill="black" stroke="black" points="238.809,-44.4068 242.833,-34.6058 233.575,-39.7582 238.809,-44.4068"/>
</g>
<!-- program&#45;&gt;writeln -->
<g id="edge10" class="edge"><title>program&#45;&gt;writeln</title>
<path fill="none" stroke="black" stroke-dasharray="5,2" d="M223.253,-73.3008C231.188,-64.6256 240.125,-53.8275 247.507,-44.0813"/>
<polygon fill="black" stroke="black" points="250.439,-46.0012 253.53,-35.8671 244.794,-41.8621 250.439,-46.0012"/>
</g>
<!-- find&#45;&gt;find -->
<g id="edge2" class="edge"><title>find&#45;&gt;find</title>
<path fill="none" stroke="black" stroke-dasharray="5,2" d="M50.2679,-30.5475C63.4525,-33.5731 76,-29.3906 76,-18 76,-9.63501 69.2331,-5.15741 60.4163,-4.56721"/>
<polygon fill="black" stroke="black" points="59.9258,-1.09661 50.2679,-5.45251 60.5342,-8.07012 59.9258,-1.09661"/>
</g>
</g>
</svg>
