<?xml version="1.0" encoding="UTF-8" standalone="no"?>
<!DOCTYPE svg PUBLIC "-//W3C//DTD SVG 1.1//EN"
 "http://www.w3.org/Graphics/SVG/1.1/DTD/svg11.dtd">
<!-- Generated by graphviz version 2.26.3 (20100126.1600)
 -->
<!-- Title: call_graph Pages: 1 -->
<svg width="350pt" height="188pt"
 viewBox="0.00 0.00 350.00 188.00" xmlns="http://www.w3.org/2000/svg" xmlns:xlink="http://www.w3.org/1999/xlink">
<g id="graph1" class="graph" transform="scale(1 1) rotate(0) translate(4 184)">
<title>call_graph</title>
<polygon fill="white" stroke="white" points="-4,5 -4,-184 347,-184 347,5 -4,5"/>
<!-- program -->
<g id="node1" class="node"><title>program</title>
<ellipse fill="none" stroke="black" cx="189" cy="-162" rx="50.9221" ry="18"/>
<text text-anchor="middle" x="189" y="-157.9" font-family="Times Roman,serif" font-size="14.00">program</text>
</g>
<!-- distance -->
<g id="node2" class="node"><title>distance</title>
<ellipse fill="none" stroke="black" cx="51" cy="-90" rx="50.9221" ry="18"/>
<text text-anchor="middle" x="51" y="-85.9" font-family="Times Roman,serif" font-size="14.00">distance</text>
</g>
<!-- program&#45;&gt;distance -->
<g id="edge6" class="edge"><title>program&#45;&gt;distance</title>
<path fill="none" stroke="black" d="M160.406,-147.082C139.729,-136.293 111.577,-121.605 89.0081,-109.83"/>
<polygon fill="black" stroke="black" points="90.5167,-106.67 80.0318,-105.147 87.2787,-112.876 90.5167,-106.67"/>
</g>
<!-- input -->
<g id="node5" class="node"><title>input</title>
<ellipse fill="none" stroke="black" cx="157" cy="-90" rx="36.8288" ry="18"/>
<text text-anchor="middle" x="157" y="-85.9" font-family="Times Roman,serif" font-size="14.00">input</text>
</g>
<!-- program&#45;&gt;input -->
<g id="edge8" class="edge"><title>program&#45;&gt;input</title>
<path fill="none" stroke="black" d="M181.09,-144.202C177.474,-136.068 173.111,-126.25 169.097,-117.218"/>
<polygon fill="black" stroke="black" points="172.19,-115.559 164.93,-107.843 165.793,-118.402 172.19,-115.559"/>
</g>
<!-- readln -->
<g id="node7" class="node"><title>readln</title>
<ellipse fill="none" stroke="black" cx="189" cy="-18" rx="41.1906" ry="18"/>
<text text-anchor="middle" x="189" y="-13.9" font-family="Times Roman,serif" font-size="14.00">readln</text>
</g>
<!-- program&#45;&gt;readln -->
<g id="edge10" class="edge"><title>program&#45;&gt;readln</title>
<path fill="none" stroke="black" d="M194.97,-143.732C198.041,-133.376 201.456,-120.105 203,-108 205.024,-92.1285 205.024,-87.8715 203,-72 201.915,-63.4887 199.904,-54.4011 197.738,-46.1555"/>
<polygon fill="black" stroke="black" points="201.036,-44.9542 194.97,-36.2681 194.296,-46.8414 201.036,-44.9542"/>
</g>
<!-- writeln -->
<g id="node12" class="node"><title>writeln</title>
<ellipse fill="none" stroke="black" cx="296" cy="-90" rx="45.8622" ry="18"/>
<text text-anchor="middle" x="296" y="-85.9" font-family="Times Roman,serif" font-size="14.00">writeln</text>
</g>
<!-- program&#45;&gt;writeln -->
<g id="edge12" class="edge"><title>program&#45;&gt;writeln</title>
<path fill="none" stroke="black" stroke-dasharray="5,2" d="M212.747,-146.021C227.812,-135.884 247.492,-122.641 263.935,-111.576"/>
<polygon fill="black" stroke="black" points="266.345,-114.173 272.688,-105.687 262.437,-108.366 266.345,-114.173"/>
</g>
<!-- min -->
<g id="node4" class="node"><title>min</title>
<ellipse fill="none" stroke="black" cx="51" cy="-18" rx="29.1851" ry="18"/>
<text text-anchor="middle" x="51" y="-13.9" font-family="Times Roman,serif" font-size="14.00">min</text>
</g>
<!-- distance&#45;&gt;min -->
<g id="edge2" class="edge"><title>distance&#45;&gt;min</title>
<path fill="none" stroke="black" d="M51,-71.8314C51,-64.131 51,-54.9743 51,-46.4166"/>
<polygon fill="black" stroke="black" points="54.5001,-46.4132 51,-36.4133 47.5001,-46.4133 54.5001,-46.4132"/>
</g>
<!-- input&#45;&gt;readln -->
<g id="edge4" class="edge"><title>input&#45;&gt;readln</title>
<path fill="none" stroke="black" d="M164.91,-72.2022C168.526,-64.0675 172.889,-54.2501 176.903,-45.2181"/>
<polygon fill="black" stroke="black" points="180.207,-46.4022 181.07,-35.8425 173.81,-43.5592 180.207,-46.4022"/>
</g>
</g>
</svg>
