<?xml version="1.0" encoding="UTF-8" standalone="no"?>
<!DOCTYPE svg PUBLIC "-//W3C//DTD SVG 1.1//EN"
 "http://www.w3.org/Graphics/SVG/1.1/DTD/svg11.dtd">
<!-- Generated by graphviz version 2.26.3 (20100126.1600)
 -->
<!-- Title: call_graph Pages: 1 -->
<svg width="322pt" height="188pt"
 viewBox="0.00 0.00 322.00 188.00" xmlns="http://www.w3.org/2000/svg" xmlns:xlink="http://www.w3.org/1999/xlink">
<g id="graph1" class="graph" transform="scale(1 1) rotate(0) translate(4 184)">
<title>call_graph</title>
<polygon fill="white" stroke="white" points="-4,5 -4,-184 319,-184 319,5 -4,5"/>
<!-- program -->
<g id="node1" class="node"><title>program</title>
<ellipse fill="none" stroke="black" cx="138" cy="-162" rx="50.9221" ry="18"/>
<text text-anchor="middle" x="138" y="-157.9" font-family="Times Roman,serif" font-size="14.00">program</text>
</g>
<!-- input -->
<g id="node2" class="node"><title>input</title>
<ellipse fill="none" stroke="black" cx="37" cy="-90" rx="36.8288" ry="18"/>
<text text-anchor="middle" x="37" y="-85.9" font-family="Times Roman,serif" font-size="14.00">input</text>
</g>
<!-- program&#45;&gt;input -->
<g id="edge8" class="edge"><title>program&#45;&gt;input</title>
<path fill="none" stroke="black" d="M115.334,-145.842C100.808,-135.487 81.8146,-121.947 66.1682,-110.793"/>
<polygon fill="black" stroke="black" points="68.0443,-107.832 57.8698,-104.878 63.9809,-113.532 68.0443,-107.832"/>
</g>
<!-- readln -->
<g id="node4" class="node"><title>readln</title>
<ellipse fill="none" stroke="black" cx="53" cy="-18" rx="41.1906" ry="18"/>
<text text-anchor="middle" x="53" y="-13.9" font-family="Times Roman,serif" font-size="14.00">readln</text>
</g>
<!-- program&#45;&gt;readln -->
<g id="edge12" class="edge"><title>program&#45;&gt;readln</title>
<path fill="none" stroke="black" d="M127.577,-144.343C112.857,-119.404 85.861,-73.6705 68.7045,-44.6052"/>
<polygon fill="black" stroke="black" points="71.6053,-42.6342 63.5079,-35.8017 65.5772,-46.1925 71.6053,-42.6342"/>
</g>
<!-- output -->
<g id="node5" class="node"><title>output</title>
<ellipse fill="none" stroke="black" cx="174" cy="-90" rx="43.7776" ry="18"/>
<text text-anchor="middle" x="174" y="-85.9" font-family="Times Roman,serif" font-size="14.00">output</text>
</g>
<!-- program&#45;&gt;output -->
<g id="edge10" class="edge"><title>program&#45;&gt;output</title>
<path fill="none" stroke="black" d="M146.899,-144.202C151.01,-135.981 155.979,-126.041 160.535,-116.93"/>
<polygon fill="black" stroke="black" points="163.737,-118.352 165.079,-107.843 157.476,-115.222 163.737,-118.352"/>
</g>
<!-- dutch -->
<g id="node9" class="node"><title>dutch</title>
<ellipse fill="none" stroke="black" cx="275" cy="-90" rx="38.9134" ry="18"/>
<text text-anchor="middle" x="275" y="-85.9" font-family="Times Roman,serif" font-size="14.00">dutch</text>
</g>
<!-- program&#45;&gt;dutch -->
<g id="edge6" class="edge"><title>program&#45;&gt;dutch</title>
<path fill="none" stroke="black" d="M166.72,-146.906C188.098,-135.671 217.386,-120.279 240.112,-108.335"/>
<polygon fill="black" stroke="black" points="241.87,-111.365 249.094,-103.615 238.614,-105.169 241.87,-111.365"/>
</g>
<!-- input&#45;&gt;readln -->
<g id="edge2" class="edge"><title>input&#45;&gt;readln</title>
<path fill="none" stroke="black" d="M41.0375,-71.8314C42.7487,-64.131 44.7835,-54.9743 46.6852,-46.4166"/>
<polygon fill="black" stroke="black" points="50.1554,-46.9344 48.9082,-36.4133 43.3221,-45.4159 50.1554,-46.9344"/>
</g>
<!-- writeln -->
<g id="node7" class="node"><title>writeln</title>
<ellipse fill="none" stroke="black" cx="174" cy="-18" rx="45.8622" ry="18"/>
<text text-anchor="middle" x="174" y="-13.9" font-family="Times Roman,serif" font-size="14.00">writeln</text>
</g>
<!-- output&#45;&gt;writeln -->
<g id="edge4" class="edge"><title>output&#45;&gt;writeln</title>
<path fill="none" stroke="black" d="M174,-71.8314C174,-64.131 174,-54.9743 174,-46.4166"/>
<polygon fill="black" stroke="black" points="177.5,-46.4132 174,-36.4133 170.5,-46.4133 177.5,-46.4132"/>
</g>
</g>
</svg>
