<?xml version="1.0" encoding="UTF-8" standalone="no"?>
<!DOCTYPE svg PUBLIC "-//W3C//DTD SVG 1.1//EN"
 "http://www.w3.org/Graphics/SVG/1.1/DTD/svg11.dtd">
<!-- Generated by graphviz version 2.26.3 (20100126.1600)
 -->
<!-- Title: call_graph Pages: 1 -->
<svg width="198pt" height="116pt"
 viewBox="0.00 0.00 198.00 116.00" xmlns="http://www.w3.org/2000/svg" xmlns:xlink="http://www.w3.org/1999/xlink">
<g id="graph1" class="graph" transform="scale(1 1) rotate(0) translate(4 112)">
<title>call_graph</title>
<polygon fill="white" stroke="white" points="-4,5 -4,-112 195,-112 195,5 -4,5"/>
<!-- program -->
<g id="node1" class="node"><title>program</title>
<ellipse fill="none" stroke="black" cx="87" cy="-90" rx="50.9221" ry="18"/>
<text text-anchor="middle" x="87" y="-85.9" font-family="Times Roman,serif" font-size="14.00">program</text>
</g>
<!-- sum -->
<g id="node3" class="node"><title>sum</title>
<ellipse fill="none" stroke="black" cx="31" cy="-18" rx="30.7734" ry="18"/>
<text text-anchor="middle" x="31" y="-13.9" font-family="Times Roman,serif" font-size="14.00">sum</text>
</g>
<!-- program&#45;&gt;sum -->
<g id="edge2" class="edge"><title>program&#45;&gt;sum</title>
<path fill="none" stroke="black" d="M73.444,-72.5708C66.534,-63.6866 58.0079,-52.7245 50.4145,-42.9615"/>
<polygon fill="black" stroke="black" points="52.9478,-40.5176 44.0456,-34.7729 47.4223,-44.8153 52.9478,-40.5176"/>
</g>
<!-- writeln -->
<g id="node5" class="node"><title>writeln</title>
<ellipse fill="none" stroke="black" cx="144" cy="-18" rx="45.8622" ry="18"/>
<text text-anchor="middle" x="144" y="-13.9" font-family="Times Roman,serif" font-size="14.00">writeln</text>
</g>
<!-- program&#45;&gt;writeln -->
<g id="edge4" class="edge"><title>program&#45;&gt;writeln</title>
<path fill="none" stroke="black" stroke-dasharray="5,2" d="M100.798,-72.5708C107.73,-63.8153 116.259,-53.0418 123.902,-43.3867"/>
<polygon fill="black" stroke="black" points="126.866,-45.2816 130.329,-35.2687 121.378,-40.9367 126.866,-45.2816"/>
</g>
<!-- sum&#45;&gt;sum -->
<g id="edge6" class="edge"><title>sum&#45;&gt;sum</title>
<path fill="none" stroke="black" stroke-dasharray="5,2" d="M53.4273,-30.6027C67.0796,-33.5212 80,-29.3203 80,-18 80,-9.59821 72.8829,-5.11809 63.6317,-4.55964"/>
<polygon fill="black" stroke="black" points="63.1074,-1.09081 53.4273,-5.39731 63.6802,-8.06735 63.1074,-1.09081"/>
</g>
</g>
</svg>
