<?xml version="1.0" encoding="UTF-8" standalone="no"?>
<!DOCTYPE svg PUBLIC "-//W3C//DTD SVG 1.1//EN"
 "http://www.w3.org/Graphics/SVG/1.1/DTD/svg11.dtd">
<!-- Generated by graphviz version 2.26.3 (20100126.1600)
 -->
<!-- Title: call_graph Pages: 1 -->
<svg width="284pt" height="188pt"
 viewBox="0.00 0.00 284.00 188.00" xmlns="http://www.w3.org/2000/svg" xmlns:xlink="http://www.w3.org/1999/xlink">
<g id="graph1" class="graph" transform="scale(1 1) rotate(0) translate(4 184)">
<title>call_graph</title>
<polygon fill="white" stroke="white" points="-4,5 -4,-184 281,-184 281,5 -4,5"/>
<!-- program -->
<g id="node1" class="node"><title>program</title>
<ellipse fill="none" stroke="black" cx="125" cy="-162" rx="50.9221" ry="18"/>
<text text-anchor="middle" x="125" y="-157.9" font-family="Times Roman,serif" font-size="14.00">program</text>
</g>
<!-- fact -->
<g id="node2" class="node"><title>fact</title>
<ellipse fill="none" stroke="black" cx="37" cy="-90" rx="29.1851" ry="18"/>
<text text-anchor="middle" x="37" y="-85.9" font-family="Times Roman,serif" font-size="14.00">fact</text>
</g>
<!-- program&#45;&gt;fact -->
<g id="edge4" class="edge"><title>program&#45;&gt;fact</title>
<path fill="none" stroke="black" d="M104.59,-145.301C92.0599,-135.049 75.9063,-121.832 62.5331,-110.891"/>
<polygon fill="black" stroke="black" points="64.5789,-108.042 54.623,-104.419 60.1463,-113.46 64.5789,-108.042"/>
</g>
<!-- readln -->
<g id="node7" class="node"><title>readln</title>
<ellipse fill="none" stroke="black" cx="125" cy="-90" rx="41.1906" ry="18"/>
<text text-anchor="middle" x="125" y="-85.9" font-family="Times Roman,serif" font-size="14.00">readln</text>
</g>
<!-- program&#45;&gt;readln -->
<g id="edge6" class="edge"><title>program&#45;&gt;readln</title>
<path fill="none" stroke="black" d="M125,-143.831C125,-136.131 125,-126.974 125,-118.417"/>
<polygon fill="black" stroke="black" points="128.5,-118.413 125,-108.413 121.5,-118.413 128.5,-118.413"/>
</g>
<!-- writeln -->
<g id="node9" class="node"><title>writeln</title>
<ellipse fill="none" stroke="black" cx="230" cy="-90" rx="45.8622" ry="18"/>
<text text-anchor="middle" x="230" y="-85.9" font-family="Times Roman,serif" font-size="14.00">writeln</text>
</g>
<!-- program&#45;&gt;writeln -->
<g id="edge8" class="edge"><title>program&#45;&gt;writeln</title>
<path fill="none" stroke="black" stroke-dasharray="5,2" d="M148.564,-145.842C163.257,-135.767 182.347,-122.677 198.35,-111.703"/>
<polygon fill="black" stroke="black" points="200.608,-114.398 206.876,-105.856 196.649,-108.625 200.608,-114.398"/>
</g>
<!-- times -->
<g id="node4" class="node"><title>times</title>
<ellipse fill="none" stroke="black" cx="37" cy="-18" rx="37.0233" ry="18"/>
<text text-anchor="middle" x="37" y="-13.9" font-family="Times Roman,serif" font-size="14.00">times</text>
</g>
<!-- fact&#45;&gt;times -->
<g id="edge2" class="edge"><title>fact&#45;&gt;times</title>
<path fill="none" stroke="black" d="M37,-71.8314C37,-64.131 37,-54.9743 37,-46.4166"/>
<polygon fill="black" stroke="black" points="40.5001,-46.4132 37,-36.4133 33.5001,-46.4133 40.5001,-46.4132"/>
</g>
</g>
</svg>
