<?xml version="1.0" encoding="UTF-8" standalone="no"?>
<!DOCTYPE svg PUBLIC "-//W3C//DTD SVG 1.1//EN"
 "http://www.w3.org/Graphics/SVG/1.1/DTD/svg11.dtd">
<!-- Generated by graphviz version 2.26.3 (20100126.1600)
 -->
<!-- Title: call_graph Pages: 1 -->
<svg width="294pt" height="116pt"
 viewBox="0.00 0.00 294.00 116.00" xmlns="http://www.w3.org/2000/svg" xmlns:xlink="http://www.w3.org/1999/xlink">
<g id="graph1" class="graph" transform="scale(1 1) rotate(0) translate(4 112)">
<title>call_graph</title>
<polygon fill="white" stroke="white" points="-4,5 -4,-112 291,-112 291,5 -4,5"/>
<!-- program -->
<g id="node1" class="node"><title>program</title>
<ellipse fill="none" stroke="black" cx="135" cy="-90" rx="50.9221" ry="18"/>
<text text-anchor="middle" x="135" y="-85.9" font-family="Times Roman,serif" font-size="14.00">program</text>
</g>
<!-- fact -->
<g id="node2" class="node"><title>fact</title>
<ellipse fill="none" stroke="black" cx="29" cy="-18" rx="29.1851" ry="18"/>
<text text-anchor="middle" x="29" y="-13.9" font-family="Times Roman,serif" font-size="14.00">fact</text>
</g>
<!-- program&#45;&gt;fact -->
<g id="edge4" class="edge"><title>program&#45;&gt;fact</title>
<path fill="none" stroke="black" d="M111.475,-74.0209C95.4778,-63.1547 74.2273,-48.7204 57.3037,-37.2252"/>
<polygon fill="black" stroke="black" points="59.1377,-34.2398 48.8989,-31.5162 55.2045,-40.0304 59.1377,-34.2398"/>
</g>
<!-- readln -->
<g id="node6" class="node"><title>readln</title>
<ellipse fill="none" stroke="black" cx="135" cy="-18" rx="41.1906" ry="18"/>
<text text-anchor="middle" x="135" y="-13.9" font-family="Times Roman,serif" font-size="14.00">readln</text>
</g>
<!-- program&#45;&gt;readln -->
<g id="edge6" class="edge"><title>program&#45;&gt;readln</title>
<path fill="none" stroke="black" d="M135,-71.8314C135,-64.131 135,-54.9743 135,-46.4166"/>
<polygon fill="black" stroke="black" points="138.5,-46.4132 135,-36.4133 131.5,-46.4133 138.5,-46.4132"/>
</g>
<!-- writeln -->
<g id="node8" class="node"><title>writeln</title>
<ellipse fill="none" stroke="black" cx="240" cy="-18" rx="45.8622" ry="18"/>
<text text-anchor="middle" x="240" y="-13.9" font-family="Times Roman,serif" font-size="14.00">writeln</text>
</g>
<!-- program&#45;&gt;writeln -->
<g id="edge8" class="edge"><title>program&#45;&gt;writeln</title>
<path fill="none" stroke="black" stroke-dasharray="5,2" d="M158.564,-73.8418C173.257,-63.7668 192.347,-50.6766 208.35,-39.7027"/>
<polygon fill="black" stroke="black" points="210.608,-42.3983 216.876,-33.8564 206.649,-36.6252 210.608,-42.3983"/>
</g>
<!-- fact&#45;&gt;fact -->
<g id="edge2" class="edge"><title>fact&#45;&gt;fact</title>
<path fill="none" stroke="black" d="M50.2679,-30.5475C63.4525,-33.5731 76,-29.3906 76,-18 76,-9.63501 69.2331,-5.15741 60.4163,-4.56721"/>
<polygon fill="black" stroke="black" points="59.9258,-1.09661 50.2679,-5.45251 60.5342,-8.07012 59.9258,-1.09661"/>
</g>
</g>
</svg>
