<?xml version="1.0" encoding="UTF-8" standalone="no"?>
<!DOCTYPE svg PUBLIC "-//W3C//DTD SVG 1.1//EN"
 "http://www.w3.org/Graphics/SVG/1.1/DTD/svg11.dtd">
<!-- Generated by graphviz version 2.26.3 (20100126.1600)
 -->
<!-- Title: call_graph Pages: 1 -->
<svg width="302pt" height="188pt"
 viewBox="0.00 0.00 302.00 188.00" xmlns="http://www.w3.org/2000/svg" xmlns:xlink="http://www.w3.org/1999/xlink">
<g id="graph1" class="graph" transform="scale(1 1) rotate(0) translate(4 184)">
<title>call_graph</title>
<polygon fill="white" stroke="white" points="-4,5 -4,-184 299,-184 299,5 -4,5"/>
<!-- program -->
<g id="node1" class="node"><title>program</title>
<ellipse fill="none" stroke="black" cx="143" cy="-162" rx="50.9221" ry="18"/>
<text text-anchor="middle" x="143" y="-157.9" font-family="Times Roman,serif" font-size="14.00">program</text>
</g>
<!-- fact -->
<g id="node2" class="node"><title>fact</title>
<ellipse fill="none" stroke="black" cx="37" cy="-90" rx="29.1851" ry="18"/>
<text text-anchor="middle" x="37" y="-85.9" font-family="Times Roman,serif" font-size="14.00">fact</text>
</g>
<!-- program&#45;&gt;fact -->
<g id="edge6" class="edge"><title>program&#45;&gt;fact</title>
<path fill="none" stroke="black" d="M119.475,-146.021C103.478,-135.155 82.2273,-120.72 65.3037,-109.225"/>
<polygon fill="black" stroke="black" points="67.1377,-106.24 56.8989,-103.516 63.2045,-112.03 67.1377,-106.24"/>
</g>
<!-- readln -->
<g id="node8" class="node"><title>readln</title>
<ellipse fill="none" stroke="black" cx="143" cy="-90" rx="41.1906" ry="18"/>
<text text-anchor="middle" x="143" y="-85.9" font-family="Times Roman,serif" font-size="14.00">readln</text>
</g>
<!-- program&#45;&gt;readln -->
<g id="edge8" class="edge"><title>program&#45;&gt;readln</title>
<path fill="none" stroke="black" d="M143,-143.831C143,-136.131 143,-126.974 143,-118.417"/>
<polygon fill="black" stroke="black" points="146.5,-118.413 143,-108.413 139.5,-118.413 146.5,-118.413"/>
</g>
<!-- writeln -->
<g id="node10" class="node"><title>writeln</title>
<ellipse fill="none" stroke="black" cx="248" cy="-90" rx="45.8622" ry="18"/>
<text text-anchor="middle" x="248" y="-85.9" font-family="Times Roman,serif" font-size="14.00">writeln</text>
</g>
<!-- program&#45;&gt;writeln -->
<g id="edge10" class="edge"><title>program&#45;&gt;writeln</title>
<path fill="none" stroke="black" stroke-dasharray="5,2" d="M166.564,-145.842C181.257,-135.767 200.347,-122.677 216.35,-111.703"/>
<polygon fill="black" stroke="black" points="218.608,-114.398 224.876,-105.856 214.649,-108.625 218.608,-114.398"/>
</g>
<!-- fact&#45;&gt;fact -->
<g id="edge2" class="edge"><title>fact&#45;&gt;fact</title>
<path fill="none" stroke="black" d="M58.2679,-102.547C71.4525,-105.573 84,-101.391 84,-90 84,-81.635 77.2331,-77.1574 68.4163,-76.5672"/>
<polygon fill="black" stroke="black" points="67.9258,-73.0966 58.2679,-77.4525 68.5342,-80.0701 67.9258,-73.0966"/>
</g>
<!-- times -->
<g id="node5" class="node"><title>times</title>
<ellipse fill="none" stroke="black" cx="37" cy="-18" rx="37.0233" ry="18"/>
<text text-anchor="middle" x="37" y="-13.9" font-family="Times Roman,serif" font-size="14.00">times</text>
</g>
<!-- fact&#45;&gt;times -->
<g id="edge4" class="edge"><title>fact&#45;&gt;times</title>
<path fill="none" stroke="black" stroke-dasharray="5,2" d="M37,-71.8314C37,-64.131 37,-54.9743 37,-46.4166"/>
<polygon fill="black" stroke="black" points="40.5001,-46.4132 37,-36.4133 33.5001,-46.4133 40.5001,-46.4132"/>
</g>
</g>
</svg>
