<?xml version="1.0" encoding="UTF-8" standalone="no"?>
<!DOCTYPE svg PUBLIC "-//W3C//DTD SVG 1.1//EN"
 "http://www.w3.org/Graphics/SVG/1.1/DTD/svg11.dtd">
<!-- Generated by graphviz version 2.26.3 (20100126.1600)
 -->
<!-- Title: call_graph Pages: 1 -->
<svg width="306pt" height="188pt"
 viewBox="0.00 0.00 306.00 188.00" xmlns="http://www.w3.org/2000/svg" xmlns:xlink="http://www.w3.org/1999/xlink">
<g id="graph1" class="graph" transform="scale(1 1) rotate(0) translate(4 184)">
<title>call_graph</title>
<polygon fill="white" stroke="white" points="-4,5 -4,-184 303,-184 303,5 -4,5"/>
<!-- program -->
<g id="node1" class="node"><title>program</title>
<ellipse fill="none" stroke="black" cx="130" cy="-162" rx="50.9221" ry="18"/>
<text text-anchor="middle" x="130" y="-157.9" font-family="Times Roman,serif" font-size="14.00">program</text>
</g>
<!-- input -->
<g id="node2" class="node"><title>input</title>
<ellipse fill="none" stroke="black" cx="37" cy="-90" rx="36.8288" ry="18"/>
<text text-anchor="middle" x="37" y="-85.9" font-family="Times Roman,serif" font-size="14.00">input</text>
</g>
<!-- program&#45;&gt;input -->
<g id="edge6" class="edge"><title>program&#45;&gt;input</title>
<path fill="none" stroke="black" d="M108.43,-145.301C95.5438,-135.324 79.0307,-122.54 65.1283,-111.777"/>
<polygon fill="black" stroke="black" points="66.9151,-108.734 56.8653,-105.38 62.6299,-114.269 66.9151,-108.734"/>
</g>
<!-- readln -->
<g id="node4" class="node"><title>readln</title>
<ellipse fill="none" stroke="black" cx="69" cy="-18" rx="41.1906" ry="18"/>
<text text-anchor="middle" x="69" y="-13.9" font-family="Times Roman,serif" font-size="14.00">readln</text>
</g>
<!-- program&#45;&gt;readln -->
<g id="edge8" class="edge"><title>program&#45;&gt;readln</title>
<path fill="none" stroke="black" d="M122.398,-144.053C111.884,-119.235 92.8165,-74.2224 80.5404,-45.2428"/>
<polygon fill="black" stroke="black" points="83.6299,-43.563 76.5065,-35.7204 77.1844,-46.2935 83.6299,-43.563"/>
</g>
<!-- find -->
<g id="node6" class="node"><title>find</title>
<ellipse fill="none" stroke="black" cx="159" cy="-90" rx="29.1851" ry="18"/>
<text text-anchor="middle" x="159" y="-85.9" font-family="Times Roman,serif" font-size="14.00">find</text>
</g>
<!-- program&#45;&gt;find -->
<g id="edge4" class="edge"><title>program&#45;&gt;find</title>
<path fill="none" stroke="black" d="M137.318,-143.831C140.536,-135.841 144.386,-126.282 147.943,-117.451"/>
<polygon fill="black" stroke="black" points="151.295,-118.497 151.785,-107.913 144.802,-115.882 151.295,-118.497"/>
</g>
<!-- writeln -->
<g id="node10" class="node"><title>writeln</title>
<ellipse fill="none" stroke="black" cx="252" cy="-90" rx="45.8622" ry="18"/>
<text text-anchor="middle" x="252" y="-85.9" font-family="Times Roman,serif" font-size="14.00">writeln</text>
</g>
<!-- program&#45;&gt;writeln -->
<g id="edge10" class="edge"><title>program&#45;&gt;writeln</title>
<path fill="none" stroke="black" stroke-dasharray="5,2" d="M156.472,-146.377C174.38,-135.809 198.207,-121.747 217.585,-110.311"/>
<polygon fill="black" stroke="black" points="219.582,-113.196 226.416,-105.099 216.025,-107.167 219.582,-113.196"/>
</g>
<!-- input&#45;&gt;readln -->
<g id="edge2" class="edge"><title>input&#45;&gt;readln</title>
<path fill="none" stroke="black" d="M44.9101,-72.2022C48.5255,-64.0675 52.8888,-54.2501 56.9031,-45.2181"/>
<polygon fill="black" stroke="black" points="60.2069,-46.4022 61.07,-35.8425 53.8102,-43.5592 60.2069,-46.4022"/>
</g>
</g>
</svg>
