<?xml version="1.0" encoding="UTF-8" standalone="no"?>
<!DOCTYPE svg PUBLIC "-//W3C//DTD SVG 1.1//EN"
 "http://www.w3.org/Graphics/SVG/1.1/DTD/svg11.dtd">
<!-- Generated by graphviz version 2.26.3 (20100126.1600)
 -->
<!-- Title: call_graph Pages: 1 -->
<svg width="398pt" height="116pt"
 viewBox="0.00 0.00 398.00 116.00" xmlns="http://www.w3.org/2000/svg" xmlns:xlink="http://www.w3.org/1999/xlink">
<g id="graph1" class="graph" transform="scale(1 1) rotate(0) translate(4 112)">
<title>call_graph</title>
<polygon fill="white" stroke="white" points="-4,5 -4,-112 395,-112 395,5 -4,5"/>
<!-- program -->
<g id="node1" class="node"><title>program</title>
<ellipse fill="none" stroke="black" cx="239" cy="-90" rx="50.9221" ry="18"/>
<text text-anchor="middle" x="239" y="-85.9" font-family="Times Roman,serif" font-size="14.00">program</text>
</g>
<!-- gcd -->
<g id="node2" class="node"><title>gcd</title>
<ellipse fill="none" stroke="black" cx="28" cy="-18" rx="27.7953" ry="18"/>
<text text-anchor="middle" x="28" y="-13.9" font-family="Times Roman,serif" font-size="14.00">gcd</text>
</g>
<!-- program&#45;&gt;gcd -->
<g id="edge4" class="edge"><title>program&#45;&gt;gcd</title>
<path fill="none" stroke="black" d="M202.247,-77.4586C162.902,-64.033 100.964,-42.8978 62.5068,-29.7748"/>
<polygon fill="black" stroke="black" points="63.3869,-26.377 52.7924,-26.46 61.1262,-33.002 63.3869,-26.377"/>
</g>
<!-- gcditer -->
<g id="node6" class="node"><title>gcditer</title>
<ellipse fill="none" stroke="black" cx="136" cy="-18" rx="43.9728" ry="18"/>
<text text-anchor="middle" x="136" y="-13.9" font-family="Times Roman,serif" font-size="14.00">gcditer</text>
</g>
<!-- program&#45;&gt;gcditer -->
<g id="edge6" class="edge"><title>program&#45;&gt;gcditer</title>
<path fill="none" stroke="black" d="M215.885,-73.8418C201.372,-63.6968 182.485,-50.4946 166.72,-39.4744"/>
<polygon fill="black" stroke="black" points="168.532,-36.4705 158.331,-33.6098 164.521,-42.2077 168.532,-36.4705"/>
</g>
<!-- readln -->
<g id="node8" class="node"><title>readln</title>
<ellipse fill="none" stroke="black" cx="239" cy="-18" rx="41.1906" ry="18"/>
<text text-anchor="middle" x="239" y="-13.9" font-family="Times Roman,serif" font-size="14.00">readln</text>
</g>
<!-- program&#45;&gt;readln -->
<g id="edge8" class="edge"><title>program&#45;&gt;readln</title>
<path fill="none" stroke="black" d="M239,-71.8314C239,-64.131 239,-54.9743 239,-46.4166"/>
<polygon fill="black" stroke="black" points="242.5,-46.4132 239,-36.4133 235.5,-46.4133 242.5,-46.4132"/>
</g>
<!-- writeln -->
<g id="node10" class="node"><title>writeln</title>
<ellipse fill="none" stroke="black" cx="344" cy="-18" rx="45.8622" ry="18"/>
<text text-anchor="middle" x="344" y="-13.9" font-family="Times Roman,serif" font-size="14.00">writeln</text>
</g>
<!-- program&#45;&gt;writeln -->
<g id="edge10" class="edge"><title>program&#45;&gt;writeln</title>
<path fill="none" stroke="black" d="M258.044,-72.937C272.122,-62.5259 291.514,-49.1608 308.375,-38.22"/>
<polygon fill="black" stroke="black" points="310.387,-41.0881 316.921,-32.7481 306.612,-35.1931 310.387,-41.0881"/>
</g>
<!-- program&#45;&gt;writeln -->
<g id="edge12" class="edge"><title>program&#45;&gt;writeln</title>
<path fill="none" stroke="black" stroke-dasharray="5,2" d="M266.904,-74.7307C282.532,-64.8391 301.805,-51.7801 317.239,-40.6851"/>
<polygon fill="black" stroke="black" points="319.353,-43.4755 325.371,-34.7559 315.229,-37.8193 319.353,-43.4755"/>
</g>
<!-- gcd&#45;&gt;gcd -->
<g id="edge2" class="edge"><title>gcd&#45;&gt;gcd</title>
<path fill="none" stroke="black" stroke-dasharray="5,2" d="M48.3372,-30.4321C61.4144,-33.6753 74,-29.5312 74,-18 74,-9.53174 67.2125,-5.04745 58.4274,-4.54712"/>
<polygon fill="black" stroke="black" points="57.9341,-1.07907 48.3372,-5.56787 58.6387,-8.04352 57.9341,-1.07907"/>
</g>
</g>
</svg>
