<?xml version="1.0" encoding="UTF-8" standalone="no"?>
<!DOCTYPE svg PUBLIC "-//W3C//DTD SVG 1.1//EN"
 "http://www.w3.org/Graphics/SVG/1.1/DTD/svg11.dtd">
<!-- Generated by graphviz version 2.26.3 (20100126.1600)
 -->
<!-- Title: call_graph Pages: 1 -->
<svg width="292pt" height="116pt"
 viewBox="0.00 0.00 292.00 116.00" xmlns="http://www.w3.org/2000/svg" xmlns:xlink="http://www.w3.org/1999/xlink">
<g id="graph1" class="graph" transform="scale(1 1) rotate(0) translate(4 112)">
<title>call_graph</title>
<polygon fill="white" stroke="white" points="-4,5 -4,-112 289,-112 289,5 -4,5"/>
<!-- program -->
<g id="node1" class="node"><title>program</title>
<ellipse fill="none" stroke="black" cx="133" cy="-90" rx="50.9221" ry="18"/>
<text text-anchor="middle" x="133" y="-85.9" font-family="Times Roman,serif" font-size="14.00">program</text>
</g>
<!-- gcd -->
<g id="node2" class="node"><title>gcd</title>
<ellipse fill="none" stroke="black" cx="28" cy="-18" rx="27.7953" ry="18"/>
<text text-anchor="middle" x="28" y="-13.9" font-family="Times Roman,serif" font-size="14.00">gcd</text>
</g>
<!-- program&#45;&gt;gcd -->
<g id="edge4" class="edge"><title>program&#45;&gt;gcd</title>
<path fill="none" stroke="black" d="M109.436,-73.8418C93.4744,-62.8968 72.3235,-48.3933 55.5776,-36.9104"/>
<polygon fill="black" stroke="black" points="57.4996,-33.9845 47.2729,-31.2157 53.5409,-39.7576 57.4996,-33.9845"/>
</g>
<!-- readln -->
<g id="node6" class="node"><title>readln</title>
<ellipse fill="none" stroke="black" cx="133" cy="-18" rx="41.1906" ry="18"/>
<text text-anchor="middle" x="133" y="-13.9" font-family="Times Roman,serif" font-size="14.00">readln</text>
</g>
<!-- program&#45;&gt;readln -->
<g id="edge6" class="edge"><title>program&#45;&gt;readln</title>
<path fill="none" stroke="black" d="M133,-71.8314C133,-64.131 133,-54.9743 133,-46.4166"/>
<polygon fill="black" stroke="black" points="136.5,-46.4132 133,-36.4133 129.5,-46.4133 136.5,-46.4132"/>
</g>
<!-- writeln -->
<g id="node8" class="node"><title>writeln</title>
<ellipse fill="none" stroke="black" cx="238" cy="-18" rx="45.8622" ry="18"/>
<text text-anchor="middle" x="238" y="-13.9" font-family="Times Roman,serif" font-size="14.00">writeln</text>
</g>
<!-- program&#45;&gt;writeln -->
<g id="edge8" class="edge"><title>program&#45;&gt;writeln</title>
<path fill="none" stroke="black" stroke-dasharray="5,2" d="M156.564,-73.8418C171.257,-63.7668 190.347,-50.6766 206.35,-39.7027"/>
<polygon fill="black" stroke="black" points="208.608,-42.3983 214.876,-33.8564 204.649,-36.6252 208.608,-42.3983"/>
</g>
<!-- gcd&#45;&gt;gcd -->
<g id="edge2" class="edge"><title>gcd&#45;&gt;gcd</title>
<path fill="none" stroke="black" stroke-dasharray="5,2" d="M48.3372,-30.4321C61.4144,-33.6753 74,-29.5312 74,-18 74,-9.53174 67.2125,-5.04745 58.4274,-4.54712"/>
<polygon fill="black" stroke="black" points="57.9341,-1.07907 48.3372,-5.56787 58.6387,-8.04352 57.9341,-1.07907"/>
</g>
</g>
</svg>
