<?xml version="1.0" encoding="UTF-8" standalone="no"?>
<!DOCTYPE svg PUBLIC "-//W3C//DTD SVG 1.1//EN"
 "http://www.w3.org/Graphics/SVG/1.1/DTD/svg11.dtd">
<!-- Generated by graphviz version 2.26.3 (20100126.1600)
 -->
<!-- Title: call_graph Pages: 1 -->
<svg width="449pt" height="260pt"
 viewBox="0.00 0.00 449.00 260.00" xmlns="http://www.w3.org/2000/svg" xmlns:xlink="http://www.w3.org/1999/xlink">
<g id="graph1" class="graph" transform="scale(1 1) rotate(0) translate(4 256)">
<title>call_graph</title>
<polygon fill="white" stroke="white" points="-4,5 -4,-256 446,-256 446,5 -4,5"/>
<!-- program -->
<g id="node1" class="node"><title>program</title>
<ellipse fill="none" stroke="black" cx="290" cy="-234" rx="50.9221" ry="18"/>
<text text-anchor="middle" x="290" y="-229.9" font-family="Times Roman,serif" font-size="14.00">program</text>
</g>
<!-- heapsort -->
<g id="node6" class="node"><title>heapsort</title>
<ellipse fill="none" stroke="black" cx="150" cy="-162" rx="53.0059" ry="18"/>
<text text-anchor="middle" x="150" y="-157.9" font-family="Times Roman,serif" font-size="14.00">heapsort</text>
</g>
<!-- program&#45;&gt;heapsort -->
<g id="edge14" class="edge"><title>program&#45;&gt;heapsort</title>
<path fill="none" stroke="black" d="M260.992,-219.082C240.015,-208.293 211.455,-193.605 188.559,-181.83"/>
<polygon fill="black" stroke="black" points="189.946,-178.608 179.453,-177.147 186.745,-184.833 189.946,-178.608"/>
</g>
<!-- input -->
<g id="node9" class="node"><title>input</title>
<ellipse fill="none" stroke="black" cx="258" cy="-162" rx="36.8288" ry="18"/>
<text text-anchor="middle" x="258" y="-157.9" font-family="Times Roman,serif" font-size="14.00">input</text>
</g>
<!-- program&#45;&gt;input -->
<g id="edge16" class="edge"><title>program&#45;&gt;input</title>
<path fill="none" stroke="black" d="M282.09,-216.202C278.474,-208.068 274.111,-198.25 270.097,-189.218"/>
<polygon fill="black" stroke="black" points="273.19,-187.559 265.93,-179.843 266.793,-190.402 273.19,-187.559"/>
</g>
<!-- readln -->
<g id="node11" class="node"><title>readln</title>
<ellipse fill="none" stroke="black" cx="274" cy="-90" rx="41.1906" ry="18"/>
<text text-anchor="middle" x="274" y="-85.9" font-family="Times Roman,serif" font-size="14.00">readln</text>
</g>
<!-- program&#45;&gt;readln -->
<g id="edge20" class="edge"><title>program&#45;&gt;readln</title>
<path fill="none" stroke="black" d="M297.107,-215.856C303.291,-197.525 310.346,-168.492 304,-144 301.511,-134.394 296.902,-124.677 292.03,-116.184"/>
<polygon fill="black" stroke="black" points="294.931,-114.22 286.729,-107.513 288.959,-117.871 294.931,-114.22"/>
</g>
<!-- output -->
<g id="node12" class="node"><title>output</title>
<ellipse fill="none" stroke="black" cx="395" cy="-162" rx="43.7776" ry="18"/>
<text text-anchor="middle" x="395" y="-157.9" font-family="Times Roman,serif" font-size="14.00">output</text>
</g>
<!-- program&#45;&gt;output -->
<g id="edge18" class="edge"><title>program&#45;&gt;output</title>
<path fill="none" stroke="black" d="M313.564,-217.842C328.359,-207.697 347.612,-194.495 363.683,-183.474"/>
<polygon fill="black" stroke="black" points="365.968,-186.152 372.236,-177.61 362.009,-180.379 365.968,-186.152"/>
</g>
<!-- downheap -->
<g id="node2" class="node"><title>downheap</title>
<ellipse fill="none" stroke="black" cx="62" cy="-90" rx="61.8445" ry="18"/>
<text text-anchor="middle" x="62" y="-85.9" font-family="Times Roman,serif" font-size="14.00">downheap</text>
</g>
<!-- downheap&#45;&gt;downheap -->
<g id="edge2" class="edge"><title>downheap&#45;&gt;downheap</title>
<path fill="none" stroke="black" stroke-dasharray="5,2" d="M104.39,-103.203C124.415,-104.737 142,-100.336 142,-90 142,-81.4406 129.94,-76.9513 114.422,-76.5323"/>
<polygon fill="black" stroke="black" points="114.295,-73.0344 104.39,-76.7975 114.479,-80.032 114.295,-73.0344"/>
</g>
<!-- swap -->
<g id="node5" class="node"><title>swap</title>
<ellipse fill="none" stroke="black" cx="116" cy="-18" rx="36.8288" ry="18"/>
<text text-anchor="middle" x="116" y="-13.9" font-family="Times Roman,serif" font-size="14.00">swap</text>
</g>
<!-- downheap&#45;&gt;swap -->
<g id="edge4" class="edge"><title>downheap&#45;&gt;swap</title>
<path fill="none" stroke="black" d="M75.3483,-72.2022C81.9188,-63.4416 89.953,-52.7293 97.1388,-43.1482"/>
<polygon fill="black" stroke="black" points="99.977,-45.1973 103.177,-35.0972 94.377,-40.9972 99.977,-45.1973"/>
</g>
<!-- heapsort&#45;&gt;downheap -->
<g id="edge6" class="edge"><title>heapsort&#45;&gt;downheap</title>
<path fill="none" stroke="black" d="M129.59,-145.301C118.094,-135.895 103.549,-123.995 90.8988,-113.644"/>
<polygon fill="black" stroke="black" points="92.8665,-110.732 82.9106,-107.109 88.4338,-116.15 92.8665,-110.732"/>
</g>
<!-- heapsort&#45;&gt;swap -->
<g id="edge8" class="edge"><title>heapsort&#45;&gt;swap</title>
<path fill="none" stroke="black" d="M153.258,-143.984C155.9,-125.502 158.135,-96.125 151,-72 147.958,-61.7152 142.276,-51.5503 136.361,-42.8616"/>
<polygon fill="black" stroke="black" points="139.16,-40.7591 130.458,-34.7152 133.492,-44.8665 139.16,-40.7591"/>
</g>
<!-- input&#45;&gt;readln -->
<g id="edge10" class="edge"><title>input&#45;&gt;readln</title>
<path fill="none" stroke="black" d="M262.037,-143.831C263.749,-136.131 265.783,-126.974 267.685,-118.417"/>
<polygon fill="black" stroke="black" points="271.155,-118.934 269.908,-108.413 264.322,-117.416 271.155,-118.934"/>
</g>
<!-- writeln -->
<g id="node14" class="node"><title>writeln</title>
<ellipse fill="none" stroke="black" cx="395" cy="-90" rx="45.8622" ry="18"/>
<text text-anchor="middle" x="395" y="-85.9" font-family="Times Roman,serif" font-size="14.00">writeln</text>
</g>
<!-- output&#45;&gt;writeln -->
<g id="edge12" class="edge"><title>output&#45;&gt;writeln</title>
<path fill="none" stroke="black" d="M395,-143.831C395,-136.131 395,-126.974 395,-118.417"/>
<polygon fill="black" stroke="black" points="398.5,-118.413 395,-108.413 391.5,-118.413 398.5,-118.413"/>
</g>
</g>
</svg>
