<?xml version="1.0" encoding="UTF-8" standalone="no"?>
<!DOCTYPE svg PUBLIC "-//W3C//DTD SVG 1.1//EN"
 "http://www.w3.org/Graphics/SVG/1.1/DTD/svg11.dtd">
<!-- Generated by graphviz version 2.26.3 (20100126.1600)
 -->
<!-- Title: call_graph Pages: 1 -->
<svg width="172pt" height="188pt"
 viewBox="0.00 0.00 172.00 188.00" xmlns="http://www.w3.org/2000/svg" xmlns:xlink="http://www.w3.org/1999/xlink">
<g id="graph1" class="graph" transform="scale(1 1) rotate(0) translate(4 184)">
<title>call_graph</title>
<polygon fill="white" stroke="white" points="-4,5 -4,-184 169,-184 169,5 -4,5"/>
<!-- program -->
<g id="node1" class="node"><title>program</title>
<ellipse fill="none" stroke="black" cx="72" cy="-162" rx="50.9221" ry="18"/>
<text text-anchor="middle" x="72" y="-157.9" font-family="Times Roman,serif" font-size="14.00">program</text>
</g>
<!-- f -->
<g id="node2" class="node"><title>f</title>
<ellipse fill="none" stroke="black" cx="27" cy="-90" rx="27" ry="18"/>
<text text-anchor="middle" x="27" y="-85.9" font-family="Times Roman,serif" font-size="14.00">f</text>
</g>
<!-- program&#45;&gt;f -->
<g id="edge4" class="edge"><title>program&#45;&gt;f</title>
<path fill="none" stroke="black" d="M60.8764,-144.202C55.5116,-135.619 48.9758,-125.161 43.0814,-115.73"/>
<polygon fill="black" stroke="black" points="45.9538,-113.722 37.6858,-107.097 40.0178,-117.432 45.9538,-113.722"/>
</g>
<!-- writeln -->
<g id="node7" class="node"><title>writeln</title>
<ellipse fill="none" stroke="black" cx="118" cy="-90" rx="45.8622" ry="18"/>
<text text-anchor="middle" x="118" y="-85.9" font-family="Times Roman,serif" font-size="14.00">writeln</text>
</g>
<!-- program&#45;&gt;writeln -->
<g id="edge6" class="edge"><title>program&#45;&gt;writeln</title>
<path fill="none" stroke="black" stroke-dasharray="5,2" d="M83.3708,-144.202C88.7742,-135.745 95.3396,-125.468 101.295,-116.147"/>
<polygon fill="black" stroke="black" points="104.326,-117.904 106.76,-107.593 98.4266,-114.136 104.326,-117.904"/>
</g>
<!-- g -->
<g id="node4" class="node"><title>g</title>
<ellipse fill="none" stroke="black" cx="27" cy="-18" rx="27" ry="18"/>
<text text-anchor="middle" x="27" y="-13.9" font-family="Times Roman,serif" font-size="14.00">g</text>
</g>
<!-- f&#45;&gt;g -->
<g id="edge2" class="edge"><title>f&#45;&gt;g</title>
<path fill="none" stroke="black" stroke-dasharray="5,2" d="M27,-71.8314C27,-64.131 27,-54.9743 27,-46.4166"/>
<polygon fill="black" stroke="black" points="30.5001,-46.4132 27,-36.4133 23.5001,-46.4133 30.5001,-46.4132"/>
</g>
</g>
</svg>
