<?xml version="1.0" encoding="UTF-8" standalone="no"?>
<!DOCTYPE svg PUBLIC "-//W3C//DTD SVG 1.1//EN"
 "http://www.w3.org/Graphics/SVG/1.1/DTD/svg11.dtd">
<!-- Generated by graphviz version 2.26.3 (20100126.1600)
 -->
<!-- Title: call_graph Pages: 1 -->
<svg width="351pt" height="188pt"
 viewBox="0.00 0.00 351.00 188.00" xmlns="http://www.w3.org/2000/svg" xmlns:xlink="http://www.w3.org/1999/xlink">
<g id="graph1" class="graph" transform="scale(1 1) rotate(0) translate(4 184)">
<title>call_graph</title>
<polygon fill="white" stroke="white" points="-4,5 -4,-184 348,-184 348,5 -4,5"/>
<!-- program -->
<g id="node1" class="node"><title>program</title>
<ellipse fill="none" stroke="black" cx="199" cy="-162" rx="50.9221" ry="18"/>
<text text-anchor="middle" x="199" y="-157.9" font-family="Times Roman,serif" font-size="14.00">program</text>
</g>
<!-- affiche -->
<g id="node2" class="node"><title>affiche</title>
<ellipse fill="none" stroke="black" cx="46" cy="-90" rx="43.0827" ry="18"/>
<text text-anchor="middle" x="46" y="-85.9" font-family="Times Roman,serif" font-size="14.00">affiche</text>
</g>
<!-- program&#45;&gt;affiche -->
<g id="edge10" class="edge"><title>program&#45;&gt;affiche</title>
<path fill="none" stroke="black" stroke-dasharray="5,2" d="M168.038,-147.43C143.697,-135.975 109.684,-119.969 83.7476,-107.764"/>
<polygon fill="black" stroke="black" points="85.1288,-104.545 74.5902,-103.454 82.1481,-110.879 85.1288,-104.545"/>
</g>
<!-- mmult -->
<g id="node5" class="node"><title>mmult</title>
<ellipse fill="none" stroke="black" cx="149" cy="-90" rx="41.8891" ry="18"/>
<text text-anchor="middle" x="149" y="-85.9" font-family="Times Roman,serif" font-size="14.00">mmult</text>
</g>
<!-- program&#45;&gt;mmult -->
<g id="edge12" class="edge"><title>program&#45;&gt;mmult</title>
<path fill="none" stroke="black" d="M186.64,-144.202C180.662,-135.594 173.376,-125.101 166.812,-115.649"/>
<polygon fill="black" stroke="black" points="169.624,-113.562 161.045,-107.345 163.874,-117.555 169.624,-113.562"/>
</g>
<!-- mread -->
<g id="node8" class="node"><title>mread</title>
<ellipse fill="none" stroke="black" cx="250" cy="-90" rx="41.1906" ry="18"/>
<text text-anchor="middle" x="250" y="-85.9" font-family="Times Roman,serif" font-size="14.00">mread</text>
</g>
<!-- program&#45;&gt;mread -->
<g id="edge14" class="edge"><title>program&#45;&gt;mread</title>
<path fill="none" stroke="black" d="M211.607,-144.202C217.704,-135.594 225.137,-125.101 231.832,-115.649"/>
<polygon fill="black" stroke="black" points="234.79,-117.528 237.714,-107.345 229.078,-113.482 234.79,-117.528"/>
</g>
<!-- readln -->
<g id="node11" class="node"><title>readln</title>
<ellipse fill="none" stroke="black" cx="302" cy="-18" rx="41.1906" ry="18"/>
<text text-anchor="middle" x="302" y="-13.9" font-family="Times Roman,serif" font-size="14.00">readln</text>
</g>
<!-- program&#45;&gt;readln -->
<g id="edge16" class="edge"><title>program&#45;&gt;readln</title>
<path fill="none" stroke="black" d="M239.763,-151.168C261.622,-143.078 286.727,-129.599 300,-108 311.27,-89.6597 310.992,-65.0021 308.33,-46.1339"/>
<polygon fill="black" stroke="black" points="311.742,-45.324 306.61,-36.0551 304.842,-46.5014 311.742,-45.324"/>
</g>
<!-- writeln -->
<g id="node4" class="node"><title>writeln</title>
<ellipse fill="none" stroke="black" cx="46" cy="-18" rx="45.8622" ry="18"/>
<text text-anchor="middle" x="46" y="-13.9" font-family="Times Roman,serif" font-size="14.00">writeln</text>
</g>
<!-- affiche&#45;&gt;writeln -->
<g id="edge2" class="edge"><title>affiche&#45;&gt;writeln</title>
<path fill="none" stroke="black" d="M46,-71.8314C46,-64.131 46,-54.9743 46,-46.4166"/>
<polygon fill="black" stroke="black" points="49.5001,-46.4132 46,-36.4133 42.5001,-46.4133 49.5001,-46.4132"/>
</g>
<!-- malloc -->
<g id="node7" class="node"><title>malloc</title>
<ellipse fill="none" stroke="black" cx="168" cy="-18" rx="41.1906" ry="18"/>
<text text-anchor="middle" x="168" y="-13.9" font-family="Times Roman,serif" font-size="14.00">malloc</text>
</g>
<!-- mmult&#45;&gt;malloc -->
<g id="edge4" class="edge"><title>mmult&#45;&gt;malloc</title>
<path fill="none" stroke="black" d="M153.795,-71.8314C155.88,-63.9266 158.371,-54.4872 160.681,-45.7365"/>
<polygon fill="black" stroke="black" points="164.105,-46.4755 163.273,-35.9134 157.337,-44.6894 164.105,-46.4755"/>
</g>
<!-- mread&#45;&gt;malloc -->
<g id="edge6" class="edge"><title>mread&#45;&gt;malloc</title>
<path fill="none" stroke="black" d="M231.393,-73.6621C220.385,-63.9961 206.269,-51.6022 194.154,-40.9641"/>
<polygon fill="black" stroke="black" points="196.357,-38.2413 186.533,-34.2733 191.739,-43.5014 196.357,-38.2413"/>
</g>
<!-- mread&#45;&gt;readln -->
<g id="edge8" class="edge"><title>mread&#45;&gt;readln</title>
<path fill="none" stroke="black" d="M262.588,-72.5708C268.911,-63.8153 276.692,-53.0418 283.665,-43.3867"/>
<polygon fill="black" stroke="black" points="286.511,-45.4247 289.528,-35.2687 280.836,-41.3263 286.511,-45.4247"/>
</g>
</g>
</svg>
