<?xml version="1.0" encoding="UTF-8" standalone="no"?>
<!DOCTYPE svg PUBLIC "-//W3C//DTD SVG 1.1//EN"
 "http://www.w3.org/Graphics/SVG/1.1/DTD/svg11.dtd">
<!-- Generated by graphviz version 2.26.3 (20100126.1600)
 -->
<!-- Title: call_graph Pages: 1 -->
<svg width="322pt" height="188pt"
 viewBox="0.00 0.00 322.00 188.00" xmlns="http://www.w3.org/2000/svg" xmlns:xlink="http://www.w3.org/1999/xlink">
<g id="graph1" class="graph" transform="scale(1 1) rotate(0) translate(4 184)">
<title>call_graph</title>
<polygon fill="white" stroke="white" points="-4,5 -4,-184 319,-184 319,5 -4,5"/>
<!-- program -->
<g id="node1" class="node"><title>program</title>
<ellipse fill="none" stroke="black" cx="170" cy="-162" rx="50.9221" ry="18"/>
<text text-anchor="middle" x="170" y="-157.9" font-family="Times Roman,serif" font-size="14.00">program</text>
</g>
<!-- affiche -->
<g id="node2" class="node"><title>affiche</title>
<ellipse fill="none" stroke="black" cx="49" cy="-90" rx="43.0827" ry="18"/>
<text text-anchor="middle" x="49" y="-85.9" font-family="Times Roman,serif" font-size="14.00">affiche</text>
</g>
<!-- program&#45;&gt;affiche -->
<g id="edge12" class="edge"><title>program&#45;&gt;affiche</title>
<path fill="none" stroke="black" stroke-dasharray="5,2" d="M143.745,-146.377C125.864,-135.737 102.032,-121.556 82.744,-110.079"/>
<polygon fill="black" stroke="black" points="84.347,-106.96 73.9635,-104.854 80.7674,-112.976 84.347,-106.96"/>
</g>
<!-- lire -->
<g id="node5" class="node"><title>lire</title>
<ellipse fill="none" stroke="black" cx="143" cy="-90" rx="27" ry="18"/>
<text text-anchor="middle" x="143" y="-85.9" font-family="Times Roman,serif" font-size="14.00">lire</text>
</g>
<!-- program&#45;&gt;lire -->
<g id="edge14" class="edge"><title>program&#45;&gt;lire</title>
<path fill="none" stroke="black" d="M163.187,-143.831C160.19,-135.841 156.606,-126.282 153.294,-117.451"/>
<polygon fill="black" stroke="black" points="156.506,-116.048 149.718,-107.913 149.952,-118.506 156.506,-116.048"/>
</g>
<!-- readln -->
<g id="node7" class="node"><title>readln</title>
<ellipse fill="none" stroke="black" cx="151" cy="-18" rx="41.1906" ry="18"/>
<text text-anchor="middle" x="151" y="-13.9" font-family="Times Roman,serif" font-size="14.00">readln</text>
</g>
<!-- program&#45;&gt;readln -->
<g id="edge18" class="edge"><title>program&#45;&gt;readln</title>
<path fill="none" stroke="black" d="M175.359,-143.821C179.948,-125.463 184.952,-96.4095 179,-72 176.685,-62.5065 172.386,-52.821 167.838,-44.3225"/>
<polygon fill="black" stroke="black" points="170.879,-42.5897 162.889,-35.632 164.797,-46.0537 170.879,-42.5897"/>
</g>
<!-- pow -->
<g id="node8" class="node"><title>pow</title>
<ellipse fill="none" stroke="black" cx="262" cy="-90" rx="31.9646" ry="18"/>
<text text-anchor="middle" x="262" y="-85.9" font-family="Times Roman,serif" font-size="14.00">pow</text>
</g>
<!-- program&#45;&gt;pow -->
<g id="edge16" class="edge"><title>program&#45;&gt;pow</title>
<path fill="none" stroke="black" d="M191.338,-145.301C204.349,-135.118 221.099,-122.01 235.024,-111.111"/>
<polygon fill="black" stroke="black" points="237.554,-113.576 243.272,-104.657 233.239,-108.064 237.554,-113.576"/>
</g>
<!-- writeln -->
<g id="node4" class="node"><title>writeln</title>
<ellipse fill="none" stroke="black" cx="46" cy="-18" rx="45.8622" ry="18"/>
<text text-anchor="middle" x="46" y="-13.9" font-family="Times Roman,serif" font-size="14.00">writeln</text>
</g>
<!-- affiche&#45;&gt;writeln -->
<g id="edge2" class="edge"><title>affiche&#45;&gt;writeln</title>
<path fill="none" stroke="black" d="M48.243,-71.8314C47.9221,-64.131 47.5406,-54.9743 47.184,-46.4166"/>
<polygon fill="black" stroke="black" points="50.6806,-46.2589 46.7672,-36.4133 43.6867,-46.5503 50.6806,-46.2589"/>
</g>
<!-- lire&#45;&gt;readln -->
<g id="edge4" class="edge"><title>lire&#45;&gt;readln</title>
<path fill="none" stroke="black" d="M145.019,-71.8314C145.874,-64.131 146.892,-54.9743 147.843,-46.4166"/>
<polygon fill="black" stroke="black" points="151.328,-46.7386 148.954,-36.4133 144.371,-45.9656 151.328,-46.7386"/>
</g>
<!-- pow&#45;&gt;pow -->
<g id="edge10" class="edge"><title>pow&#45;&gt;pow</title>
<path fill="none" stroke="black" d="M284.885,-102.603C298.816,-105.521 312,-101.32 312,-90 312,-81.5098 304.584,-77.0242 294.999,-76.5433"/>
<polygon fill="black" stroke="black" points="294.555,-73.0682 284.885,-77.3973 295.144,-80.0434 294.555,-73.0682"/>
</g>
<!-- matmult -->
<g id="node10" class="node"><title>matmult</title>
<ellipse fill="none" stroke="black" cx="262" cy="-18" rx="52.1162" ry="18"/>
<text text-anchor="middle" x="262" y="-13.9" font-family="Times Roman,serif" font-size="14.00">matmult</text>
</g>
<!-- pow&#45;&gt;matmult -->
<g id="edge6" class="edge"><title>pow&#45;&gt;matmult</title>
<path fill="none" stroke="black" d="M256.084,-72.2022C255.3,-64.3864 255.069,-55.0171 255.39,-46.2836"/>
<polygon fill="black" stroke="black" points="258.896,-46.2999 256.055,-36.0931 251.911,-45.8439 258.896,-46.2999"/>
</g>
<!-- pow&#45;&gt;matmult -->
<g id="edge8" class="edge"><title>pow&#45;&gt;matmult</title>
<path fill="none" stroke="black" stroke-dasharray="5,2" d="M267.916,-72.2022C268.7,-64.3864 268.931,-55.0171 268.61,-46.2836"/>
<polygon fill="black" stroke="black" points="272.089,-45.8439 267.945,-36.0931 265.104,-46.2999 272.089,-45.8439"/>
</g>
</g>
</svg>
