<?xml version="1.0" encoding="UTF-8" standalone="no"?>
<!DOCTYPE svg PUBLIC "-//W3C//DTD SVG 1.1//EN"
 "http://www.w3.org/Graphics/SVG/1.1/DTD/svg11.dtd">
<!-- Generated by graphviz version 2.26.3 (20100126.1600)
 -->
<!-- Title: call_graph Pages: 1 -->
<svg width="178pt" height="116pt"
 viewBox="0.00 0.00 178.00 116.00" xmlns="http://www.w3.org/2000/svg" xmlns:xlink="http://www.w3.org/1999/xlink">
<g id="graph1" class="graph" transform="scale(1 1) rotate(0) translate(4 112)">
<title>call_graph</title>
<polygon fill="white" stroke="white" points="-4,5 -4,-112 175,-112 175,5 -4,5"/>
<!-- program -->
<g id="node1" class="node"><title>program</title>
<ellipse fill="none" stroke="black" cx="77" cy="-90" rx="50.9221" ry="18"/>
<text text-anchor="middle" x="77" y="-85.9" font-family="Times Roman,serif" font-size="14.00">program</text>
</g>
<!-- plus -->
<g id="node3" class="node"><title>plus</title>
<ellipse fill="none" stroke="black" cx="30" cy="-18" rx="30.0736" ry="18"/>
<text text-anchor="middle" x="30" y="-13.9" font-family="Times Roman,serif" font-size="14.00">plus</text>
</g>
<!-- program&#45;&gt;plus -->
<g id="edge2" class="edge"><title>program&#45;&gt;plus</title>
<path fill="none" stroke="black" d="M65.382,-72.2022C59.7788,-63.6186 52.9525,-53.1613 46.7961,-43.7303"/>
<polygon fill="black" stroke="black" points="49.5578,-41.5578 41.1607,-35.0972 43.6961,-45.3842 49.5578,-41.5578"/>
</g>
<!-- writeln -->
<g id="node5" class="node"><title>writeln</title>
<ellipse fill="none" stroke="black" cx="124" cy="-18" rx="45.8622" ry="18"/>
<text text-anchor="middle" x="124" y="-13.9" font-family="Times Roman,serif" font-size="14.00">writeln</text>
</g>
<!-- program&#45;&gt;writeln -->
<g id="edge4" class="edge"><title>program&#45;&gt;writeln</title>
<path fill="none" stroke="black" stroke-dasharray="5,2" d="M88.618,-72.2022C94.1388,-63.7448 100.847,-53.4685 106.932,-44.147"/>
<polygon fill="black" stroke="black" points="109.98,-45.88 112.516,-35.593 104.119,-42.0536 109.98,-45.88"/>
</g>
</g>
</svg>
