<?xml version="1.0" encoding="UTF-8" standalone="no"?>
<!DOCTYPE svg PUBLIC "-//W3C//DTD SVG 1.1//EN"
 "http://www.w3.org/Graphics/SVG/1.1/DTD/svg11.dtd">
<!-- Generated by graphviz version 2.26.3 (20100126.1600)
 -->
<!-- Title: call_graph Pages: 1 -->
<svg width="318pt" height="188pt"
 viewBox="0.00 0.00 318.00 188.00" xmlns="http://www.w3.org/2000/svg" xmlns:xlink="http://www.w3.org/1999/xlink">
<g id="graph1" class="graph" transform="scale(1 1) rotate(0) translate(4 184)">
<title>call_graph</title>
<polygon fill="white" stroke="white" points="-4,5 -4,-184 315,-184 315,5 -4,5"/>
<!-- program -->
<g id="node1" class="node"><title>program</title>
<ellipse fill="none" stroke="black" cx="159" cy="-162" rx="50.9221" ry="18"/>
<text text-anchor="middle" x="159" y="-157.9" font-family="Times Roman,serif" font-size="14.00">program</text>
</g>
<!-- power -->
<g id="node2" class="node"><title>power</title>
<ellipse fill="none" stroke="black" cx="41" cy="-90" rx="41.1906" ry="18"/>
<text text-anchor="middle" x="41" y="-85.9" font-family="Times Roman,serif" font-size="14.00">power</text>
</g>
<!-- program&#45;&gt;power -->
<g id="edge6" class="edge"><title>program&#45;&gt;power</title>
<path fill="none" stroke="black" d="M133.396,-146.377C115.958,-135.737 92.7173,-121.556 73.9074,-110.079"/>
<polygon fill="black" stroke="black" points="75.704,-107.075 65.3446,-104.854 72.0579,-113.051 75.704,-107.075"/>
</g>
<!-- readln -->
<g id="node8" class="node"><title>readln</title>
<ellipse fill="none" stroke="black" cx="159" cy="-90" rx="41.1906" ry="18"/>
<text text-anchor="middle" x="159" y="-85.9" font-family="Times Roman,serif" font-size="14.00">readln</text>
</g>
<!-- program&#45;&gt;readln -->
<g id="edge8" class="edge"><title>program&#45;&gt;readln</title>
<path fill="none" stroke="black" d="M159,-143.831C159,-136.131 159,-126.974 159,-118.417"/>
<polygon fill="black" stroke="black" points="162.5,-118.413 159,-108.413 155.5,-118.413 162.5,-118.413"/>
</g>
<!-- writeln -->
<g id="node10" class="node"><title>writeln</title>
<ellipse fill="none" stroke="black" cx="264" cy="-90" rx="45.8622" ry="18"/>
<text text-anchor="middle" x="264" y="-85.9" font-family="Times Roman,serif" font-size="14.00">writeln</text>
</g>
<!-- program&#45;&gt;writeln -->
<g id="edge10" class="edge"><title>program&#45;&gt;writeln</title>
<path fill="none" stroke="black" stroke-dasharray="5,2" d="M182.564,-145.842C197.257,-135.767 216.347,-122.677 232.35,-111.703"/>
<polygon fill="black" stroke="black" points="234.608,-114.398 240.876,-105.856 230.649,-108.625 234.608,-114.398"/>
</g>
<!-- power&#45;&gt;power -->
<g id="edge4" class="edge"><title>power&#45;&gt;power</title>
<path fill="none" stroke="black" d="M69.8378,-102.899C85.5807,-105.198 100,-100.898 100,-90 100,-81.4856 91.1992,-76.9987 79.842,-76.5393"/>
<polygon fill="black" stroke="black" points="79.6259,-73.0458 69.8378,-77.1007 80.0182,-80.0348 79.6259,-73.0458"/>
</g>
<!-- even -->
<g id="node4" class="node"><title>even</title>
<ellipse fill="none" stroke="black" cx="41" cy="-18" rx="34.2406" ry="18"/>
<text text-anchor="middle" x="41" y="-13.9" font-family="Times Roman,serif" font-size="14.00">even</text>
</g>
<!-- power&#45;&gt;even -->
<g id="edge2" class="edge"><title>power&#45;&gt;even</title>
<path fill="none" stroke="black" d="M41,-71.8314C41,-64.131 41,-54.9743 41,-46.4166"/>
<polygon fill="black" stroke="black" points="44.5001,-46.4132 41,-36.4133 37.5001,-46.4133 44.5001,-46.4132"/>
</g>
</g>
</svg>
