<?xml version="1.0" encoding="UTF-8" standalone="no"?>
<!DOCTYPE svg PUBLIC "-//W3C//DTD SVG 1.1//EN"
 "http://www.w3.org/Graphics/SVG/1.1/DTD/svg11.dtd">
<!-- Generated by graphviz version 2.26.3 (20100126.1600)
 -->
<!-- Title: call_graph Pages: 1 -->
<svg width="289pt" height="188pt"
 viewBox="0.00 0.00 289.00 188.00" xmlns="http://www.w3.org/2000/svg" xmlns:xlink="http://www.w3.org/1999/xlink">
<g id="graph1" class="graph" transform="scale(1 1) rotate(0) translate(4 184)">
<title>call_graph</title>
<polygon fill="white" stroke="white" points="-4,5 -4,-184 286,-184 286,5 -4,5"/>
<!-- program -->
<g id="node1" class="node"><title>program</title>
<ellipse fill="none" stroke="black" cx="146" cy="-162" rx="50.9221" ry="18"/>
<text text-anchor="middle" x="146" y="-157.9" font-family="Times Roman,serif" font-size="14.00">program</text>
</g>
<!-- affiche -->
<g id="node2" class="node"><title>affiche</title>
<ellipse fill="none" stroke="black" cx="50" cy="-90" rx="43.0827" ry="18"/>
<text text-anchor="middle" x="50" y="-85.9" font-family="Times Roman,serif" font-size="14.00">affiche</text>
</g>
<!-- program&#45;&gt;affiche -->
<g id="edge6" class="edge"><title>program&#45;&gt;affiche</title>
<path fill="none" stroke="black" stroke-dasharray="5,2" d="M124.216,-145.662C110.898,-135.673 93.695,-122.771 79.2056,-111.904"/>
<polygon fill="black" stroke="black" points="81.138,-108.978 71.0379,-105.778 76.9379,-114.578 81.138,-108.978"/>
</g>
<!-- lire -->
<g id="node5" class="node"><title>lire</title>
<ellipse fill="none" stroke="black" cx="146" cy="-90" rx="27" ry="18"/>
<text text-anchor="middle" x="146" y="-85.9" font-family="Times Roman,serif" font-size="14.00">lire</text>
</g>
<!-- program&#45;&gt;lire -->
<g id="edge8" class="edge"><title>program&#45;&gt;lire</title>
<path fill="none" stroke="black" d="M146,-143.831C146,-136.131 146,-126.974 146,-118.417"/>
<polygon fill="black" stroke="black" points="149.5,-118.413 146,-108.413 142.5,-118.413 149.5,-118.413"/>
</g>
<!-- tri -->
<g id="node11" class="node"><title>tri</title>
<ellipse fill="none" stroke="black" cx="218" cy="-90" rx="27" ry="18"/>
<text text-anchor="middle" x="218" y="-85.9" font-family="Times Roman,serif" font-size="14.00">tri</text>
</g>
<!-- program&#45;&gt;tri -->
<g id="edge10" class="edge"><title>program&#45;&gt;tri</title>
<path fill="none" stroke="black" d="M163.063,-144.937C172.834,-135.166 185.207,-122.793 195.736,-112.264"/>
<polygon fill="black" stroke="black" points="198.417,-114.533 203.013,-104.987 193.467,-109.583 198.417,-114.533"/>
</g>
<!-- writeln -->
<g id="node4" class="node"><title>writeln</title>
<ellipse fill="none" stroke="black" cx="46" cy="-18" rx="45.8622" ry="18"/>
<text text-anchor="middle" x="46" y="-13.9" font-family="Times Roman,serif" font-size="14.00">writeln</text>
</g>
<!-- affiche&#45;&gt;writeln -->
<g id="edge2" class="edge"><title>affiche&#45;&gt;writeln</title>
<path fill="none" stroke="black" d="M48.9906,-71.8314C48.5628,-64.131 48.0541,-54.9743 47.5787,-46.4166"/>
<polygon fill="black" stroke="black" points="51.0724,-46.2037 47.023,-36.4133 44.0831,-46.592 51.0724,-46.2037"/>
</g>
<!-- readln -->
<g id="node7" class="node"><title>readln</title>
<ellipse fill="none" stroke="black" cx="151" cy="-18" rx="41.1906" ry="18"/>
<text text-anchor="middle" x="151" y="-13.9" font-family="Times Roman,serif" font-size="14.00">readln</text>
</g>
<!-- lire&#45;&gt;readln -->
<g id="edge4" class="edge"><title>lire&#45;&gt;readln</title>
<path fill="none" stroke="black" d="M147.262,-71.8314C147.796,-64.131 148.432,-54.9743 149.027,-46.4166"/>
<polygon fill="black" stroke="black" points="152.52,-46.6317 149.721,-36.4133 145.537,-46.1467 152.52,-46.6317"/>
</g>
<!-- tri&#45;&gt;tri -->
<g id="edge12" class="edge"><title>tri&#45;&gt;tri</title>
<path fill="none" stroke="black" d="M243.443,-96.6907C254.028,-97.1521 263,-94.9219 263,-90 263,-86.77 259.136,-84.6992 253.488,-83.7876"/>
<polygon fill="black" stroke="black" points="253.599,-80.289 243.443,-83.3093 253.266,-87.2811 253.599,-80.289"/>
</g>
<!-- tri&#45;&gt;tri -->
<g id="edge14" class="edge"><title>tri&#45;&gt;tri</title>
<path fill="none" stroke="black" stroke-dasharray="5,2" d="M239.627,-101.007C259.538,-106.536 281,-102.867 281,-90 281,-79.2438 266.002,-74.9152 249.45,-77.014"/>
<polygon fill="black" stroke="black" points="248.739,-73.587 239.627,-78.9925 250.121,-80.4492 248.739,-73.587"/>
</g>
</g>
</svg>
