<?xml version="1.0" encoding="UTF-8" standalone="no"?>
<!DOCTYPE svg PUBLIC "-//W3C//DTD SVG 1.1//EN"
 "http://www.w3.org/Graphics/SVG/1.1/DTD/svg11.dtd">
<!-- Generated by graphviz version 2.26.3 (20100126.1600)
 -->
<!-- Title: call_graph Pages: 1 -->
<svg width="190pt" height="116pt"
 viewBox="0.00 0.00 190.00 116.00" xmlns="http://www.w3.org/2000/svg" xmlns:xlink="http://www.w3.org/1999/xlink">
<g id="graph1" class="graph" transform="scale(1 1) rotate(0) translate(4 112)">
<title>call_graph</title>
<polygon fill="white" stroke="white" points="-4,5 -4,-112 187,-112 187,5 -4,5"/>
<!-- program -->
<g id="node1" class="node"><title>program</title>
<ellipse fill="none" stroke="black" cx="81" cy="-90" rx="50.9221" ry="18"/>
<text text-anchor="middle" x="81" y="-85.9" font-family="Times Roman,serif" font-size="14.00">program</text>
</g>
<!-- tak -->
<g id="node3" class="node"><title>tak</title>
<ellipse fill="none" stroke="black" cx="27" cy="-18" rx="27.1004" ry="18"/>
<text text-anchor="middle" x="27" y="-13.9" font-family="Times Roman,serif" font-size="14.00">tak</text>
</g>
<!-- program&#45;&gt;tak -->
<g id="edge2" class="edge"><title>program&#45;&gt;tak</title>
<path fill="none" stroke="black" d="M67.9281,-72.5708C61.1684,-63.5578 52.8047,-52.4063 45.4033,-42.5377"/>
<polygon fill="black" stroke="black" points="48.0113,-40.1817 39.2113,-34.2817 42.4113,-44.3817 48.0113,-40.1817"/>
</g>
<!-- writeln -->
<g id="node5" class="node"><title>writeln</title>
<ellipse fill="none" stroke="black" cx="136" cy="-18" rx="45.8622" ry="18"/>
<text text-anchor="middle" x="136" y="-13.9" font-family="Times Roman,serif" font-size="14.00">writeln</text>
</g>
<!-- program&#45;&gt;writeln -->
<g id="edge4" class="edge"><title>program&#45;&gt;writeln</title>
<path fill="none" stroke="black" stroke-dasharray="5,2" d="M94.314,-72.5708C101.002,-63.8153 109.232,-53.0418 116.607,-43.3867"/>
<polygon fill="black" stroke="black" points="119.52,-45.3401 122.809,-35.2687 113.957,-41.0908 119.52,-45.3401"/>
</g>
<!-- tak&#45;&gt;tak -->
<g id="edge6" class="edge"><title>tak&#45;&gt;tak</title>
<path fill="none" stroke="black" d="M46.895,-30.4321C59.688,-33.6753 72,-29.5312 72,-18 72,-9.62183 65.5006,-5.14331 57.0395,-4.56444"/>
<polygon fill="black" stroke="black" points="56.5019,-1.10045 46.895,-5.56787 57.191,-8.06645 56.5019,-1.10045"/>
</g>
</g>
</svg>
