<?xml version="1.0" encoding="UTF-8" standalone="no"?>
<!DOCTYPE svg PUBLIC "-//W3C//DTD SVG 1.1//EN"
 "http://www.w3.org/Graphics/SVG/1.1/DTD/svg11.dtd">
<!-- Generated by graphviz version 2.26.3 (20100126.1600)
 -->
<!-- Title: call_graph Pages: 1 -->
<svg width="324pt" height="116pt"
 viewBox="0.00 0.00 324.00 116.00" xmlns="http://www.w3.org/2000/svg" xmlns:xlink="http://www.w3.org/1999/xlink">
<g id="graph1" class="graph" transform="scale(1 1) rotate(0) translate(4 112)">
<title>call_graph</title>
<polygon fill="white" stroke="white" points="-4,5 -4,-112 321,-112 321,5 -4,5"/>
<!-- program -->
<g id="node1" class="node"><title>program</title>
<ellipse fill="none" stroke="black" cx="165" cy="-90" rx="50.9221" ry="18"/>
<text text-anchor="middle" x="165" y="-85.9" font-family="Times Roman,serif" font-size="14.00">program</text>
</g>
<!-- insertion -->
<g id="node3" class="node"><title>insertion</title>
<ellipse fill="none" stroke="black" cx="53" cy="-18" rx="53.0059" ry="18"/>
<text text-anchor="middle" x="53" y="-13.9" font-family="Times Roman,serif" font-size="14.00">insertion</text>
</g>
<!-- program&#45;&gt;insertion -->
<g id="edge2" class="edge"><title>program&#45;&gt;insertion</title>
<path fill="none" stroke="black" d="M140.421,-74.1993C124.629,-64.0471 103.907,-50.7262 86.6024,-39.6015"/>
<polygon fill="black" stroke="black" points="88.2131,-36.4762 77.9086,-34.0127 84.4277,-42.3644 88.2131,-36.4762"/>
</g>
<!-- readln -->
<g id="node5" class="node"><title>readln</title>
<ellipse fill="none" stroke="black" cx="165" cy="-18" rx="41.1906" ry="18"/>
<text text-anchor="middle" x="165" y="-13.9" font-family="Times Roman,serif" font-size="14.00">readln</text>
</g>
<!-- program&#45;&gt;readln -->
<g id="edge4" class="edge"><title>program&#45;&gt;readln</title>
<path fill="none" stroke="black" d="M165,-71.8314C165,-64.131 165,-54.9743 165,-46.4166"/>
<polygon fill="black" stroke="black" points="168.5,-46.4132 165,-36.4133 161.5,-46.4133 168.5,-46.4132"/>
</g>
<!-- writeln -->
<g id="node7" class="node"><title>writeln</title>
<ellipse fill="none" stroke="black" cx="270" cy="-18" rx="45.8622" ry="18"/>
<text text-anchor="middle" x="270" y="-13.9" font-family="Times Roman,serif" font-size="14.00">writeln</text>
</g>
<!-- program&#45;&gt;writeln -->
<g id="edge6" class="edge"><title>program&#45;&gt;writeln</title>
<path fill="none" stroke="black" d="M188.564,-73.8418C203.257,-63.7668 222.347,-50.6766 238.35,-39.7027"/>
<polygon fill="black" stroke="black" points="240.608,-42.3983 246.876,-33.8564 236.649,-36.6252 240.608,-42.3983"/>
</g>
</g>
</svg>
