<?xml version="1.0" encoding="UTF-8" standalone="no"?>
<!DOCTYPE svg PUBLIC "-//W3C//DTD SVG 1.1//EN"
 "http://www.w3.org/Graphics/SVG/1.1/DTD/svg11.dtd">
<!-- Generated by graphviz version 2.26.3 (20100126.1600)
 -->
<!-- Title: call_graph Pages: 1 -->
<svg width="244pt" height="116pt"
 viewBox="0.00 0.00 244.00 116.00" xmlns="http://www.w3.org/2000/svg" xmlns:xlink="http://www.w3.org/1999/xlink">
<g id="graph1" class="graph" transform="scale(1 1) rotate(0) translate(4 112)">
<title>call_graph</title>
<polygon fill="white" stroke="white" points="-4,5 -4,-112 241,-112 241,5 -4,5"/>
<!-- program -->
<g id="node1" class="node"><title>program</title>
<ellipse fill="none" stroke="black" cx="99" cy="-90" rx="50.9221" ry="18"/>
<text text-anchor="middle" x="99" y="-85.9" font-family="Times Roman,serif" font-size="14.00">program</text>
</g>
<!-- f -->
<g id="node3" class="node"><title>f</title>
<ellipse fill="none" stroke="black" cx="27" cy="-18" rx="27" ry="18"/>
<text text-anchor="middle" x="27" y="-13.9" font-family="Times Roman,serif" font-size="14.00">f</text>
</g>
<!-- program&#45;&gt;f -->
<g id="edge2" class="edge"><title>program&#45;&gt;f</title>
<path fill="none" stroke="black" d="M81.937,-72.937C72.1659,-63.1659 59.7928,-50.7928 49.2639,-40.2639"/>
<polygon fill="black" stroke="black" points="51.5327,-37.583 41.9868,-32.9868 46.583,-42.5327 51.5327,-37.583"/>
</g>
<!-- g -->
<g id="node5" class="node"><title>g</title>
<ellipse fill="none" stroke="black" cx="99" cy="-18" rx="27" ry="18"/>
<text text-anchor="middle" x="99" y="-13.9" font-family="Times Roman,serif" font-size="14.00">g</text>
</g>
<!-- program&#45;&gt;g -->
<g id="edge4" class="edge"><title>program&#45;&gt;g</title>
<path fill="none" stroke="black" d="M99,-71.8314C99,-64.131 99,-54.9743 99,-46.4166"/>
<polygon fill="black" stroke="black" points="102.5,-46.4132 99,-36.4133 95.5001,-46.4133 102.5,-46.4132"/>
</g>
<!-- writeln -->
<g id="node7" class="node"><title>writeln</title>
<ellipse fill="none" stroke="black" cx="190" cy="-18" rx="45.8622" ry="18"/>
<text text-anchor="middle" x="190" y="-13.9" font-family="Times Roman,serif" font-size="14.00">writeln</text>
</g>
<!-- program&#45;&gt;writeln -->
<g id="edge6" class="edge"><title>program&#45;&gt;writeln</title>
<path fill="none" stroke="black" stroke-dasharray="5,2" d="M120.106,-73.3008C132.367,-63.5994 147.984,-51.2431 161.345,-40.672"/>
<polygon fill="black" stroke="black" points="163.652,-43.3101 169.322,-34.3604 159.308,-37.8205 163.652,-43.3101"/>
</g>
</g>
</svg>
