<?xml version="1.0" encoding="UTF-8" standalone="no"?>
<!DOCTYPE svg PUBLIC "-//W3C//DTD SVG 1.1//EN"
 "http://www.w3.org/Graphics/SVG/1.1/DTD/svg11.dtd">
<!-- Generated by graphviz version 2.26.3 (20100126.1600)
 -->
<!-- Title: call_graph Pages: 1 -->
<svg width="199pt" height="188pt"
 viewBox="0.00 0.00 199.00 188.00" xmlns="http://www.w3.org/2000/svg" xmlns:xlink="http://www.w3.org/1999/xlink">
<g id="graph1" class="graph" transform="scale(1 1) rotate(0) translate(4 184)">
<title>call_graph</title>
<polygon fill="white" stroke="white" points="-4,5 -4,-184 196,-184 196,5 -4,5"/>
<!-- program -->
<g id="node1" class="node"><title>program</title>
<ellipse fill="none" stroke="black" cx="98" cy="-162" rx="50.9221" ry="18"/>
<text text-anchor="middle" x="98" y="-157.9" font-family="Times Roman,serif" font-size="14.00">program</text>
</g>
<!-- coucou -->
<g id="node2" class="node"><title>coucou</title>
<ellipse fill="none" stroke="black" cx="46" cy="-90" rx="45.1673" ry="18"/>
<text text-anchor="middle" x="46" y="-85.9" font-family="Times Roman,serif" font-size="14.00">coucou</text>
</g>
<!-- program&#45;&gt;coucou -->
<g id="edge6" class="edge"><title>program&#45;&gt;coucou</title>
<path fill="none" stroke="black" d="M85.1461,-144.202C78.9289,-135.594 71.3508,-125.101 64.5241,-115.649"/>
<polygon fill="black" stroke="black" points="67.219,-113.402 58.5266,-107.345 61.5442,-117.501 67.219,-113.402"/>
</g>
<!-- readln -->
<g id="node8" class="node"><title>readln</title>
<ellipse fill="none" stroke="black" cx="150" cy="-90" rx="41.1906" ry="18"/>
<text text-anchor="middle" x="150" y="-85.9" font-family="Times Roman,serif" font-size="14.00">readln</text>
</g>
<!-- program&#45;&gt;readln -->
<g id="edge8" class="edge"><title>program&#45;&gt;readln</title>
<path fill="none" stroke="black" d="M110.854,-144.202C117.071,-135.594 124.649,-125.101 131.476,-115.649"/>
<polygon fill="black" stroke="black" points="134.456,-117.501 137.473,-107.345 128.781,-113.402 134.456,-117.501"/>
</g>
<!-- writeln -->
<g id="node4" class="node"><title>writeln</title>
<ellipse fill="none" stroke="black" cx="46" cy="-18" rx="45.8622" ry="18"/>
<text text-anchor="middle" x="46" y="-13.9" font-family="Times Roman,serif" font-size="14.00">writeln</text>
</g>
<!-- coucou&#45;&gt;writeln -->
<g id="edge2" class="edge"><title>coucou&#45;&gt;writeln</title>
<path fill="none" stroke="black" d="M40.0476,-71.8314C39.2856,-64.0125 39.0696,-54.6923 39.3995,-46.0221"/>
<polygon fill="black" stroke="black" points="42.9004,-46.1239 40.0727,-35.9134 35.9159,-45.6587 42.9004,-46.1239"/>
</g>
<!-- coucou&#45;&gt;writeln -->
<g id="edge4" class="edge"><title>coucou&#45;&gt;writeln</title>
<path fill="none" stroke="black" stroke-dasharray="5,2" d="M51.9524,-71.8314C52.7144,-64.0125 52.9304,-54.6923 52.6005,-46.0221"/>
<polygon fill="black" stroke="black" points="56.0841,-45.6587 51.9273,-35.9134 49.0996,-46.1239 56.0841,-45.6587"/>
</g>
</g>
</svg>
