<?xml version="1.0" encoding="UTF-8" standalone="no"?>
<!DOCTYPE svg PUBLIC "-//W3C//DTD SVG 1.1//EN"
 "http://www.w3.org/Graphics/SVG/1.1/DTD/svg11.dtd">
<!-- Generated by graphviz version 2.26.3 (20100126.1600)
 -->
<!-- Title: call_graph Pages: 1 -->
<svg width="178pt" height="188pt"
 viewBox="0.00 0.00 178.00 188.00" xmlns="http://www.w3.org/2000/svg" xmlns:xlink="http://www.w3.org/1999/xlink">
<g id="graph1" class="graph" transform="scale(1 1) rotate(0) translate(4 184)">
<title>call_graph</title>
<polygon fill="white" stroke="white" points="-4,5 -4,-184 175,-184 175,5 -4,5"/>
<!-- program -->
<g id="node1" class="node"><title>program</title>
<ellipse fill="none" stroke="black" cx="77" cy="-162" rx="50.9221" ry="18"/>
<text text-anchor="middle" x="77" y="-157.9" font-family="Times Roman,serif" font-size="14.00">program</text>
</g>
<!-- test -->
<g id="node3" class="node"><title>test</title>
<ellipse fill="none" stroke="black" cx="30" cy="-90" rx="30.0736" ry="18"/>
<text text-anchor="middle" x="30" y="-85.9" font-family="Times Roman,serif" font-size="14.00">test</text>
</g>
<!-- program&#45;&gt;test -->
<g id="edge2" class="edge"><title>program&#45;&gt;test</title>
<path fill="none" stroke="black" d="M65.382,-144.202C59.7788,-135.619 52.9525,-125.161 46.7961,-115.73"/>
<polygon fill="black" stroke="black" points="49.5578,-113.558 41.1607,-107.097 43.6961,-117.384 49.5578,-113.558"/>
</g>
<!-- writeln -->
<g id="node5" class="node"><title>writeln</title>
<ellipse fill="none" stroke="black" cx="124" cy="-90" rx="45.8622" ry="18"/>
<text text-anchor="middle" x="124" y="-85.9" font-family="Times Roman,serif" font-size="14.00">writeln</text>
</g>
<!-- program&#45;&gt;writeln -->
<g id="edge4" class="edge"><title>program&#45;&gt;writeln</title>
<path fill="none" stroke="black" stroke-dasharray="5,2" d="M88.618,-144.202C94.1388,-135.745 100.847,-125.468 106.932,-116.147"/>
<polygon fill="black" stroke="black" points="109.98,-117.88 112.516,-107.593 104.119,-114.054 109.98,-117.88"/>
</g>
<!-- rien -->
<g id="node7" class="node"><title>rien</title>
<ellipse fill="none" stroke="black" cx="30" cy="-18" rx="30.0736" ry="18"/>
<text text-anchor="middle" x="30" y="-13.9" font-family="Times Roman,serif" font-size="14.00">rien</text>
</g>
<!-- test&#45;&gt;rien -->
<g id="edge6" class="edge"><title>test&#45;&gt;rien</title>
<path fill="none" stroke="black" d="M30,-71.8314C30,-64.131 30,-54.9743 30,-46.4166"/>
<polygon fill="black" stroke="black" points="33.5001,-46.4132 30,-36.4133 26.5001,-46.4133 33.5001,-46.4132"/>
</g>
</g>
</svg>
