<?xml version="1.0" encoding="UTF-8" standalone="no"?>
<!DOCTYPE svg PUBLIC "-//W3C//DTD SVG 1.1//EN"
 "http://www.w3.org/Graphics/SVG/1.1/DTD/svg11.dtd">
<!-- Generated by graphviz version 2.26.3 (20100126.1600)
 -->
<!-- Title: call_graph Pages: 1 -->
<svg width="186pt" height="260pt"
 viewBox="0.00 0.00 186.00 260.00" xmlns="http://www.w3.org/2000/svg" xmlns:xlink="http://www.w3.org/1999/xlink">
<g id="graph1" class="graph" transform="scale(1 1) rotate(0) translate(4 256)">
<title>call_graph</title>
<polygon fill="white" stroke="white" points="-4,5 -4,-256 183,-256 183,5 -4,5"/>
<!-- program -->
<g id="node1" class="node"><title>program</title>
<ellipse fill="none" stroke="black" cx="83" cy="-234" rx="50.9221" ry="18"/>
<text text-anchor="middle" x="83" y="-229.9" font-family="Times Roman,serif" font-size="14.00">program</text>
</g>
<!-- check -->
<g id="node2" class="node"><title>check</title>
<ellipse fill="none" stroke="black" cx="83" cy="-162" rx="38.9134" ry="18"/>
<text text-anchor="middle" x="83" y="-157.9" font-family="Times Roman,serif" font-size="14.00">check</text>
</g>
<!-- program&#45;&gt;check -->
<g id="edge10" class="edge"><title>program&#45;&gt;check</title>
<path fill="none" stroke="black" stroke-dasharray="5,2" d="M83,-215.831C83,-208.131 83,-198.974 83,-190.417"/>
<polygon fill="black" stroke="black" points="86.5001,-190.413 83,-180.413 79.5001,-190.413 86.5001,-190.413"/>
</g>
<!-- even -->
<g id="node4" class="node"><title>even</title>
<ellipse fill="none" stroke="black" cx="34" cy="-90" rx="34.2406" ry="18"/>
<text text-anchor="middle" x="34" y="-85.9" font-family="Times Roman,serif" font-size="14.00">even</text>
</g>
<!-- check&#45;&gt;even -->
<g id="edge2" class="edge"><title>check&#45;&gt;even</title>
<path fill="none" stroke="black" d="M71.1385,-144.571C65.2401,-135.904 57.9958,-125.259 51.4764,-115.68"/>
<polygon fill="black" stroke="black" points="54.2721,-113.567 45.7523,-107.269 48.4851,-117.505 54.2721,-113.567"/>
</g>
<!-- writeln -->
<g id="node6" class="node"><title>writeln</title>
<ellipse fill="none" stroke="black" cx="132" cy="-90" rx="45.8622" ry="18"/>
<text text-anchor="middle" x="132" y="-85.9" font-family="Times Roman,serif" font-size="14.00">writeln</text>
</g>
<!-- check&#45;&gt;writeln -->
<g id="edge4" class="edge"><title>check&#45;&gt;writeln</title>
<path fill="none" stroke="black" d="M94.8615,-144.571C100.717,-135.968 107.898,-125.416 114.38,-115.891"/>
<polygon fill="black" stroke="black" points="117.345,-117.755 120.078,-107.518 111.558,-113.816 117.345,-117.755"/>
</g>
<!-- odd -->
<g id="node8" class="node"><title>odd</title>
<ellipse fill="none" stroke="black" cx="34" cy="-18" rx="27.9903" ry="18"/>
<text text-anchor="middle" x="34" y="-13.9" font-family="Times Roman,serif" font-size="14.00">odd</text>
</g>
<!-- even&#45;&gt;odd -->
<g id="edge6" class="edge"><title>even&#45;&gt;odd</title>
<path fill="none" stroke="black" stroke-dasharray="5,2" d="M28.0843,-72.2022C27.2945,-64.3271 27.0655,-54.875 27.3971,-46.0852"/>
<polygon fill="black" stroke="black" points="30.9069,-46.0532 28.0798,-35.8425 23.9224,-45.5876 30.9069,-46.0532"/>
</g>
<!-- odd&#45;&gt;even -->
<g id="edge8" class="edge"><title>odd&#45;&gt;even</title>
<path fill="none" stroke="black" stroke-dasharray="5,2" d="M39.9202,-35.8425C40.7078,-43.7236 40.9348,-53.1774 40.601,-61.9647"/>
<polygon fill="black" stroke="black" points="37.0915,-61.9908 39.9157,-72.2022 44.0759,-62.4583 37.0915,-61.9908"/>
</g>
</g>
</svg>
