<?xml version="1.0" encoding="UTF-8" standalone="no"?>
<!DOCTYPE svg PUBLIC "-//W3C//DTD SVG 1.1//EN"
 "http://www.w3.org/Graphics/SVG/1.1/DTD/svg11.dtd">
<!-- Generated by graphviz version 2.26.3 (20100126.1600)
 -->
<!-- Title: call_graph Pages: 1 -->
<svg width="364pt" height="116pt"
 viewBox="0.00 0.00 364.00 116.00" xmlns="http://www.w3.org/2000/svg" xmlns:xlink="http://www.w3.org/1999/xlink">
<g id="graph1" class="graph" transform="scale(1 1) rotate(0) translate(4 112)">
<title>call_graph</title>
<polygon fill="white" stroke="white" points="-4,5 -4,-112 361,-112 361,5 -4,5"/>
<!-- program -->
<g id="node1" class="node"><title>program</title>
<ellipse fill="none" stroke="black" cx="243" cy="-90" rx="50.9221" ry="18"/>
<text text-anchor="middle" x="243" y="-85.9" font-family="Times Roman,serif" font-size="14.00">program</text>
</g>
<!-- somme -->
<g id="node3" class="node"><title>somme</title>
<ellipse fill="none" stroke="black" cx="45" cy="-18" rx="45.1673" ry="18"/>
<text text-anchor="middle" x="45" y="-13.9" font-family="Times Roman,serif" font-size="14.00">somme</text>
</g>
<!-- program&#45;&gt;somme -->
<g id="edge2" class="edge"><title>program&#45;&gt;somme</title>
<path fill="none" stroke="black" d="M207.144,-76.9613C173.732,-64.8117 123.852,-46.6735 88.2473,-33.7263"/>
<polygon fill="black" stroke="black" points="89.2031,-30.3497 78.609,-30.2215 86.8108,-36.9282 89.2031,-30.3497"/>
</g>
<!-- somme2 -->
<g id="node5" class="node"><title>somme2</title>
<ellipse fill="none" stroke="black" cx="177" cy="-18" rx="50.9221" ry="18"/>
<text text-anchor="middle" x="177" y="-13.9" font-family="Times Roman,serif" font-size="14.00">somme2</text>
</g>
<!-- program&#45;&gt;somme2 -->
<g id="edge4" class="edge"><title>program&#45;&gt;somme2</title>
<path fill="none" stroke="black" d="M227.023,-72.5708C218.835,-63.6385 208.722,-52.6056 199.736,-42.8029"/>
<polygon fill="black" stroke="black" points="202.167,-40.2752 192.83,-35.2687 197.007,-45.0053 202.167,-40.2752"/>
</g>
<!-- writeln -->
<g id="node7" class="node"><title>writeln</title>
<ellipse fill="none" stroke="black" cx="310" cy="-18" rx="45.8622" ry="18"/>
<text text-anchor="middle" x="310" y="-13.9" font-family="Times Roman,serif" font-size="14.00">writeln</text>
</g>
<!-- program&#45;&gt;writeln -->
<g id="edge6" class="edge"><title>program&#45;&gt;writeln</title>
<path fill="none" stroke="black" d="M253.646,-72.2022C261.361,-62.9106 271.899,-51.4237 281.838,-41.4194"/>
<polygon fill="black" stroke="black" points="284.586,-43.6252 289.264,-34.119 279.679,-38.6331 284.586,-43.6252"/>
</g>
<!-- program&#45;&gt;writeln -->
<g id="edge8" class="edge"><title>program&#45;&gt;writeln</title>
<path fill="none" stroke="black" stroke-dasharray="5,2" d="M264.34,-73.3008C273.61,-64.3848 284.218,-53.2264 292.959,-43.2722"/>
<polygon fill="black" stroke="black" points="295.669,-45.4884 299.507,-35.6132 290.348,-40.9397 295.669,-45.4884"/>
</g>
<!-- somme&#45;&gt;somme -->
<g id="edge10" class="edge"><title>somme&#45;&gt;somme</title>
<path fill="none" stroke="black" stroke-dasharray="5,2" d="M76.4428,-30.985C92.9979,-33.0862 108,-28.7578 108,-18 108,-9.51141 98.6594,-5.02594 86.5856,-4.54359"/>
<polygon fill="black" stroke="black" points="86.2695,-1.05441 76.4428,-5.01498 86.5946,-8.04686 86.2695,-1.05441"/>
</g>
<!-- somme2&#45;&gt;somme2 -->
<g id="edge12" class="edge"><title>somme2&#45;&gt;somme2</title>
<path fill="none" stroke="black" stroke-dasharray="5,2" d="M212.148,-31.0641C229.996,-32.9719 246,-28.6172 246,-18 246,-9.45648 235.637,-4.96806 222.289,-4.53473"/>
<polygon fill="black" stroke="black" points="222.001,-1.04327 212.148,-4.93588 222.278,-8.0378 222.001,-1.04327"/>
</g>
</g>
</svg>
