<?xml version="1.0" encoding="UTF-8" standalone="no"?>
<!DOCTYPE svg PUBLIC "-//W3C//DTD SVG 1.1//EN"
 "http://www.w3.org/Graphics/SVG/1.1/DTD/svg11.dtd">
<!-- Generated by graphviz version 2.26.3 (20100126.1600)
 -->
<!-- Title: call_graph Pages: 1 -->
<svg width="122pt" height="188pt"
 viewBox="0.00 0.00 122.00 188.00" xmlns="http://www.w3.org/2000/svg" xmlns:xlink="http://www.w3.org/1999/xlink">
<g id="graph1" class="graph" transform="scale(1 1) rotate(0) translate(4 184)">
<title>call_graph</title>
<polygon fill="white" stroke="white" points="-4,5 -4,-184 119,-184 119,5 -4,5"/>
<!-- program -->
<g id="node1" class="node"><title>program</title>
<ellipse fill="none" stroke="black" cx="51" cy="-162" rx="50.9221" ry="18"/>
<text text-anchor="middle" x="51" y="-157.9" font-family="Times Roman,serif" font-size="14.00">program</text>
</g>
<!-- f -->
<g id="node2" class="node"><title>f</title>
<ellipse fill="none" stroke="black" cx="51" cy="-90" rx="27" ry="18"/>
<text text-anchor="middle" x="51" y="-85.9" font-family="Times Roman,serif" font-size="14.00">f</text>
</g>
<!-- program&#45;&gt;f -->
<g id="edge8" class="edge"><title>program&#45;&gt;f</title>
<path fill="none" stroke="black" stroke-dasharray="5,2" d="M51,-143.831C51,-136.131 51,-126.974 51,-118.417"/>
<polygon fill="black" stroke="black" points="54.5001,-118.413 51,-108.413 47.5001,-118.413 54.5001,-118.413"/>
</g>
<!-- f&#45;&gt;f -->
<g id="edge2" class="edge"><title>f&#45;&gt;f</title>
<path fill="none" stroke="black" d="M76.4435,-96.6907C87.0278,-97.1521 96,-94.9219 96,-90 96,-86.77 92.136,-84.6992 86.4881,-83.7876"/>
<polygon fill="black" stroke="black" points="86.5987,-80.289 76.4435,-83.3093 86.2656,-87.2811 86.5987,-80.289"/>
</g>
<!-- f&#45;&gt;f -->
<g id="edge4" class="edge"><title>f&#45;&gt;f</title>
<path fill="none" stroke="black" stroke-dasharray="5,2" d="M72.6268,-101.007C92.5379,-106.536 114,-102.867 114,-90 114,-79.2438 99.0025,-74.9152 82.4504,-77.014"/>
<polygon fill="black" stroke="black" points="81.7389,-73.587 72.6268,-78.9925 83.1211,-80.4492 81.7389,-73.587"/>
</g>
<!-- writeln -->
<g id="node6" class="node"><title>writeln</title>
<ellipse fill="none" stroke="black" cx="51" cy="-18" rx="45.8622" ry="18"/>
<text text-anchor="middle" x="51" y="-13.9" font-family="Times Roman,serif" font-size="14.00">writeln</text>
</g>
<!-- f&#45;&gt;writeln -->
<g id="edge6" class="edge"><title>f&#45;&gt;writeln</title>
<path fill="none" stroke="black" d="M51,-71.8314C51,-64.131 51,-54.9743 51,-46.4166"/>
<polygon fill="black" stroke="black" points="54.5001,-46.4132 51,-36.4133 47.5001,-46.4133 54.5001,-46.4132"/>
</g>
</g>
</svg>
