<?xml version="1.0" encoding="UTF-8" standalone="no"?>
<!DOCTYPE svg PUBLIC "-//W3C//DTD SVG 1.1//EN"
 "http://www.w3.org/Graphics/SVG/1.1/DTD/svg11.dtd">
<!-- Generated by graphviz version 2.26.3 (20100126.1600)
 -->
<!-- Title: call_graph Pages: 1 -->
<svg width="184pt" height="116pt"
 viewBox="0.00 0.00 184.00 116.00" xmlns="http://www.w3.org/2000/svg" xmlns:xlink="http://www.w3.org/1999/xlink">
<g id="graph1" class="graph" transform="scale(1 1) rotate(0) translate(4 112)">
<title>call_graph</title>
<polygon fill="white" stroke="white" points="-4,5 -4,-112 181,-112 181,5 -4,5"/>
<!-- program -->
<g id="node1" class="node"><title>program</title>
<ellipse fill="none" stroke="black" cx="81" cy="-90" rx="50.9221" ry="18"/>
<text text-anchor="middle" x="81" y="-85.9" font-family="Times Roman,serif" font-size="14.00">program</text>
</g>
<!-- copy -->
<g id="node3" class="node"><title>copy</title>
<ellipse fill="none" stroke="black" cx="33" cy="-18" rx="32.8565" ry="18"/>
<text text-anchor="middle" x="33" y="-13.9" font-family="Times Roman,serif" font-size="14.00">copy</text>
</g>
<!-- program&#45;&gt;copy -->
<g id="edge2" class="edge"><title>program&#45;&gt;copy</title>
<path fill="none" stroke="black" d="M69.1348,-72.2022C63.3534,-63.5301 56.297,-52.9455 49.9593,-43.4389"/>
<polygon fill="black" stroke="black" points="52.8574,-41.4763 44.3981,-35.0972 47.033,-45.3592 52.8574,-41.4763"/>
</g>
<!-- writeln -->
<g id="node5" class="node"><title>writeln</title>
<ellipse fill="none" stroke="black" cx="130" cy="-18" rx="45.8622" ry="18"/>
<text text-anchor="middle" x="130" y="-13.9" font-family="Times Roman,serif" font-size="14.00">writeln</text>
</g>
<!-- program&#45;&gt;writeln -->
<g id="edge4" class="edge"><title>program&#45;&gt;writeln</title>
<path fill="none" stroke="black" stroke-dasharray="5,2" d="M93.1124,-72.2022C98.8681,-63.7448 105.862,-53.4685 112.206,-44.147"/>
<polygon fill="black" stroke="black" points="115.294,-45.8294 118.027,-35.593 109.507,-41.891 115.294,-45.8294"/>
</g>
</g>
</svg>
