<?xml version="1.0" encoding="UTF-8" standalone="no"?>
<!DOCTYPE svg PUBLIC "-//W3C//DTD SVG 1.1//EN"
 "http://www.w3.org/Graphics/SVG/1.1/DTD/svg11.dtd">
<!-- Generated by graphviz version 2.26.3 (20100126.1600)
 -->
<!-- Title: call_graph Pages: 1 -->
<svg width="200pt" height="116pt"
 viewBox="0.00 0.00 200.00 116.00" xmlns="http://www.w3.org/2000/svg" xmlns:xlink="http://www.w3.org/1999/xlink">
<g id="graph1" class="graph" transform="scale(1 1) rotate(0) translate(4 112)">
<title>call_graph</title>
<polygon fill="white" stroke="white" points="-4,5 -4,-112 197,-112 197,5 -4,5"/>
<!-- program -->
<g id="node1" class="node"><title>program</title>
<ellipse fill="none" stroke="black" cx="93" cy="-90" rx="50.9221" ry="18"/>
<text text-anchor="middle" x="93" y="-85.9" font-family="Times Roman,serif" font-size="14.00">program</text>
</g>
<!-- readln -->
<g id="node3" class="node"><title>readln</title>
<ellipse fill="none" stroke="black" cx="41" cy="-18" rx="41.1906" ry="18"/>
<text text-anchor="middle" x="41" y="-13.9" font-family="Times Roman,serif" font-size="14.00">readln</text>
</g>
<!-- program&#45;&gt;readln -->
<g id="edge2" class="edge"><title>program&#45;&gt;readln</title>
<path fill="none" stroke="black" d="M80.1461,-72.2022C73.9289,-63.5938 66.3508,-53.1011 59.5241,-43.6488"/>
<polygon fill="black" stroke="black" points="62.219,-41.4022 53.5266,-35.3446 56.5442,-45.5006 62.219,-41.4022"/>
</g>
<!-- writeln -->
<g id="node5" class="node"><title>writeln</title>
<ellipse fill="none" stroke="black" cx="146" cy="-18" rx="45.8622" ry="18"/>
<text text-anchor="middle" x="146" y="-13.9" font-family="Times Roman,serif" font-size="14.00">writeln</text>
</g>
<!-- program&#45;&gt;writeln -->
<g id="edge4" class="edge"><title>program&#45;&gt;writeln</title>
<path fill="none" stroke="black" stroke-dasharray="5,2" d="M105.83,-72.5708C112.227,-63.8797 120.089,-53.2001 127.156,-43.5998"/>
<polygon fill="black" stroke="black" points="129.995,-45.6465 133.105,-35.5182 124.358,-41.4968 129.995,-45.6465"/>
</g>
</g>
</svg>
