<?xml version="1.0" encoding="UTF-8" standalone="no"?>
<!DOCTYPE svg PUBLIC "-//W3C//DTD SVG 1.1//EN"
 "http://www.w3.org/Graphics/SVG/1.1/DTD/svg11.dtd">
<!-- Generated by graphviz version 2.26.3 (20100126.1600)
 -->
<!-- Title: call_graph Pages: 1 -->
<svg width="248pt" height="116pt"
 viewBox="0.00 0.00 248.00 116.00" xmlns="http://www.w3.org/2000/svg" xmlns:xlink="http://www.w3.org/1999/xlink">
<g id="graph1" class="graph" transform="scale(1 1) rotate(0) translate(4 112)">
<title>call_graph</title>
<polygon fill="white" stroke="white" points="-4,5 -4,-112 245,-112 245,5 -4,5"/>
<!-- program -->
<g id="node1" class="node"><title>program</title>
<ellipse fill="none" stroke="black" cx="101" cy="-90" rx="50.9221" ry="18"/>
<text text-anchor="middle" x="101" y="-85.9" font-family="Times Roman,serif" font-size="14.00">program</text>
</g>
<!-- f -->
<g id="node3" class="node"><title>f</title>
<ellipse fill="none" stroke="black" cx="27" cy="-18" rx="27" ry="18"/>
<text text-anchor="middle" x="27" y="-13.9" font-family="Times Roman,serif" font-size="14.00">f</text>
</g>
<!-- program&#45;&gt;f -->
<g id="edge2" class="edge"><title>program&#45;&gt;f</title>
<path fill="none" stroke="black" d="M83.463,-72.937C73.4205,-63.1659 60.7038,-50.7928 49.8824,-40.2639"/>
<polygon fill="black" stroke="black" points="52.0111,-37.4518 42.4031,-32.9868 47.1296,-42.4689 52.0111,-37.4518"/>
</g>
<!-- min -->
<g id="node5" class="node"><title>min</title>
<ellipse fill="none" stroke="black" cx="101" cy="-18" rx="29.1851" ry="18"/>
<text text-anchor="middle" x="101" y="-13.9" font-family="Times Roman,serif" font-size="14.00">min</text>
</g>
<!-- program&#45;&gt;min -->
<g id="edge4" class="edge"><title>program&#45;&gt;min</title>
<path fill="none" stroke="black" d="M101,-71.8314C101,-64.131 101,-54.9743 101,-46.4166"/>
<polygon fill="black" stroke="black" points="104.5,-46.4132 101,-36.4133 97.5001,-46.4133 104.5,-46.4132"/>
</g>
<!-- writeln -->
<g id="node7" class="node"><title>writeln</title>
<ellipse fill="none" stroke="black" cx="194" cy="-18" rx="45.8622" ry="18"/>
<text text-anchor="middle" x="194" y="-13.9" font-family="Times Roman,serif" font-size="14.00">writeln</text>
</g>
<!-- program&#45;&gt;writeln -->
<g id="edge6" class="edge"><title>program&#45;&gt;writeln</title>
<path fill="none" stroke="black" stroke-dasharray="5,2" d="M122.57,-73.3008C135.19,-63.5306 151.288,-51.0677 165.005,-40.4474"/>
<polygon fill="black" stroke="black" points="167.422,-43.0027 173.187,-34.1134 163.137,-37.4676 167.422,-43.0027"/>
</g>
</g>
</svg>
