<?xml version="1.0" encoding="UTF-8" standalone="no"?>
<!DOCTYPE svg PUBLIC "-//W3C//DTD SVG 1.1//EN"
 "http://www.w3.org/Graphics/SVG/1.1/DTD/svg11.dtd">
<!-- Generated by graphviz version 2.26.3 (20100126.1600)
 -->
<!-- Title: call_graph Pages: 1 -->
<svg width="276pt" height="188pt"
 viewBox="0.00 0.00 276.00 188.00" xmlns="http://www.w3.org/2000/svg" xmlns:xlink="http://www.w3.org/1999/xlink">
<g id="graph1" class="graph" transform="scale(1 1) rotate(0) translate(4 184)">
<title>call_graph</title>
<polygon fill="white" stroke="white" points="-4,5 -4,-184 273,-184 273,5 -4,5"/>
<!-- program -->
<g id="node1" class="node"><title>program</title>
<ellipse fill="none" stroke="black" cx="117" cy="-162" rx="50.9221" ry="18"/>
<text text-anchor="middle" x="117" y="-157.9" font-family="Times Roman,serif" font-size="14.00">program</text>
</g>
<!-- fact -->
<g id="node4" class="node"><title>fact</title>
<ellipse fill="none" stroke="black" cx="29" cy="-90" rx="29.1851" ry="18"/>
<text text-anchor="middle" x="29" y="-85.9" font-family="Times Roman,serif" font-size="14.00">fact</text>
</g>
<!-- program&#45;&gt;fact -->
<g id="edge6" class="edge"><title>program&#45;&gt;fact</title>
<path fill="none" stroke="black" d="M96.5898,-145.301C84.0599,-135.049 67.9063,-121.832 54.5331,-110.891"/>
<polygon fill="black" stroke="black" points="56.5789,-108.042 46.623,-104.419 52.1463,-113.46 56.5789,-108.042"/>
</g>
<!-- readln -->
<g id="node8" class="node"><title>readln</title>
<ellipse fill="none" stroke="black" cx="117" cy="-90" rx="41.1906" ry="18"/>
<text text-anchor="middle" x="117" y="-85.9" font-family="Times Roman,serif" font-size="14.00">readln</text>
</g>
<!-- program&#45;&gt;readln -->
<g id="edge8" class="edge"><title>program&#45;&gt;readln</title>
<path fill="none" stroke="black" d="M117,-143.831C117,-136.131 117,-126.974 117,-118.417"/>
<polygon fill="black" stroke="black" points="120.5,-118.413 117,-108.413 113.5,-118.413 120.5,-118.413"/>
</g>
<!-- writeln -->
<g id="node10" class="node"><title>writeln</title>
<ellipse fill="none" stroke="black" cx="222" cy="-90" rx="45.8622" ry="18"/>
<text text-anchor="middle" x="222" y="-85.9" font-family="Times Roman,serif" font-size="14.00">writeln</text>
</g>
<!-- program&#45;&gt;writeln -->
<g id="edge10" class="edge"><title>program&#45;&gt;writeln</title>
<path fill="none" stroke="black" stroke-dasharray="5,2" d="M140.564,-145.842C155.257,-135.767 174.347,-122.677 190.35,-111.703"/>
<polygon fill="black" stroke="black" points="192.608,-114.398 198.876,-105.856 188.649,-108.625 192.608,-114.398"/>
</g>
<!-- f -->
<g id="node2" class="node"><title>f</title>
<ellipse fill="none" stroke="black" cx="29" cy="-18" rx="27" ry="18"/>
<text text-anchor="middle" x="29" y="-13.9" font-family="Times Roman,serif" font-size="14.00">f</text>
</g>
<!-- f&#45;&gt;f -->
<g id="edge2" class="edge"><title>f&#45;&gt;f</title>
<path fill="none" stroke="black" stroke-dasharray="5,2" d="M48.895,-30.4321C61.688,-33.6753 74,-29.5312 74,-18 74,-9.62183 67.5006,-5.14331 59.0395,-4.56444"/>
<polygon fill="black" stroke="black" points="58.5019,-1.10045 48.895,-5.56787 59.191,-8.06645 58.5019,-1.10045"/>
</g>
<!-- fact&#45;&gt;f -->
<g id="edge4" class="edge"><title>fact&#45;&gt;f</title>
<path fill="none" stroke="black" stroke-dasharray="5,2" d="M29,-71.8314C29,-64.131 29,-54.9743 29,-46.4166"/>
<polygon fill="black" stroke="black" points="32.5001,-46.4132 29,-36.4133 25.5001,-46.4133 32.5001,-46.4132"/>
</g>
</g>
</svg>
