<?xml version="1.0" encoding="UTF-8" standalone="no"?>
<!DOCTYPE svg PUBLIC "-//W3C//DTD SVG 1.1//EN"
 "http://www.w3.org/Graphics/SVG/1.1/DTD/svg11.dtd">
<!-- Generated by graphviz version 2.26.3 (20100126.1600)
 -->
<!-- Title: call_graph Pages: 1 -->
<svg width="276pt" height="116pt"
 viewBox="0.00 0.00 276.00 116.00" xmlns="http://www.w3.org/2000/svg" xmlns:xlink="http://www.w3.org/1999/xlink">
<g id="graph1" class="graph" transform="scale(1 1) rotate(0) translate(4 112)">
<title>call_graph</title>
<polygon fill="white" stroke="white" points="-4,5 -4,-112 273,-112 273,5 -4,5"/>
<!-- program -->
<g id="node1" class="node"><title>program</title>
<ellipse fill="none" stroke="black" cx="117" cy="-90" rx="50.9221" ry="18"/>
<text text-anchor="middle" x="117" y="-85.9" font-family="Times Roman,serif" font-size="14.00">program</text>
</g>
<!-- fact -->
<g id="node3" class="node"><title>fact</title>
<ellipse fill="none" stroke="black" cx="29" cy="-18" rx="29.1851" ry="18"/>
<text text-anchor="middle" x="29" y="-13.9" font-family="Times Roman,serif" font-size="14.00">fact</text>
</g>
<!-- program&#45;&gt;fact -->
<g id="edge2" class="edge"><title>program&#45;&gt;fact</title>
<path fill="none" stroke="black" d="M96.5898,-73.3008C84.0599,-63.049 67.9063,-49.8324 54.5331,-38.8907"/>
<polygon fill="black" stroke="black" points="56.5789,-36.0424 46.623,-32.4188 52.1463,-41.4601 56.5789,-36.0424"/>
</g>
<!-- readln -->
<g id="node5" class="node"><title>readln</title>
<ellipse fill="none" stroke="black" cx="117" cy="-18" rx="41.1906" ry="18"/>
<text text-anchor="middle" x="117" y="-13.9" font-family="Times Roman,serif" font-size="14.00">readln</text>
</g>
<!-- program&#45;&gt;readln -->
<g id="edge4" class="edge"><title>program&#45;&gt;readln</title>
<path fill="none" stroke="black" d="M117,-71.8314C117,-64.131 117,-54.9743 117,-46.4166"/>
<polygon fill="black" stroke="black" points="120.5,-46.4132 117,-36.4133 113.5,-46.4133 120.5,-46.4132"/>
</g>
<!-- writeln -->
<g id="node7" class="node"><title>writeln</title>
<ellipse fill="none" stroke="black" cx="222" cy="-18" rx="45.8622" ry="18"/>
<text text-anchor="middle" x="222" y="-13.9" font-family="Times Roman,serif" font-size="14.00">writeln</text>
</g>
<!-- program&#45;&gt;writeln -->
<g id="edge6" class="edge"><title>program&#45;&gt;writeln</title>
<path fill="none" stroke="black" stroke-dasharray="5,2" d="M140.564,-73.8418C155.257,-63.7668 174.347,-50.6766 190.35,-39.7027"/>
<polygon fill="black" stroke="black" points="192.608,-42.3983 198.876,-33.8564 188.649,-36.6252 192.608,-42.3983"/>
</g>
</g>
</svg>
