<?xml version="1.0" encoding="UTF-8" standalone="no"?>
<!DOCTYPE svg PUBLIC "-//W3C//DTD SVG 1.1//EN"
 "http://www.w3.org/Graphics/SVG/1.1/DTD/svg11.dtd">
<!-- Generated by graphviz version 2.26.3 (20100126.1600)
 -->
<!-- Title: call_graph Pages: 1 -->
<svg width="290pt" height="116pt"
 viewBox="0.00 0.00 290.00 116.00" xmlns="http://www.w3.org/2000/svg" xmlns:xlink="http://www.w3.org/1999/xlink">
<g id="graph1" class="graph" transform="scale(1 1) rotate(0) translate(4 112)">
<title>call_graph</title>
<polygon fill="white" stroke="white" points="-4,5 -4,-112 287,-112 287,5 -4,5"/>
<!-- program -->
<g id="node1" class="node"><title>program</title>
<ellipse fill="none" stroke="black" cx="131" cy="-90" rx="50.9221" ry="18"/>
<text text-anchor="middle" x="131" y="-85.9" font-family="Times Roman,serif" font-size="14.00">program</text>
</g>
<!-- fib -->
<g id="node2" class="node"><title>fib</title>
<ellipse fill="none" stroke="black" cx="27" cy="-18" rx="27" ry="18"/>
<text text-anchor="middle" x="27" y="-13.9" font-family="Times Roman,serif" font-size="14.00">fib</text>
</g>
<!-- program&#45;&gt;fib -->
<g id="edge4" class="edge"><title>program&#45;&gt;fib</title>
<path fill="none" stroke="black" d="M107.66,-73.8418C91.7489,-62.8261 70.6309,-48.206 53.9945,-36.6885"/>
<polygon fill="black" stroke="black" points="55.9688,-33.7984 45.7546,-30.9839 51.9843,-39.5538 55.9688,-33.7984"/>
</g>
<!-- readln -->
<g id="node6" class="node"><title>readln</title>
<ellipse fill="none" stroke="black" cx="131" cy="-18" rx="41.1906" ry="18"/>
<text text-anchor="middle" x="131" y="-13.9" font-family="Times Roman,serif" font-size="14.00">readln</text>
</g>
<!-- program&#45;&gt;readln -->
<g id="edge6" class="edge"><title>program&#45;&gt;readln</title>
<path fill="none" stroke="black" d="M131,-71.8314C131,-64.131 131,-54.9743 131,-46.4166"/>
<polygon fill="black" stroke="black" points="134.5,-46.4132 131,-36.4133 127.5,-46.4133 134.5,-46.4132"/>
</g>
<!-- writeln -->
<g id="node8" class="node"><title>writeln</title>
<ellipse fill="none" stroke="black" cx="236" cy="-18" rx="45.8622" ry="18"/>
<text text-anchor="middle" x="236" y="-13.9" font-family="Times Roman,serif" font-size="14.00">writeln</text>
</g>
<!-- program&#45;&gt;writeln -->
<g id="edge8" class="edge"><title>program&#45;&gt;writeln</title>
<path fill="none" stroke="black" stroke-dasharray="5,2" d="M154.564,-73.8418C169.257,-63.7668 188.347,-50.6766 204.35,-39.7027"/>
<polygon fill="black" stroke="black" points="206.608,-42.3983 212.876,-33.8564 202.649,-36.6252 206.608,-42.3983"/>
</g>
<!-- fib&#45;&gt;fib -->
<g id="edge2" class="edge"><title>fib&#45;&gt;fib</title>
<path fill="none" stroke="black" d="M46.895,-30.4321C59.688,-33.6753 72,-29.5312 72,-18 72,-9.62183 65.5006,-5.14331 57.0395,-4.56444"/>
<polygon fill="black" stroke="black" points="56.5019,-1.10045 46.895,-5.56787 57.191,-8.06645 56.5019,-1.10045"/>
</g>
</g>
</svg>
