<?xml version="1.0" encoding="UTF-8" standalone="no"?>
<!DOCTYPE svg PUBLIC "-//W3C//DTD SVG 1.1//EN"
 "http://www.w3.org/Graphics/SVG/1.1/DTD/svg11.dtd">
<!-- Generated by graphviz version 2.26.3 (20100126.1600)
 -->
<!-- Title: call_graph Pages: 1 -->
<svg width="269pt" height="188pt"
 viewBox="0.00 0.00 269.00 188.00" xmlns="http://www.w3.org/2000/svg" xmlns:xlink="http://www.w3.org/1999/xlink">
<g id="graph1" class="graph" transform="scale(1 1) rotate(0) translate(4 184)">
<title>call_graph</title>
<polygon fill="white" stroke="white" points="-4,5 -4,-184 266,-184 266,5 -4,5"/>
<!-- program -->
<g id="node1" class="node"><title>program</title>
<ellipse fill="none" stroke="black" cx="153" cy="-162" rx="50.9221" ry="18"/>
<text text-anchor="middle" x="153" y="-157.9" font-family="Times Roman,serif" font-size="14.00">program</text>
</g>
<!-- hanoi -->
<g id="node2" class="node"><title>hanoi</title>
<ellipse fill="none" stroke="black" cx="87" cy="-90" rx="38.2185" ry="18"/>
<text text-anchor="middle" x="87" y="-85.9" font-family="Times Roman,serif" font-size="14.00">hanoi</text>
</g>
<!-- program&#45;&gt;hanoi -->
<g id="edge10" class="edge"><title>program&#45;&gt;hanoi</title>
<path fill="none" stroke="black" stroke-dasharray="5,2" d="M137.023,-144.571C128.715,-135.507 118.424,-124.281 109.34,-114.371"/>
<polygon fill="black" stroke="black" points="111.712,-111.779 102.375,-106.773 106.552,-116.51 111.712,-111.779"/>
</g>
<!-- readln -->
<g id="node11" class="node"><title>readln</title>
<ellipse fill="none" stroke="black" cx="220" cy="-90" rx="41.1906" ry="18"/>
<text text-anchor="middle" x="220" y="-85.9" font-family="Times Roman,serif" font-size="14.00">readln</text>
</g>
<!-- program&#45;&gt;readln -->
<g id="edge12" class="edge"><title>program&#45;&gt;readln</title>
<path fill="none" stroke="black" d="M169.219,-144.571C177.653,-135.507 188.1,-124.281 197.321,-114.371"/>
<polygon fill="black" stroke="black" points="200.142,-116.478 204.392,-106.773 195.017,-111.709 200.142,-116.478"/>
</g>
<!-- hanoi&#45;&gt;hanoi -->
<g id="edge2" class="edge"><title>hanoi&#45;&gt;hanoi</title>
<path fill="none" stroke="black" d="M122.273,-96.7496C133.812,-96.7147 143,-94.4648 143,-90 143,-87.0002 138.852,-85.0002 132.631,-84.0002"/>
<polygon fill="black" stroke="black" points="132.5,-80.4816 122.273,-83.2504 131.994,-87.4634 132.5,-80.4816"/>
</g>
<!-- hanoi&#45;&gt;hanoi -->
<g id="edge4" class="edge"><title>hanoi&#45;&gt;hanoi</title>
<path fill="none" stroke="black" stroke-dasharray="5,2" d="M115.864,-101.756C138.209,-106.153 161,-102.234 161,-90 161,-79.5817 144.473,-75.1934 125.768,-76.8353"/>
<polygon fill="black" stroke="black" points="125.271,-73.3706 115.864,-78.2435 126.257,-80.3009 125.271,-73.3706"/>
</g>
<!-- other -->
<g id="node6" class="node"><title>other</title>
<ellipse fill="none" stroke="black" cx="37" cy="-18" rx="37.0233" ry="18"/>
<text text-anchor="middle" x="37" y="-13.9" font-family="Times Roman,serif" font-size="14.00">other</text>
</g>
<!-- hanoi&#45;&gt;other -->
<g id="edge6" class="edge"><title>hanoi&#45;&gt;other</title>
<path fill="none" stroke="black" d="M74.8964,-72.5708C68.8776,-63.9038 61.4856,-53.2592 54.8331,-43.6796"/>
<polygon fill="black" stroke="black" points="57.5709,-41.486 48.9921,-35.2687 51.8213,-45.4788 57.5709,-41.486"/>
</g>
<!-- writeln -->
<g id="node8" class="node"><title>writeln</title>
<ellipse fill="none" stroke="black" cx="138" cy="-18" rx="45.8622" ry="18"/>
<text text-anchor="middle" x="138" y="-13.9" font-family="Times Roman,serif" font-size="14.00">writeln</text>
</g>
<!-- hanoi&#45;&gt;writeln -->
<g id="edge8" class="edge"><title>hanoi&#45;&gt;writeln</title>
<path fill="none" stroke="black" d="M99.3457,-72.5708C105.44,-63.9675 112.914,-53.4156 119.66,-43.8911"/>
<polygon fill="black" stroke="black" points="122.667,-45.7016 125.591,-35.5182 116.955,-41.6554 122.667,-45.7016"/>
</g>
</g>
</svg>
