<?xml version="1.0" encoding="UTF-8" standalone="no"?>
<!DOCTYPE svg PUBLIC "-//W3C//DTD SVG 1.1//EN"
 "http://www.w3.org/Graphics/SVG/1.1/DTD/svg11.dtd">
<!-- Generated by graphviz version 2.26.3 (20100126.1600)
 -->
<!-- Title: call_graph Pages: 1 -->
<svg width="290pt" height="116pt"
 viewBox="0.00 0.00 290.00 116.00" xmlns="http://www.w3.org/2000/svg" xmlns:xlink="http://www.w3.org/1999/xlink">
<g id="graph1" class="graph" transform="scale(1 1) rotate(0) translate(4 112)">
<title>call_graph</title>
<polygon fill="white" stroke="white" points="-4,5 -4,-112 287,-112 287,5 -4,5"/>
<!-- program -->
<g id="node1" class="node"><title>program</title>
<ellipse fill="none" stroke="black" cx="180" cy="-90" rx="50.9221" ry="18"/>
<text text-anchor="middle" x="180" y="-85.9" font-family="Times Roman,serif" font-size="14.00">program</text>
</g>
<!-- fact -->
<g id="node3" class="node"><title>fact</title>
<ellipse fill="none" stroke="black" cx="29" cy="-18" rx="29.1851" ry="18"/>
<text text-anchor="middle" x="29" y="-13.9" font-family="Times Roman,serif" font-size="14.00">fact</text>
</g>
<!-- program&#45;&gt;fact -->
<g id="edge2" class="edge"><title>program&#45;&gt;fact</title>
<path fill="none" stroke="black" d="M149.443,-75.4297C123.808,-63.2064 87.3045,-45.8008 61.2149,-33.3607"/>
<polygon fill="black" stroke="black" points="62.6463,-30.1658 52.1135,-29.021 59.6334,-36.4843 62.6463,-30.1658"/>
</g>
<!-- factSSA -->
<g id="node5" class="node"><title>factSSA</title>
<ellipse fill="none" stroke="black" cx="124" cy="-18" rx="48.1403" ry="18"/>
<text text-anchor="middle" x="124" y="-13.9" font-family="Times Roman,serif" font-size="14.00">factSSA</text>
</g>
<!-- program&#45;&gt;factSSA -->
<g id="edge4" class="edge"><title>program&#45;&gt;factSSA</title>
<path fill="none" stroke="black" d="M166.444,-72.5708C159.684,-63.8797 151.378,-53.2001 143.911,-43.5998"/>
<polygon fill="black" stroke="black" points="146.527,-41.263 137.625,-35.5182 141.002,-45.5606 146.527,-41.263"/>
</g>
<!-- writeln -->
<g id="node7" class="node"><title>writeln</title>
<ellipse fill="none" stroke="black" cx="236" cy="-18" rx="45.8622" ry="18"/>
<text text-anchor="middle" x="236" y="-13.9" font-family="Times Roman,serif" font-size="14.00">writeln</text>
</g>
<!-- program&#45;&gt;writeln -->
<g id="edge6" class="edge"><title>program&#45;&gt;writeln</title>
<path fill="none" stroke="black" d="M187.927,-72.2022C194.01,-63.223 202.417,-52.1934 210.566,-42.4331"/>
<polygon fill="black" stroke="black" points="213.43,-44.471 217.294,-34.6058 208.121,-39.9082 213.43,-44.471"/>
</g>
<!-- program&#45;&gt;writeln -->
<g id="edge8" class="edge"><title>program&#45;&gt;writeln</title>
<path fill="none" stroke="black" stroke-dasharray="5,2" d="M199.111,-72.937C206.653,-64.4043 215.063,-53.8875 222.037,-44.3472"/>
<polygon fill="black" stroke="black" points="225.062,-46.1322 227.973,-35.9453 219.344,-42.0932 225.062,-46.1322"/>
</g>
</g>
</svg>
