<?xml version="1.0" encoding="UTF-8" standalone="no"?>
<!DOCTYPE svg PUBLIC "-//W3C//DTD SVG 1.1//EN"
 "http://www.w3.org/Graphics/SVG/1.1/DTD/svg11.dtd">
<!-- Generated by graphviz version 2.26.3 (20100126.1600)
 -->
<!-- Title: call_graph Pages: 1 -->
<svg width="110pt" height="260pt"
 viewBox="0.00 0.00 110.00 260.00" xmlns="http://www.w3.org/2000/svg" xmlns:xlink="http://www.w3.org/1999/xlink">
<g id="graph1" class="graph" transform="scale(1 1) rotate(0) translate(4 256)">
<title>call_graph</title>
<polygon fill="white" stroke="white" points="-4,5 -4,-256 107,-256 107,5 -4,5"/>
<!-- program -->
<g id="node1" class="node"><title>program</title>
<ellipse fill="none" stroke="black" cx="51" cy="-234" rx="50.9221" ry="18"/>
<text text-anchor="middle" x="51" y="-229.9" font-family="Times Roman,serif" font-size="14.00">program</text>
</g>
<!-- many -->
<g id="node5" class="node"><title>many</title>
<ellipse fill="none" stroke="black" cx="51" cy="-162" rx="38.2185" ry="18"/>
<text text-anchor="middle" x="51" y="-157.9" font-family="Times Roman,serif" font-size="14.00">many</text>
</g>
<!-- program&#45;&gt;many -->
<g id="edge8" class="edge"><title>program&#45;&gt;many</title>
<path fill="none" stroke="black" stroke-dasharray="5,2" d="M51,-215.831C51,-208.131 51,-198.974 51,-190.417"/>
<polygon fill="black" stroke="black" points="54.5001,-190.413 51,-180.413 47.5001,-190.413 54.5001,-190.413"/>
</g>
<!-- ecrit -->
<g id="node2" class="node"><title>ecrit</title>
<ellipse fill="none" stroke="black" cx="51" cy="-90" rx="32.157" ry="18"/>
<text text-anchor="middle" x="51" y="-85.9" font-family="Times Roman,serif" font-size="14.00">ecrit</text>
</g>
<!-- writeln -->
<g id="node4" class="node"><title>writeln</title>
<ellipse fill="none" stroke="black" cx="51" cy="-18" rx="45.8622" ry="18"/>
<text text-anchor="middle" x="51" y="-13.9" font-family="Times Roman,serif" font-size="14.00">writeln</text>
</g>
<!-- ecrit&#45;&gt;writeln -->
<g id="edge2" class="edge"><title>ecrit&#45;&gt;writeln</title>
<path fill="none" stroke="black" stroke-dasharray="5,2" d="M51,-71.8314C51,-64.131 51,-54.9743 51,-46.4166"/>
<polygon fill="black" stroke="black" points="54.5001,-46.4132 51,-36.4133 47.5001,-46.4133 54.5001,-46.4132"/>
</g>
<!-- many&#45;&gt;ecrit -->
<g id="edge4" class="edge"><title>many&#45;&gt;ecrit</title>
<path fill="none" stroke="black" d="M45.0843,-144.202C44.2945,-136.327 44.0655,-126.875 44.3971,-118.085"/>
<polygon fill="black" stroke="black" points="47.9069,-118.053 45.0798,-107.843 40.9224,-117.588 47.9069,-118.053"/>
</g>
<!-- many&#45;&gt;ecrit -->
<g id="edge6" class="edge"><title>many&#45;&gt;ecrit</title>
<path fill="none" stroke="black" stroke-dasharray="5,2" d="M56.9157,-144.202C57.7055,-136.327 57.9345,-126.875 57.6029,-118.085"/>
<polygon fill="black" stroke="black" points="61.0776,-117.588 56.9202,-107.843 54.0931,-118.053 61.0776,-117.588"/>
</g>
</g>
</svg>
