<?xml version="1.0" encoding="UTF-8" standalone="no"?>
<!DOCTYPE svg PUBLIC "-//W3C//DTD SVG 1.1//EN"
 "http://www.w3.org/Graphics/SVG/1.1/DTD/svg11.dtd">
<!-- Generated by graphviz version 2.26.3 (20100126.1600)
 -->
<!-- Title: call_graph Pages: 1 -->
<svg width="349pt" height="332pt"
 viewBox="0.00 0.00 349.00 332.00" xmlns="http://www.w3.org/2000/svg" xmlns:xlink="http://www.w3.org/1999/xlink">
<g id="graph1" class="graph" transform="scale(1 1) rotate(0) translate(4 328)">
<title>call_graph</title>
<polygon fill="white" stroke="white" points="-4,5 -4,-328 346,-328 346,5 -4,5"/>
<!-- program -->
<g id="node1" class="node"><title>program</title>
<ellipse fill="none" stroke="black" cx="190" cy="-306" rx="50.9221" ry="18"/>
<text text-anchor="middle" x="190" y="-301.9" font-family="Times Roman,serif" font-size="14.00">program</text>
</g>
<!-- fib -->
<g id="node2" class="node"><title>fib</title>
<ellipse fill="none" stroke="black" cx="104" cy="-234" rx="27" ry="18"/>
<text text-anchor="middle" x="104" y="-229.9" font-family="Times Roman,serif" font-size="14.00">fib</text>
</g>
<!-- program&#45;&gt;fib -->
<g id="edge18" class="edge"><title>program&#45;&gt;fib</title>
<path fill="none" stroke="black" d="M170.054,-289.301C157.726,-278.98 141.81,-265.655 128.69,-254.671"/>
<polygon fill="black" stroke="black" points="130.854,-251.918 120.94,-248.182 126.36,-257.285 130.854,-251.918"/>
</g>
<!-- readln -->
<g id="node16" class="node"><title>readln</title>
<ellipse fill="none" stroke="black" cx="190" cy="-234" rx="41.1906" ry="18"/>
<text text-anchor="middle" x="190" y="-229.9" font-family="Times Roman,serif" font-size="14.00">readln</text>
</g>
<!-- program&#45;&gt;readln -->
<g id="edge20" class="edge"><title>program&#45;&gt;readln</title>
<path fill="none" stroke="black" d="M190,-287.831C190,-280.131 190,-270.974 190,-262.417"/>
<polygon fill="black" stroke="black" points="193.5,-262.413 190,-252.413 186.5,-262.413 193.5,-262.413"/>
</g>
<!-- writeln -->
<g id="node18" class="node"><title>writeln</title>
<ellipse fill="none" stroke="black" cx="295" cy="-234" rx="45.8622" ry="18"/>
<text text-anchor="middle" x="295" y="-229.9" font-family="Times Roman,serif" font-size="14.00">writeln</text>
</g>
<!-- program&#45;&gt;writeln -->
<g id="edge22" class="edge"><title>program&#45;&gt;writeln</title>
<path fill="none" stroke="black" stroke-dasharray="5,2" d="M213.564,-289.842C228.257,-279.767 247.347,-266.677 263.35,-255.703"/>
<polygon fill="black" stroke="black" points="265.608,-258.398 271.876,-249.856 261.649,-252.625 265.608,-258.398"/>
</g>
<!-- fib1 -->
<g id="node4" class="node"><title>fib1</title>
<ellipse fill="none" stroke="black" cx="29" cy="-162" rx="29.1851" ry="18"/>
<text text-anchor="middle" x="29" y="-157.9" font-family="Times Roman,serif" font-size="14.00">fib1</text>
</g>
<!-- fib&#45;&gt;fib1 -->
<g id="edge2" class="edge"><title>fib&#45;&gt;fib1</title>
<path fill="none" stroke="black" d="M88.46,-219.082C77.9714,-209.013 63.9441,-195.546 52.148,-184.222"/>
<polygon fill="black" stroke="black" points="54.4159,-181.548 44.7782,-177.147 49.5682,-186.597 54.4159,-181.548"/>
</g>
<!-- fib2 -->
<g id="node6" class="node"><title>fib2</title>
<ellipse fill="none" stroke="black" cx="48" cy="-90" rx="29.1851" ry="18"/>
<text text-anchor="middle" x="48" y="-85.9" font-family="Times Roman,serif" font-size="14.00">fib2</text>
</g>
<!-- fib&#45;&gt;fib2 -->
<g id="edge4" class="edge"><title>fib&#45;&gt;fib2</title>
<path fill="none" stroke="black" d="M102.272,-215.782C100.023,-197.14 95.116,-167.637 85,-144 80.5272,-133.549 73.9006,-123.02 67.4862,-114.071"/>
<polygon fill="black" stroke="black" points="70.2672,-111.945 61.4787,-106.028 64.6589,-116.134 70.2672,-111.945"/>
</g>
<!-- sum -->
<g id="node8" class="node"><title>sum</title>
<ellipse fill="none" stroke="black" cx="95" cy="-18" rx="30.7734" ry="18"/>
<text text-anchor="middle" x="95" y="-13.9" font-family="Times Roman,serif" font-size="14.00">sum</text>
</g>
<!-- fib&#45;&gt;sum -->
<g id="edge6" class="edge"><title>fib&#45;&gt;sum</title>
<path fill="none" stroke="black" stroke-dasharray="5,2" d="M104.968,-215.981C106.36,-186.03 108.315,-124.134 104,-72 103.294,-63.4753 101.973,-54.2703 100.555,-45.917"/>
<polygon fill="black" stroke="black" points="103.969,-45.1258 98.7474,-35.9069 97.0803,-46.3698 103.969,-45.1258"/>
</g>
<!-- fib1&#45;&gt;fib1 -->
<g id="edge8" class="edge"><title>fib1&#45;&gt;fib1</title>
<path fill="none" stroke="black" d="M50.2679,-174.547C63.4525,-177.573 76,-173.391 76,-162 76,-153.635 69.2331,-149.157 60.4163,-148.567"/>
<polygon fill="black" stroke="black" points="59.9258,-145.097 50.2679,-149.453 60.5342,-152.07 59.9258,-145.097"/>
</g>
<!-- fib1&#45;&gt;fib2 -->
<g id="edge10" class="edge"><title>fib1&#45;&gt;fib2</title>
<path fill="none" stroke="black" d="M27.8421,-143.831C29.2124,-135.599 31.6271,-125.701 34.4237,-116.651"/>
<polygon fill="black" stroke="black" points="37.8241,-117.52 37.708,-106.926 31.1921,-115.281 37.8241,-117.52"/>
</g>
<!-- fib2&#45;&gt;fib1 -->
<g id="edge12" class="edge"><title>fib2&#45;&gt;fib1</title>
<path fill="none" stroke="black" d="M49.1528,-108.199C47.7868,-116.395 45.3876,-126.236 42.6079,-135.247"/>
<polygon fill="black" stroke="black" points="39.2192,-134.343 39.3427,-144.937 45.8527,-136.578 39.2192,-134.343"/>
</g>
<!-- fib2&#45;&gt;fib2 -->
<g id="edge14" class="edge"><title>fib2&#45;&gt;fib2</title>
<path fill="none" stroke="black" d="M69.2679,-102.547C82.4525,-105.573 95,-101.391 95,-90 95,-81.635 88.2331,-77.1574 79.4163,-76.5672"/>
<polygon fill="black" stroke="black" points="78.9258,-73.0966 69.2679,-77.4525 79.5342,-80.0701 78.9258,-73.0966"/>
</g>
<!-- fib2&#45;&gt;sum -->
<g id="edge16" class="edge"><title>fib2&#45;&gt;sum</title>
<path fill="none" stroke="black" d="M58.9009,-73.3008C64.6312,-64.5224 71.7805,-53.5703 78.2015,-43.7339"/>
<polygon fill="black" stroke="black" points="81.2964,-45.3956 83.8319,-35.1086 75.4348,-41.5693 81.2964,-45.3956"/>
</g>
</g>
</svg>
