<?xml version="1.0" encoding="UTF-8" standalone="no"?>
<!DOCTYPE svg PUBLIC "-//W3C//DTD SVG 1.1//EN"
 "http://www.w3.org/Graphics/SVG/1.1/DTD/svg11.dtd">
<!-- Generated by graphviz version 2.26.3 (20100126.1600)
 -->
<!-- Title: call_graph Pages: 1 -->
<svg width="398pt" height="260pt"
 viewBox="0.00 0.00 398.00 260.00" xmlns="http://www.w3.org/2000/svg" xmlns:xlink="http://www.w3.org/1999/xlink">
<g id="graph1" class="graph" transform="scale(1 1) rotate(0) translate(4 256)">
<title>call_graph</title>
<polygon fill="white" stroke="white" points="-4,5 -4,-256 395,-256 395,5 -4,5"/>
<!-- program -->
<g id="node1" class="node"><title>program</title>
<ellipse fill="none" stroke="black" cx="214" cy="-234" rx="50.9221" ry="18"/>
<text text-anchor="middle" x="214" y="-229.9" font-family="Times Roman,serif" font-size="14.00">program</text>
</g>
<!-- affiche -->
<g id="node2" class="node"><title>affiche</title>
<ellipse fill="none" stroke="black" cx="58" cy="-162" rx="43.0827" ry="18"/>
<text text-anchor="middle" x="58" y="-157.9" font-family="Times Roman,serif" font-size="14.00">affiche</text>
</g>
<!-- program&#45;&gt;affiche -->
<g id="edge22" class="edge"><title>program&#45;&gt;affiche</title>
<path fill="none" stroke="black" stroke-dasharray="5,2" d="M182.806,-219.603C157.94,-208.126 123.004,-192.002 96.416,-179.73"/>
<polygon fill="black" stroke="black" points="97.5787,-176.412 87.0324,-175.4 94.6453,-182.768 97.5787,-176.412"/>
</g>
<!-- lire -->
<g id="node5" class="node"><title>lire</title>
<ellipse fill="none" stroke="black" cx="266" cy="-162" rx="27" ry="18"/>
<text text-anchor="middle" x="266" y="-157.9" font-family="Times Roman,serif" font-size="14.00">lire</text>
</g>
<!-- program&#45;&gt;lire -->
<g id="edge24" class="edge"><title>program&#45;&gt;lire</title>
<path fill="none" stroke="black" d="M226.854,-216.202C233.274,-207.313 241.146,-196.414 248.142,-186.726"/>
<polygon fill="black" stroke="black" points="250.989,-188.762 254.007,-178.606 245.315,-184.663 250.989,-188.762"/>
</g>
<!-- readln -->
<g id="node9" class="node"><title>readln</title>
<ellipse fill="none" stroke="black" cx="349" cy="-90" rx="41.1906" ry="18"/>
<text text-anchor="middle" x="349" y="-85.9" font-family="Times Roman,serif" font-size="14.00">readln</text>
</g>
<!-- program&#45;&gt;readln -->
<g id="edge28" class="edge"><title>program&#45;&gt;readln</title>
<path fill="none" stroke="black" d="M245.837,-219.798C264.002,-210.485 286.224,-196.906 302,-180 318.898,-161.892 331.405,-136.549 339.251,-117.369"/>
<polygon fill="black" stroke="black" points="342.544,-118.559 342.928,-107.971 336.025,-116.008 342.544,-118.559"/>
</g>
<!-- pow -->
<g id="node17" class="node"><title>pow</title>
<ellipse fill="none" stroke="black" cx="162" cy="-162" rx="31.9646" ry="18"/>
<text text-anchor="middle" x="162" y="-157.9" font-family="Times Roman,serif" font-size="14.00">pow</text>
</g>
<!-- program&#45;&gt;pow -->
<g id="edge26" class="edge"><title>program&#45;&gt;pow</title>
<path fill="none" stroke="black" d="M201.146,-216.202C194.883,-207.53 187.238,-196.946 180.373,-187.439"/>
<polygon fill="black" stroke="black" points="183.04,-185.155 174.348,-179.097 177.366,-189.253 183.04,-185.155"/>
</g>
<!-- writeln -->
<g id="node4" class="node"><title>writeln</title>
<ellipse fill="none" stroke="black" cx="46" cy="-90" rx="45.8622" ry="18"/>
<text text-anchor="middle" x="46" y="-85.9" font-family="Times Roman,serif" font-size="14.00">writeln</text>
</g>
<!-- affiche&#45;&gt;writeln -->
<g id="edge2" class="edge"><title>affiche&#45;&gt;writeln</title>
<path fill="none" stroke="black" d="M54.9719,-143.831C53.6885,-136.131 52.1624,-126.974 50.7361,-118.417"/>
<polygon fill="black" stroke="black" points="54.1653,-117.702 49.0689,-108.413 47.2606,-118.853 54.1653,-117.702"/>
</g>
<!-- matrix -->
<g id="node7" class="node"><title>matrix</title>
<ellipse fill="none" stroke="black" cx="280" cy="-18" rx="43.0827" ry="18"/>
<text text-anchor="middle" x="280" y="-13.9" font-family="Times Roman,serif" font-size="14.00">matrix</text>
</g>
<!-- lire&#45;&gt;matrix -->
<g id="edge4" class="edge"><title>lire&#45;&gt;matrix</title>
<path fill="none" stroke="black" d="M267.773,-143.762C270.161,-119.201 274.434,-75.2474 277.243,-46.3541"/>
<polygon fill="black" stroke="black" points="280.757,-46.3814 278.241,-36.0896 273.79,-45.704 280.757,-46.3814"/>
</g>
<!-- lire&#45;&gt;readln -->
<g id="edge6" class="edge"><title>lire&#45;&gt;readln</title>
<path fill="none" stroke="black" d="M282.796,-147.43C294.172,-137.561 309.442,-124.315 322.45,-113.032"/>
<polygon fill="black" stroke="black" points="324.941,-115.504 330.202,-106.307 320.354,-110.216 324.941,-115.504"/>
</g>
<!-- set -->
<g id="node11" class="node"><title>set</title>
<ellipse fill="none" stroke="black" cx="192" cy="-18" rx="27" ry="18"/>
<text text-anchor="middle" x="192" y="-13.9" font-family="Times Roman,serif" font-size="14.00">set</text>
</g>
<!-- lire&#45;&gt;set -->
<g id="edge8" class="edge"><title>lire&#45;&gt;set</title>
<path fill="none" stroke="black" d="M258.139,-144.555C249.795,-126.281 236.04,-96.8385 223,-72 218.077,-62.6232 212.382,-52.5148 207.227,-43.608"/>
<polygon fill="black" stroke="black" points="210.172,-41.7106 202.105,-34.8422 204.128,-45.2421 210.172,-41.7106"/>
</g>
<!-- matmult -->
<g id="node12" class="node"><title>matmult</title>
<ellipse fill="none" stroke="black" cx="162" cy="-90" rx="52.1162" ry="18"/>
<text text-anchor="middle" x="162" y="-85.9" font-family="Times Roman,serif" font-size="14.00">matmult</text>
</g>
<!-- matmult&#45;&gt;matrix -->
<g id="edge12" class="edge"><title>matmult&#45;&gt;matrix</title>
<path fill="none" stroke="black" d="M187.896,-74.1993C205.153,-63.6694 227.997,-49.7305 246.617,-38.3692"/>
<polygon fill="black" stroke="black" points="248.662,-41.2215 255.376,-33.0251 245.016,-35.246 248.662,-41.2215"/>
</g>
<!-- matmult&#45;&gt;set -->
<g id="edge14" class="edge"><title>matmult&#45;&gt;set</title>
<path fill="none" stroke="black" d="M169.57,-71.8314C172.987,-63.6323 177.091,-53.7824 180.849,-44.7624"/>
<polygon fill="black" stroke="black" points="184.127,-45.9947 184.743,-35.4177 177.666,-43.3023 184.127,-45.9947"/>
</g>
<!-- get -->
<g id="node14" class="node"><title>get</title>
<ellipse fill="none" stroke="black" cx="120" cy="-18" rx="27.1004" ry="18"/>
<text text-anchor="middle" x="120" y="-13.9" font-family="Times Roman,serif" font-size="14.00">get</text>
</g>
<!-- matmult&#45;&gt;get -->
<g id="edge10" class="edge"><title>matmult&#45;&gt;get</title>
<path fill="none" stroke="black" d="M151.618,-72.2022C146.662,-63.7071 140.636,-53.3767 135.18,-44.0223"/>
<polygon fill="black" stroke="black" points="138.035,-41.9715 129.973,-35.0972 131.989,-45.4986 138.035,-41.9715"/>
</g>
<!-- pow&#45;&gt;matmult -->
<g id="edge16" class="edge"><title>pow&#45;&gt;matmult</title>
<path fill="none" stroke="black" d="M156.084,-144.202C155.3,-136.386 155.069,-127.017 155.39,-118.284"/>
<polygon fill="black" stroke="black" points="158.896,-118.3 156.055,-108.093 151.911,-117.844 158.896,-118.3"/>
</g>
<!-- pow&#45;&gt;matmult -->
<g id="edge18" class="edge"><title>pow&#45;&gt;matmult</title>
<path fill="none" stroke="black" stroke-dasharray="5,2" d="M167.916,-144.202C168.7,-136.386 168.931,-127.017 168.61,-118.284"/>
<polygon fill="black" stroke="black" points="172.089,-117.844 167.945,-108.093 165.104,-118.3 172.089,-117.844"/>
</g>
<!-- pow&#45;&gt;pow -->
<g id="edge20" class="edge"><title>pow&#45;&gt;pow</title>
<path fill="none" stroke="black" d="M184.885,-174.603C198.816,-177.521 212,-173.32 212,-162 212,-153.51 204.584,-149.024 194.999,-148.543"/>
<polygon fill="black" stroke="black" points="194.555,-145.068 184.885,-149.397 195.144,-152.043 194.555,-145.068"/>
</g>
</g>
</svg>
