<?xml version="1.0" encoding="UTF-8" standalone="no"?>
<!DOCTYPE svg PUBLIC "-//W3C//DTD SVG 1.1//EN"
 "http://www.w3.org/Graphics/SVG/1.1/DTD/svg11.dtd">
<!-- Generated by graphviz version 2.26.3 (20100126.1600)
 -->
<!-- Title: call_graph Pages: 1 -->
<svg width="282pt" height="188pt"
 viewBox="0.00 0.00 282.00 188.00" xmlns="http://www.w3.org/2000/svg" xmlns:xlink="http://www.w3.org/1999/xlink">
<g id="graph1" class="graph" transform="scale(1 1) rotate(0) translate(4 184)">
<title>call_graph</title>
<polygon fill="white" stroke="white" points="-4,5 -4,-184 279,-184 279,5 -4,5"/>
<!-- program -->
<g id="node1" class="node"><title>program</title>
<ellipse fill="none" stroke="black" cx="123" cy="-162" rx="50.9221" ry="18"/>
<text text-anchor="middle" x="123" y="-157.9" font-family="Times Roman,serif" font-size="14.00">program</text>
</g>
<!-- prod -->
<g id="node2" class="node"><title>prod</title>
<ellipse fill="none" stroke="black" cx="32" cy="-90" rx="32.157" ry="18"/>
<text text-anchor="middle" x="32" y="-85.9" font-family="Times Roman,serif" font-size="14.00">prod</text>
</g>
<!-- program&#45;&gt;prod -->
<g id="edge4" class="edge"><title>program&#45;&gt;prod</title>
<path fill="none" stroke="black" d="M101.894,-145.301C89.1108,-135.187 72.6804,-122.187 58.962,-111.333"/>
<polygon fill="black" stroke="black" points="60.8416,-108.357 50.8277,-104.897 56.4982,-113.846 60.8416,-108.357"/>
</g>
<!-- readln -->
<g id="node7" class="node"><title>readln</title>
<ellipse fill="none" stroke="black" cx="123" cy="-90" rx="41.1906" ry="18"/>
<text text-anchor="middle" x="123" y="-85.9" font-family="Times Roman,serif" font-size="14.00">readln</text>
</g>
<!-- program&#45;&gt;readln -->
<g id="edge6" class="edge"><title>program&#45;&gt;readln</title>
<path fill="none" stroke="black" d="M123,-143.831C123,-136.131 123,-126.974 123,-118.417"/>
<polygon fill="black" stroke="black" points="126.5,-118.413 123,-108.413 119.5,-118.413 126.5,-118.413"/>
</g>
<!-- writeln -->
<g id="node9" class="node"><title>writeln</title>
<ellipse fill="none" stroke="black" cx="228" cy="-90" rx="45.8622" ry="18"/>
<text text-anchor="middle" x="228" y="-85.9" font-family="Times Roman,serif" font-size="14.00">writeln</text>
</g>
<!-- program&#45;&gt;writeln -->
<g id="edge8" class="edge"><title>program&#45;&gt;writeln</title>
<path fill="none" stroke="black" d="M146.564,-145.842C161.257,-135.767 180.347,-122.677 196.35,-111.703"/>
<polygon fill="black" stroke="black" points="198.608,-114.398 204.876,-105.856 194.649,-108.625 198.608,-114.398"/>
</g>
<!-- odd -->
<g id="node4" class="node"><title>odd</title>
<ellipse fill="none" stroke="black" cx="32" cy="-18" rx="27.9903" ry="18"/>
<text text-anchor="middle" x="32" y="-13.9" font-family="Times Roman,serif" font-size="14.00">odd</text>
</g>
<!-- prod&#45;&gt;odd -->
<g id="edge2" class="edge"><title>prod&#45;&gt;odd</title>
<path fill="none" stroke="black" d="M32,-71.8314C32,-64.131 32,-54.9743 32,-46.4166"/>
<polygon fill="black" stroke="black" points="35.5001,-46.4132 32,-36.4133 28.5001,-46.4133 35.5001,-46.4132"/>
</g>
</g>
</svg>
