<?xml version="1.0" encoding="UTF-8" standalone="no"?>
<!DOCTYPE svg PUBLIC "-//W3C//DTD SVG 1.1//EN"
 "http://www.w3.org/Graphics/SVG/1.1/DTD/svg11.dtd">
<!-- Generated by graphviz version 2.26.3 (20100126.1600)
 -->
<!-- Title: call_graph Pages: 1 -->
<svg width="300pt" height="116pt"
 viewBox="0.00 0.00 300.00 116.00" xmlns="http://www.w3.org/2000/svg" xmlns:xlink="http://www.w3.org/1999/xlink">
<g id="graph1" class="graph" transform="scale(1 1) rotate(0) translate(4 112)">
<title>call_graph</title>
<polygon fill="white" stroke="white" points="-4,5 -4,-112 297,-112 297,5 -4,5"/>
<!-- program -->
<g id="node1" class="node"><title>program</title>
<ellipse fill="none" stroke="black" cx="141" cy="-90" rx="50.9221" ry="18"/>
<text text-anchor="middle" x="141" y="-85.9" font-family="Times Roman,serif" font-size="14.00">program</text>
</g>
<!-- power -->
<g id="node3" class="node"><title>power</title>
<ellipse fill="none" stroke="black" cx="41" cy="-18" rx="41.1906" ry="18"/>
<text text-anchor="middle" x="41" y="-13.9" font-family="Times Roman,serif" font-size="14.00">power</text>
</g>
<!-- program&#45;&gt;power -->
<g id="edge2" class="edge"><title>program&#45;&gt;power</title>
<path fill="none" stroke="black" d="M118.308,-73.6621C104.339,-63.6039 86.2666,-50.5919 71.1085,-39.6781"/>
<polygon fill="black" stroke="black" points="72.7339,-36.5356 62.5735,-33.5329 68.6438,-42.2164 72.7339,-36.5356"/>
</g>
<!-- readln -->
<g id="node5" class="node"><title>readln</title>
<ellipse fill="none" stroke="black" cx="141" cy="-18" rx="41.1906" ry="18"/>
<text text-anchor="middle" x="141" y="-13.9" font-family="Times Roman,serif" font-size="14.00">readln</text>
</g>
<!-- program&#45;&gt;readln -->
<g id="edge4" class="edge"><title>program&#45;&gt;readln</title>
<path fill="none" stroke="black" d="M141,-71.8314C141,-64.131 141,-54.9743 141,-46.4166"/>
<polygon fill="black" stroke="black" points="144.5,-46.4132 141,-36.4133 137.5,-46.4133 144.5,-46.4132"/>
</g>
<!-- writeln -->
<g id="node7" class="node"><title>writeln</title>
<ellipse fill="none" stroke="black" cx="246" cy="-18" rx="45.8622" ry="18"/>
<text text-anchor="middle" x="246" y="-13.9" font-family="Times Roman,serif" font-size="14.00">writeln</text>
</g>
<!-- program&#45;&gt;writeln -->
<g id="edge6" class="edge"><title>program&#45;&gt;writeln</title>
<path fill="none" stroke="black" stroke-dasharray="5,2" d="M164.564,-73.8418C179.257,-63.7668 198.347,-50.6766 214.35,-39.7027"/>
<polygon fill="black" stroke="black" points="216.608,-42.3983 222.876,-33.8564 212.649,-36.6252 216.608,-42.3983"/>
</g>
</g>
</svg>
