<?xml version="1.0" encoding="UTF-8" standalone="no"?>
<!DOCTYPE svg PUBLIC "-//W3C//DTD SVG 1.1//EN"
 "http://www.w3.org/Graphics/SVG/1.1/DTD/svg11.dtd">
<!-- Generated by graphviz version 2.26.3 (20100126.1600)
 -->
<!-- Title: call_graph Pages: 1 -->
<svg width="110pt" height="116pt"
 viewBox="0.00 0.00 110.00 116.00" xmlns="http://www.w3.org/2000/svg" xmlns:xlink="http://www.w3.org/1999/xlink">
<g id="graph1" class="graph" transform="scale(1 1) rotate(0) translate(4 112)">
<title>call_graph</title>
<polygon fill="white" stroke="white" points="-4,5 -4,-112 107,-112 107,5 -4,5"/>
<!-- program -->
<g id="node1" class="node"><title>program</title>
<ellipse fill="none" stroke="black" cx="51" cy="-90" rx="50.9221" ry="18"/>
<text text-anchor="middle" x="51" y="-85.9" font-family="Times Roman,serif" font-size="14.00">program</text>
</g>
<!-- writeln -->
<g id="node3" class="node"><title>writeln</title>
<ellipse fill="none" stroke="black" cx="51" cy="-18" rx="45.8622" ry="18"/>
<text text-anchor="middle" x="51" y="-13.9" font-family="Times Roman,serif" font-size="14.00">writeln</text>
</g>
<!-- program&#45;&gt;writeln -->
<g id="edge2" class="edge"><title>program&#45;&gt;writeln</title>
<path fill="none" stroke="black" d="M45.0476,-71.8314C44.2856,-64.0125 44.0696,-54.6923 44.3995,-46.0221"/>
<polygon fill="black" stroke="black" points="47.9004,-46.1239 45.0727,-35.9134 40.9159,-45.6587 47.9004,-46.1239"/>
</g>
<!-- program&#45;&gt;writeln -->
<g id="edge4" class="edge"><title>program&#45;&gt;writeln</title>
<path fill="none" stroke="black" stroke-dasharray="5,2" d="M56.9524,-71.8314C57.7144,-64.0125 57.9304,-54.6923 57.6005,-46.0221"/>
<polygon fill="black" stroke="black" points="61.0841,-45.6587 56.9273,-35.9134 54.0996,-46.1239 61.0841,-45.6587"/>
</g>
</g>
</svg>
