<?xml version="1.0" encoding="UTF-8" standalone="no"?>
<!DOCTYPE svg PUBLIC "-//W3C//DTD SVG 1.1//EN"
 "http://www.w3.org/Graphics/SVG/1.1/DTD/svg11.dtd">
<!-- Generated by graphviz version 2.26.3 (20100126.1600)
 -->
<!-- Title: call_graph Pages: 1 -->
<svg width="208pt" height="260pt"
 viewBox="0.00 0.00 208.00 260.00" xmlns="http://www.w3.org/2000/svg" xmlns:xlink="http://www.w3.org/1999/xlink">
<g id="graph1" class="graph" transform="scale(1 1) rotate(0) translate(4 256)">
<title>call_graph</title>
<polygon fill="white" stroke="white" points="-4,5 -4,-256 205,-256 205,5 -4,5"/>
<!-- program -->
<g id="node1" class="node"><title>program</title>
<ellipse fill="none" stroke="black" cx="95" cy="-234" rx="50.9221" ry="18"/>
<text text-anchor="middle" x="95" y="-229.9" font-family="Times Roman,serif" font-size="14.00">program</text>
</g>
<!-- readln -->
<g id="node9" class="node"><title>readln</title>
<ellipse fill="none" stroke="black" cx="52" cy="-162" rx="41.1906" ry="18"/>
<text text-anchor="middle" x="52" y="-157.9" font-family="Times Roman,serif" font-size="14.00">readln</text>
</g>
<!-- program&#45;&gt;readln -->
<g id="edge8" class="edge"><title>program&#45;&gt;readln</title>
<path fill="none" stroke="black" d="M84.3708,-216.202C79.3719,-207.832 73.309,-197.68 67.7879,-188.436"/>
<polygon fill="black" stroke="black" points="70.6393,-186.384 62.5069,-179.593 64.6295,-189.973 70.6393,-186.384"/>
</g>
<!-- try -->
<g id="node11" class="node"><title>try</title>
<ellipse fill="none" stroke="black" cx="138" cy="-162" rx="27" ry="18"/>
<text text-anchor="middle" x="138" y="-157.9" font-family="Times Roman,serif" font-size="14.00">try</text>
</g>
<!-- program&#45;&gt;try -->
<g id="edge10" class="edge"><title>program&#45;&gt;try</title>
<path fill="none" stroke="black" stroke-dasharray="5,2" d="M105.629,-216.202C110.756,-207.619 117.001,-197.161 122.633,-187.73"/>
<polygon fill="black" stroke="black" points="125.667,-189.477 127.789,-179.097 119.657,-185.888 125.667,-189.477"/>
</g>
<!-- printboard -->
<g id="node2" class="node"><title>printboard</title>
<ellipse fill="none" stroke="black" cx="138" cy="-90" rx="61.8445" ry="18"/>
<text text-anchor="middle" x="138" y="-85.9" font-family="Times Roman,serif" font-size="14.00">printboard</text>
</g>
<!-- write -->
<g id="node4" class="node"><title>write</title>
<ellipse fill="none" stroke="black" cx="37" cy="-18" rx="36.8288" ry="18"/>
<text text-anchor="middle" x="37" y="-13.9" font-family="Times Roman,serif" font-size="14.00">write</text>
</g>
<!-- printboard&#45;&gt;write -->
<g id="edge2" class="edge"><title>printboard&#45;&gt;write</title>
<path fill="none" stroke="black" d="M114.575,-73.3008C100.119,-62.9958 81.4612,-49.6951 66.0662,-38.7205"/>
<polygon fill="black" stroke="black" points="68.0711,-35.8514 57.8966,-32.8966 64.0077,-41.5514 68.0711,-35.8514"/>
</g>
<!-- writeln -->
<g id="node6" class="node"><title>writeln</title>
<ellipse fill="none" stroke="black" cx="138" cy="-18" rx="45.8622" ry="18"/>
<text text-anchor="middle" x="138" y="-13.9" font-family="Times Roman,serif" font-size="14.00">writeln</text>
</g>
<!-- printboard&#45;&gt;writeln -->
<g id="edge4" class="edge"><title>printboard&#45;&gt;writeln</title>
<path fill="none" stroke="black" d="M132.048,-71.8314C131.286,-64.0125 131.07,-54.6923 131.4,-46.0221"/>
<polygon fill="black" stroke="black" points="134.9,-46.1239 132.073,-35.9134 127.916,-45.6587 134.9,-46.1239"/>
</g>
<!-- printboard&#45;&gt;writeln -->
<g id="edge6" class="edge"><title>printboard&#45;&gt;writeln</title>
<path fill="none" stroke="black" stroke-dasharray="5,2" d="M143.952,-71.8314C144.714,-64.0125 144.93,-54.6923 144.6,-46.0221"/>
<polygon fill="black" stroke="black" points="148.084,-45.6587 143.927,-35.9134 141.1,-46.1239 148.084,-45.6587"/>
</g>
<!-- try&#45;&gt;printboard -->
<g id="edge12" class="edge"><title>try&#45;&gt;printboard</title>
<path fill="none" stroke="black" stroke-dasharray="5,2" d="M138,-143.831C138,-136.131 138,-126.974 138,-118.417"/>
<polygon fill="black" stroke="black" points="141.5,-118.413 138,-108.413 134.5,-118.413 141.5,-118.413"/>
</g>
<!-- try&#45;&gt;try -->
<g id="edge14" class="edge"><title>try&#45;&gt;try</title>
<path fill="none" stroke="black" d="M157.895,-174.432C170.688,-177.675 183,-173.531 183,-162 183,-153.622 176.501,-149.143 168.039,-148.564"/>
<polygon fill="black" stroke="black" points="167.502,-145.1 157.895,-149.568 168.191,-152.066 167.502,-145.1"/>
</g>
</g>
</svg>
