<?xml version="1.0" encoding="UTF-8" standalone="no"?>
<!DOCTYPE svg PUBLIC "-//W3C//DTD SVG 1.1//EN"
 "http://www.w3.org/Graphics/SVG/1.1/DTD/svg11.dtd">
<!-- Generated by graphviz version 2.26.3 (20100126.1600)
 -->
<!-- Title: call_graph Pages: 1 -->
<svg width="200pt" height="188pt"
 viewBox="0.00 0.00 200.00 188.00" xmlns="http://www.w3.org/2000/svg" xmlns:xlink="http://www.w3.org/1999/xlink">
<g id="graph1" class="graph" transform="scale(1 1) rotate(0) translate(4 184)">
<title>call_graph</title>
<polygon fill="white" stroke="white" points="-4,5 -4,-184 197,-184 197,5 -4,5"/>
<!-- program -->
<g id="node1" class="node"><title>program</title>
<ellipse fill="none" stroke="black" cx="93" cy="-162" rx="50.9221" ry="18"/>
<text text-anchor="middle" x="93" y="-157.9" font-family="Times Roman,serif" font-size="14.00">program</text>
</g>
<!-- sieve -->
<g id="node3" class="node"><title>sieve</title>
<ellipse fill="none" stroke="black" cx="93" cy="-90" rx="36.1339" ry="18"/>
<text text-anchor="middle" x="93" y="-85.9" font-family="Times Roman,serif" font-size="14.00">sieve</text>
</g>
<!-- program&#45;&gt;sieve -->
<g id="edge2" class="edge"><title>program&#45;&gt;sieve</title>
<path fill="none" stroke="black" stroke-dasharray="5,2" d="M93,-143.831C93,-136.131 93,-126.974 93,-118.417"/>
<polygon fill="black" stroke="black" points="96.5001,-118.413 93,-108.413 89.5001,-118.413 96.5001,-118.413"/>
</g>
<!-- readln -->
<g id="node5" class="node"><title>readln</title>
<ellipse fill="none" stroke="black" cx="41" cy="-18" rx="41.1906" ry="18"/>
<text text-anchor="middle" x="41" y="-13.9" font-family="Times Roman,serif" font-size="14.00">readln</text>
</g>
<!-- sieve&#45;&gt;readln -->
<g id="edge4" class="edge"><title>sieve&#45;&gt;readln</title>
<path fill="none" stroke="black" d="M80.6767,-72.937C74.3584,-64.1886 66.5338,-53.3545 59.5074,-43.6256"/>
<polygon fill="black" stroke="black" points="62.2884,-41.4983 53.596,-35.4407 56.6136,-45.5967 62.2884,-41.4983"/>
</g>
<!-- writeln -->
<g id="node7" class="node"><title>writeln</title>
<ellipse fill="none" stroke="black" cx="146" cy="-18" rx="45.8622" ry="18"/>
<text text-anchor="middle" x="146" y="-13.9" font-family="Times Roman,serif" font-size="14.00">writeln</text>
</g>
<!-- sieve&#45;&gt;writeln -->
<g id="edge6" class="edge"><title>sieve&#45;&gt;writeln</title>
<path fill="none" stroke="black" d="M105.56,-72.937C112,-64.1886 119.975,-53.3545 127.137,-43.6256"/>
<polygon fill="black" stroke="black" points="130.052,-45.5689 133.162,-35.4407 124.415,-41.4192 130.052,-45.5689"/>
</g>
</g>
</svg>
