<?xml version="1.0" encoding="UTF-8" standalone="no"?>
<!DOCTYPE svg PUBLIC "-//W3C//DTD SVG 1.1//EN"
 "http://www.w3.org/Graphics/SVG/1.1/DTD/svg11.dtd">
<!-- Generated by graphviz version 2.26.3 (20100126.1600)
 -->
<!-- Title: call_graph Pages: 1 -->
<svg width="227pt" height="188pt"
 viewBox="0.00 0.00 227.00 188.00" xmlns="http://www.w3.org/2000/svg" xmlns:xlink="http://www.w3.org/1999/xlink">
<g id="graph1" class="graph" transform="scale(1 1) rotate(0) translate(4 184)">
<title>call_graph</title>
<polygon fill="white" stroke="white" points="-4,5 -4,-184 224,-184 224,5 -4,5"/>
<!-- program -->
<g id="node1" class="node"><title>program</title>
<ellipse fill="none" stroke="black" cx="116" cy="-162" rx="50.9221" ry="18"/>
<text text-anchor="middle" x="116" y="-157.9" font-family="Times Roman,serif" font-size="14.00">program</text>
</g>
<!-- artificial -->
<g id="node2" class="node"><title>artificial</title>
<ellipse fill="none" stroke="black" cx="60" cy="-90" rx="48.8383" ry="18"/>
<text text-anchor="middle" x="60" y="-85.9" font-family="Times Roman,serif" font-size="14.00">artificial</text>
</g>
<!-- program&#45;&gt;artificial -->
<g id="edge4" class="edge"><title>program&#45;&gt;artificial</title>
<path fill="none" stroke="black" d="M102.444,-144.571C95.6842,-135.88 87.3778,-125.2 79.911,-115.6"/>
<polygon fill="black" stroke="black" points="82.5275,-113.263 73.6253,-107.518 77.002,-117.561 82.5275,-113.263"/>
</g>
<!-- writeln -->
<g id="node7" class="node"><title>writeln</title>
<ellipse fill="none" stroke="black" cx="173" cy="-90" rx="45.8622" ry="18"/>
<text text-anchor="middle" x="173" y="-85.9" font-family="Times Roman,serif" font-size="14.00">writeln</text>
</g>
<!-- program&#45;&gt;writeln -->
<g id="edge6" class="edge"><title>program&#45;&gt;writeln</title>
<path fill="none" stroke="black" stroke-dasharray="5,2" d="M129.798,-144.571C136.73,-135.815 145.259,-125.042 152.902,-115.387"/>
<polygon fill="black" stroke="black" points="155.866,-117.282 159.329,-107.269 150.378,-112.937 155.866,-117.282"/>
</g>
<!-- increment -->
<g id="node4" class="node"><title>increment</title>
<ellipse fill="none" stroke="black" cx="60" cy="-18" rx="59.7599" ry="18"/>
<text text-anchor="middle" x="60" y="-13.9" font-family="Times Roman,serif" font-size="14.00">increment</text>
</g>
<!-- artificial&#45;&gt;increment -->
<g id="edge2" class="edge"><title>artificial&#45;&gt;increment</title>
<path fill="none" stroke="black" d="M60,-71.8314C60,-64.131 60,-54.9743 60,-46.4166"/>
<polygon fill="black" stroke="black" points="63.5001,-46.4132 60,-36.4133 56.5001,-46.4133 63.5001,-46.4132"/>
</g>
</g>
</svg>
