<?xml version="1.0" encoding="UTF-8" standalone="no"?>
<!DOCTYPE svg PUBLIC "-//W3C//DTD SVG 1.1//EN"
 "http://www.w3.org/Graphics/SVG/1.1/DTD/svg11.dtd">
<!-- Generated by graphviz version 2.26.3 (20100126.1600)
 -->
<!-- Title: call_graph Pages: 1 -->
<svg width="182pt" height="116pt"
 viewBox="0.00 0.00 182.00 116.00" xmlns="http://www.w3.org/2000/svg" xmlns:xlink="http://www.w3.org/1999/xlink">
<g id="graph1" class="graph" transform="scale(1 1) rotate(0) translate(4 112)">
<title>call_graph</title>
<polygon fill="white" stroke="white" points="-4,5 -4,-112 179,-112 179,5 -4,5"/>
<!-- program -->
<g id="node1" class="node"><title>program</title>
<ellipse fill="none" stroke="black" cx="80" cy="-90" rx="50.9221" ry="18"/>
<text text-anchor="middle" x="80" y="-85.9" font-family="Times Roman,serif" font-size="14.00">program</text>
</g>
<!-- succ -->
<g id="node3" class="node"><title>succ</title>
<ellipse fill="none" stroke="black" cx="32" cy="-18" rx="31.9646" ry="18"/>
<text text-anchor="middle" x="32" y="-13.9" font-family="Times Roman,serif" font-size="14.00">succ</text>
</g>
<!-- program&#45;&gt;succ -->
<g id="edge2" class="edge"><title>program&#45;&gt;succ</title>
<path fill="none" stroke="black" d="M68.1348,-72.2022C62.3534,-63.5301 55.297,-52.9455 48.9593,-43.4389"/>
<polygon fill="black" stroke="black" points="51.8574,-41.4763 43.3981,-35.0972 46.033,-45.3592 51.8574,-41.4763"/>
</g>
<!-- writeln -->
<g id="node5" class="node"><title>writeln</title>
<ellipse fill="none" stroke="black" cx="128" cy="-18" rx="45.8622" ry="18"/>
<text text-anchor="middle" x="128" y="-13.9" font-family="Times Roman,serif" font-size="14.00">writeln</text>
</g>
<!-- program&#45;&gt;writeln -->
<g id="edge4" class="edge"><title>program&#45;&gt;writeln</title>
<path fill="none" stroke="black" stroke-dasharray="5,2" d="M91.8652,-72.2022C97.5035,-63.7448 104.354,-53.4685 110.569,-44.147"/>
<polygon fill="black" stroke="black" points="113.636,-45.855 116.271,-35.593 107.812,-41.9721 113.636,-45.855"/>
</g>
</g>
</svg>
