<?xml version="1.0" encoding="UTF-8" standalone="no"?>
<!DOCTYPE svg PUBLIC "-//W3C//DTD SVG 1.1//EN"
 "http://www.w3.org/Graphics/SVG/1.1/DTD/svg11.dtd">
<!-- Generated by graphviz version 2.26.3 (20100126.1600)
 -->
<!-- Title: call_graph Pages: 1 -->
<svg width="165pt" height="404pt"
 viewBox="0.00 0.00 165.01 404.00" xmlns="http://www.w3.org/2000/svg" xmlns:xlink="http://www.w3.org/1999/xlink">
<g id="graph1" class="graph" transform="scale(1 1) rotate(0) translate(4 400)">
<title>call_graph</title>
<polygon fill="white" stroke="white" points="-4,5 -4,-400 162.014,-400 162.014,5 -4,5"/>
<!-- program -->
<g id="node1" class="node"><title>program</title>
<ellipse fill="none" stroke="black" cx="51" cy="-378" rx="50.9221" ry="18"/>
<text text-anchor="middle" x="51" y="-373.9" font-family="Times Roman,serif" font-size="14.00">program</text>
</g>
<!-- q -->
<g id="node10" class="node"><title>q</title>
<ellipse fill="none" stroke="black" cx="51" cy="-306" rx="27" ry="18"/>
<text text-anchor="middle" x="51" y="-301.9" font-family="Times Roman,serif" font-size="14.00">q</text>
</g>
<!-- program&#45;&gt;q -->
<g id="edge8" class="edge"><title>program&#45;&gt;q</title>
<path fill="none" stroke="black" d="M45.0476,-359.831C44.2856,-352.012 44.0696,-342.692 44.3995,-334.022"/>
<polygon fill="black" stroke="black" points="47.9004,-334.124 45.0727,-323.913 40.9159,-333.659 47.9004,-334.124"/>
</g>
<!-- program&#45;&gt;q -->
<g id="edge10" class="edge"><title>program&#45;&gt;q</title>
<path fill="none" stroke="black" stroke-dasharray="5,2" d="M56.9524,-359.831C57.7144,-352.012 57.9304,-342.692 57.6005,-334.022"/>
<polygon fill="black" stroke="black" points="61.0841,-333.659 56.9273,-323.913 54.0996,-334.124 61.0841,-333.659"/>
</g>
<!-- id -->
<g id="node2" class="node"><title>id</title>
<ellipse fill="none" stroke="black" cx="117" cy="-90" rx="27" ry="18"/>
<text text-anchor="middle" x="117" y="-85.9" font-family="Times Roman,serif" font-size="14.00">id</text>
</g>
<!-- writeln -->
<g id="node4" class="node"><title>writeln</title>
<ellipse fill="none" stroke="black" cx="89" cy="-18" rx="45.8622" ry="18"/>
<text text-anchor="middle" x="89" y="-13.9" font-family="Times Roman,serif" font-size="14.00">writeln</text>
</g>
<!-- id&#45;&gt;writeln -->
<g id="edge2" class="edge"><title>id&#45;&gt;writeln</title>
<path fill="none" stroke="black" d="M110.222,-72.5708C107.06,-64.4409 103.222,-54.571 99.6836,-45.4722"/>
<polygon fill="black" stroke="black" points="102.895,-44.0721 96.008,-36.0206 96.3705,-46.6092 102.895,-44.0721"/>
</g>
<!-- p -->
<g id="node5" class="node"><title>p</title>
<ellipse fill="none" stroke="black" cx="79" cy="-234" rx="27" ry="18"/>
<text text-anchor="middle" x="79" y="-229.9" font-family="Times Roman,serif" font-size="14.00">p</text>
</g>
<!-- p&#45;&gt;writeln -->
<g id="edge6" class="edge"><title>p&#45;&gt;writeln</title>
<path fill="none" stroke="black" d="M78.4324,-215.984C77.666,-186.038 76.8342,-124.15 81,-72 81.6686,-63.6303 82.8325,-54.5864 84.0689,-46.3372"/>
<polygon fill="black" stroke="black" points="87.5314,-46.8489 85.6419,-36.424 80.6179,-45.7519 87.5314,-46.8489"/>
</g>
<!-- succ -->
<g id="node7" class="node"><title>succ</title>
<ellipse fill="none" stroke="black" cx="122" cy="-162" rx="31.9646" ry="18"/>
<text text-anchor="middle" x="122" y="-157.9" font-family="Times Roman,serif" font-size="14.00">succ</text>
</g>
<!-- p&#45;&gt;succ -->
<g id="edge4" class="edge"><title>p&#45;&gt;succ</title>
<path fill="none" stroke="black" d="M89.1904,-216.937C94.3096,-208.365 100.625,-197.791 106.343,-188.217"/>
<polygon fill="black" stroke="black" points="109.461,-189.821 111.584,-179.441 103.452,-186.232 109.461,-189.821"/>
</g>
<!-- succ&#45;&gt;id -->
<g id="edge16" class="edge"><title>succ&#45;&gt;id</title>
<path fill="none" stroke="black" stroke-dasharray="5,2" d="M120.738,-143.831C120.204,-136.131 119.568,-126.974 118.973,-118.417"/>
<polygon fill="black" stroke="black" points="122.463,-118.147 118.279,-108.413 115.48,-118.632 122.463,-118.147"/>
</g>
<!-- succ&#45;&gt;writeln -->
<g id="edge18" class="edge"><title>succ&#45;&gt;writeln</title>
<path fill="none" stroke="black" d="M135.322,-145.342C148.291,-126.968 164.49,-96.7287 153,-72 146.789,-58.6326 135.458,-47.3832 124.038,-38.6709"/>
<polygon fill="black" stroke="black" points="125.953,-35.7374 115.779,-32.7814 121.889,-41.4369 125.953,-35.7374"/>
</g>
<!-- q&#45;&gt;writeln -->
<g id="edge14" class="edge"><title>q&#45;&gt;writeln</title>
<path fill="none" stroke="black" d="M47.6685,-288.074C45.8913,-277.598 43.8913,-264.098 43,-252 37.4239,-176.312 63.4176,-89.0417 78.6299,-45.5811"/>
<polygon fill="black" stroke="black" points="81.9839,-46.5963 82.0588,-36.0018 75.3933,-44.2372 81.9839,-46.5963"/>
</g>
<!-- q&#45;&gt;p -->
<g id="edge12" class="edge"><title>q&#45;&gt;p</title>
<path fill="none" stroke="black" stroke-dasharray="5,2" d="M57.778,-288.571C60.9872,-280.319 64.8935,-270.274 68.4758,-261.062"/>
<polygon fill="black" stroke="black" points="71.8248,-262.107 72.1874,-251.518 65.3008,-259.57 71.8248,-262.107"/>
</g>
</g>
</svg>
