<?xml version="1.0" encoding="UTF-8" standalone="no"?>
<!DOCTYPE svg PUBLIC "-//W3C//DTD SVG 1.1//EN"
 "http://www.w3.org/Graphics/SVG/1.1/DTD/svg11.dtd">
<!-- Generated by graphviz version 2.26.3 (20100126.1600)
 -->
<!-- Title: call_graph Pages: 1 -->
<svg width="316pt" height="188pt"
 viewBox="0.00 0.00 316.00 188.00" xmlns="http://www.w3.org/2000/svg" xmlns:xlink="http://www.w3.org/1999/xlink">
<g id="graph1" class="graph" transform="scale(1 1) rotate(0) translate(4 184)">
<title>call_graph</title>
<polygon fill="white" stroke="white" points="-4,5 -4,-184 313,-184 313,5 -4,5"/>
<!-- program -->
<g id="node1" class="node"><title>program</title>
<ellipse fill="none" stroke="black" cx="171" cy="-162" rx="50.9221" ry="18"/>
<text text-anchor="middle" x="171" y="-157.9" font-family="Times Roman,serif" font-size="14.00">program</text>
</g>
<!-- f -->
<g id="node2" class="node"><title>f</title>
<ellipse fill="none" stroke="black" cx="27" cy="-90" rx="27" ry="18"/>
<text text-anchor="middle" x="27" y="-85.9" font-family="Times Roman,serif" font-size="14.00">f</text>
</g>
<!-- program&#45;&gt;f -->
<g id="edge8" class="edge"><title>program&#45;&gt;f</title>
<path fill="none" stroke="black" d="M141.512,-147.256C117.143,-135.071 82.6503,-117.825 57.9002,-105.45"/>
<polygon fill="black" stroke="black" points="59.4425,-102.308 48.9329,-100.966 56.3119,-108.569 59.4425,-102.308"/>
</g>
<!-- h -->
<g id="node5" class="node"><title>h</title>
<ellipse fill="none" stroke="black" cx="99" cy="-90" rx="27" ry="18"/>
<text text-anchor="middle" x="99" y="-85.9" font-family="Times Roman,serif" font-size="14.00">h</text>
</g>
<!-- program&#45;&gt;h -->
<g id="edge10" class="edge"><title>program&#45;&gt;h</title>
<path fill="none" stroke="black" d="M153.937,-144.937C144.166,-135.166 131.793,-122.793 121.264,-112.264"/>
<polygon fill="black" stroke="black" points="123.533,-109.583 113.987,-104.987 118.583,-114.533 123.533,-109.583"/>
</g>
<!-- k -->
<g id="node7" class="node"><title>k</title>
<ellipse fill="none" stroke="black" cx="171" cy="-90" rx="27" ry="18"/>
<text text-anchor="middle" x="171" y="-85.9" font-family="Times Roman,serif" font-size="14.00">k</text>
</g>
<!-- program&#45;&gt;k -->
<g id="edge12" class="edge"><title>program&#45;&gt;k</title>
<path fill="none" stroke="black" d="M171,-143.831C171,-136.131 171,-126.974 171,-118.417"/>
<polygon fill="black" stroke="black" points="174.5,-118.413 171,-108.413 167.5,-118.413 174.5,-118.413"/>
</g>
<!-- writeln -->
<g id="node13" class="node"><title>writeln</title>
<ellipse fill="none" stroke="black" cx="262" cy="-90" rx="45.8622" ry="18"/>
<text text-anchor="middle" x="262" y="-85.9" font-family="Times Roman,serif" font-size="14.00">writeln</text>
</g>
<!-- program&#45;&gt;writeln -->
<g id="edge14" class="edge"><title>program&#45;&gt;writeln</title>
<path fill="none" stroke="black" d="M187.15,-144.571C198.78,-134.551 214.67,-121.889 228.878,-111.284"/>
<polygon fill="black" stroke="black" points="231.018,-114.055 237.004,-105.313 226.873,-108.414 231.018,-114.055"/>
</g>
<!-- program&#45;&gt;writeln -->
<g id="edge16" class="edge"><title>program&#45;&gt;writeln</title>
<path fill="none" stroke="black" stroke-dasharray="5,2" d="M196.424,-146.377C209.555,-136.877 225.369,-124.555 238.247,-113.855"/>
<polygon fill="black" stroke="black" points="240.854,-116.234 246.228,-107.103 236.333,-110.889 240.854,-116.234"/>
</g>
<!-- g -->
<g id="node4" class="node"><title>g</title>
<ellipse fill="none" stroke="black" cx="99" cy="-18" rx="27" ry="18"/>
<text text-anchor="middle" x="99" y="-13.9" font-family="Times Roman,serif" font-size="14.00">g</text>
</g>
<!-- f&#45;&gt;g -->
<g id="edge2" class="edge"><title>f&#45;&gt;g</title>
<path fill="none" stroke="black" d="M42.2693,-74.7307C52.197,-64.803 65.3153,-51.6847 76.4363,-40.5637"/>
<polygon fill="black" stroke="black" points="79.1564,-42.7933 83.7527,-33.2473 74.2067,-37.8436 79.1564,-42.7933"/>
</g>
<!-- h&#45;&gt;g -->
<g id="edge4" class="edge"><title>h&#45;&gt;g</title>
<path fill="none" stroke="black" d="M99,-71.8314C99,-64.131 99,-54.9743 99,-46.4166"/>
<polygon fill="black" stroke="black" points="102.5,-46.4132 99,-36.4133 95.5001,-46.4133 102.5,-46.4132"/>
</g>
<!-- k&#45;&gt;g -->
<g id="edge6" class="edge"><title>k&#45;&gt;g</title>
<path fill="none" stroke="black" d="M155.731,-74.7307C145.803,-64.803 132.685,-51.6847 121.564,-40.5637"/>
<polygon fill="black" stroke="black" points="123.793,-37.8436 114.247,-33.2473 118.844,-42.7933 123.793,-37.8436"/>
</g>
</g>
</svg>
