<?xml version="1.0" encoding="UTF-8" standalone="no"?>
<!DOCTYPE svg PUBLIC "-//W3C//DTD SVG 1.1//EN"
 "http://www.w3.org/Graphics/SVG/1.1/DTD/svg11.dtd">
<!-- Generated by graphviz version 2.26.3 (20100126.1600)
 -->
<!-- Title: call_graph Pages: 1 -->
<svg width="204pt" height="188pt"
 viewBox="0.00 0.00 204.00 188.00" xmlns="http://www.w3.org/2000/svg" xmlns:xlink="http://www.w3.org/1999/xlink">
<g id="graph1" class="graph" transform="scale(1 1) rotate(0) translate(4 184)">
<title>call_graph</title>
<polygon fill="white" stroke="white" points="-4,5 -4,-184 201,-184 201,5 -4,5"/>
<!-- program -->
<g id="node1" class="node"><title>program</title>
<ellipse fill="none" stroke="black" cx="94" cy="-162" rx="50.9221" ry="18"/>
<text text-anchor="middle" x="94" y="-157.9" font-family="Times Roman,serif" font-size="14.00">program</text>
</g>
<!-- readln -->
<g id="node3" class="node"><title>readln</title>
<ellipse fill="none" stroke="black" cx="41" cy="-90" rx="41.1906" ry="18"/>
<text text-anchor="middle" x="41" y="-85.9" font-family="Times Roman,serif" font-size="14.00">readln</text>
</g>
<!-- program&#45;&gt;readln -->
<g id="edge2" class="edge"><title>program&#45;&gt;readln</title>
<path fill="none" stroke="black" d="M81.1702,-144.571C74.7252,-135.815 66.7946,-125.042 59.6874,-115.387"/>
<polygon fill="black" stroke="black" points="62.4586,-113.247 53.7117,-107.269 56.8212,-117.397 62.4586,-113.247"/>
</g>
<!-- triangle -->
<g id="node5" class="node"><title>triangle</title>
<ellipse fill="none" stroke="black" cx="148" cy="-90" rx="48.1403" ry="18"/>
<text text-anchor="middle" x="148" y="-85.9" font-family="Times Roman,serif" font-size="14.00">triangle</text>
</g>
<!-- program&#45;&gt;triangle -->
<g id="edge4" class="edge"><title>program&#45;&gt;triangle</title>
<path fill="none" stroke="black" stroke-dasharray="5,2" d="M107.072,-144.571C113.59,-135.88 121.6,-125.2 128.8,-115.6"/>
<polygon fill="black" stroke="black" points="131.661,-117.618 134.861,-107.518 126.061,-113.418 131.661,-117.618"/>
</g>
<!-- writeln -->
<g id="node7" class="node"><title>writeln</title>
<ellipse fill="none" stroke="black" cx="148" cy="-18" rx="45.8622" ry="18"/>
<text text-anchor="middle" x="148" y="-13.9" font-family="Times Roman,serif" font-size="14.00">writeln</text>
</g>
<!-- triangle&#45;&gt;writeln -->
<g id="edge6" class="edge"><title>triangle&#45;&gt;writeln</title>
<path fill="none" stroke="black" d="M148,-71.8314C148,-64.131 148,-54.9743 148,-46.4166"/>
<polygon fill="black" stroke="black" points="151.5,-46.4132 148,-36.4133 144.5,-46.4133 151.5,-46.4132"/>
</g>
</g>
</svg>
