<?xml version="1.0" encoding="UTF-8" standalone="no"?>
<!DOCTYPE svg PUBLIC "-//W3C//DTD SVG 1.1//EN"
 "http://www.w3.org/Graphics/SVG/1.1/DTD/svg11.dtd">
<!-- Generated by graphviz version 2.26.3 (20100126.1600)
 -->
<!-- Title: call_graph Pages: 1 -->
<svg width="172pt" height="188pt"
 viewBox="0.00 0.00 172.00 188.00" xmlns="http://www.w3.org/2000/svg" xmlns:xlink="http://www.w3.org/1999/xlink">
<g id="graph1" class="graph" transform="scale(1 1) rotate(0) translate(4 184)">
<title>call_graph</title>
<polygon fill="white" stroke="white" points="-4,5 -4,-184 169,-184 169,5 -4,5"/>
<!-- program -->
<g id="node1" class="node"><title>program</title>
<ellipse fill="none" stroke="black" cx="82" cy="-162" rx="50.9221" ry="18"/>
<text text-anchor="middle" x="82" y="-157.9" font-family="Times Roman,serif" font-size="14.00">program</text>
</g>
<!-- f -->
<g id="node2" class="node"><title>f</title>
<ellipse fill="none" stroke="black" cx="27" cy="-90" rx="27" ry="18"/>
<text text-anchor="middle" x="27" y="-85.9" font-family="Times Roman,serif" font-size="14.00">f</text>
</g>
<!-- program&#45;&gt;f -->
<g id="edge4" class="edge"><title>program&#45;&gt;f</title>
<path fill="none" stroke="black" d="M68.686,-144.571C61.7316,-135.467 53.1103,-124.181 45.516,-114.239"/>
<polygon fill="black" stroke="black" points="48.2892,-112.104 39.4374,-106.282 42.7265,-116.353 48.2892,-112.104"/>
</g>
<!-- writeln -->
<g id="node4" class="node"><title>writeln</title>
<ellipse fill="none" stroke="black" cx="82" cy="-18" rx="45.8622" ry="18"/>
<text text-anchor="middle" x="82" y="-13.9" font-family="Times Roman,serif" font-size="14.00">writeln</text>
</g>
<!-- program&#45;&gt;writeln -->
<g id="edge8" class="edge"><title>program&#45;&gt;writeln</title>
<path fill="none" stroke="black" d="M82,-143.762C82,-119.201 82,-75.2474 82,-46.3541"/>
<polygon fill="black" stroke="black" points="85.5001,-46.0896 82,-36.0896 78.5001,-46.0897 85.5001,-46.0896"/>
</g>
<!-- tab -->
<g id="node7" class="node"><title>tab</title>
<ellipse fill="none" stroke="black" cx="137" cy="-90" rx="27.1004" ry="18"/>
<text text-anchor="middle" x="137" y="-85.9" font-family="Times Roman,serif" font-size="14.00">tab</text>
</g>
<!-- program&#45;&gt;tab -->
<g id="edge6" class="edge"><title>program&#45;&gt;tab</title>
<path fill="none" stroke="black" stroke-dasharray="5,2" d="M95.314,-144.571C102.268,-135.467 110.89,-124.181 118.484,-114.239"/>
<polygon fill="black" stroke="black" points="121.274,-116.353 124.563,-106.282 115.711,-112.104 121.274,-116.353"/>
</g>
<!-- f&#45;&gt;writeln -->
<g id="edge2" class="edge"><title>f&#45;&gt;writeln</title>
<path fill="none" stroke="black" stroke-dasharray="5,2" d="M39.4804,-73.6621C46.3144,-64.7157 54.9335,-53.4325 62.6221,-43.3674"/>
<polygon fill="black" stroke="black" points="65.513,-45.3487 68.8021,-35.2773 59.9503,-41.0993 65.513,-45.3487"/>
</g>
<!-- tab&#45;&gt;writeln -->
<g id="edge10" class="edge"><title>tab&#45;&gt;writeln</title>
<path fill="none" stroke="black" d="M124.52,-73.6621C117.686,-64.7157 109.066,-53.4325 101.378,-43.3674"/>
<polygon fill="black" stroke="black" points="104.05,-41.0993 95.1979,-35.2773 98.487,-45.3487 104.05,-41.0993"/>
</g>
</g>
</svg>
